{"glyphs":{"0":{"ha":917,"x_min":49,"x_max":863,"o":"m 533 271 q 546 309 533 271 q 558 453 558 347 q 532 642 558 560 q 458 724 506 724 q 401 682 425 724 q 365 580 376 640 q 354 453 354 519 q 381 272 354 350 q 458 194 408 194 q 533 271 508 194 m 458 -8 q 298 16 369 -8 q 169 93 226 40 q 80 238 111 146 q 49 453 49 329 q 79 681 49 586 q 167 828 110 775 q 294 904 224 881 q 458 928 365 928 q 621 901 549 928 q 748 818 693 874 q 833 670 803 763 q 863 453 863 578 q 832 237 863 328 q 745 93 801 146 q 617 16 689 40 q 458 -8 546 -8 z "},"1":{"ha":603,"x_min":42,"x_max":517,"o":"m 517 210 q 476 49 517 97 q 354 1 436 1 q 267 18 300 1 q 216 79 233 35 q 197 199 199 124 l 194 717 q 85 741 128 717 q 42 822 42 765 q 81 898 42 868 q 192 928 121 928 q 270 927 219 928 q 342 926 321 926 q 480 892 444 926 q 515 774 515 858 l 517 210 z "},"2":{"ha":808,"x_min":46,"x_max":758,"o":"m 488 258 l 642 258 q 758 128 758 258 q 722 23 758 54 q 590 -8 685 -8 l 214 -8 q 81 17 117 -8 q 46 128 46 43 q 51 176 46 156 q 72 215 57 196 q 114 253 88 235 q 232 333 189 303 q 316 398 275 364 q 376 456 357 432 q 412 511 396 481 q 433 572 428 542 q 438 644 438 603 q 389 722 438 722 q 336 631 336 722 q 303 564 336 579 q 204 549 269 549 q 84 588 115 549 q 53 717 53 626 q 138 867 53 807 q 376 928 224 928 q 754 640 754 928 q 739 519 754 574 q 701 427 724 464 q 641 357 679 390 q 569 303 603 324 q 488 258 536 282 z "},"3":{"ha":814,"x_min":43,"x_max":767,"o":"m 442 626 q 315 694 442 694 q 244 690 289 694 q 178 685 199 685 q 78 804 78 685 q 367 928 78 928 q 647 867 554 928 q 740 707 740 806 q 621 488 740 569 q 734 398 701 444 q 767 264 767 351 q 672 67 767 143 q 417 -8 576 -8 q 130 33 217 -8 q 43 157 43 74 q 71 252 43 226 q 149 278 99 278 q 226 272 174 278 q 307 267 279 267 q 458 322 458 267 q 429 374 458 360 q 319 389 400 389 q 206 410 239 389 q 172 488 172 431 q 286 574 172 574 q 395 581 360 574 q 436 597 431 588 q 442 626 442 606 z "},"4":{"ha":944,"x_min":42,"x_max":899,"o":"m 475 401 l 293 401 l 479 697 l 475 401 m 633 1 q 754 49 714 1 q 794 206 794 96 q 875 230 851 210 q 899 303 899 250 q 890 358 899 338 q 858 391 881 379 q 794 407 835 403 l 794 774 q 758 892 794 858 q 621 926 722 926 q 563 927 599 926 q 500 928 526 928 q 301 822 374 928 q 79 489 156 608 q 42 358 42 431 q 85 247 42 290 q 219 204 129 204 q 476 204 267 204 q 514 47 476 92 q 633 1 551 1 z "},"5":{"ha":826,"x_min":58,"x_max":772,"o":"m 660 703 q 698 708 682 703 q 724 726 714 714 q 739 758 735 739 q 743 803 743 776 q 719 901 743 876 q 631 926 696 926 l 236 926 q 140 913 175 926 q 90 874 104 899 q 76 811 76 850 l 76 563 q 86 463 76 496 q 121 417 96 431 q 196 403 146 403 q 457 325 457 403 q 426 265 457 282 q 332 249 396 249 q 242 264 304 249 q 154 279 179 279 q 58 143 58 279 q 128 29 58 67 q 364 -8 197 -8 q 672 79 571 -8 q 772 325 772 167 q 735 481 772 415 q 626 575 699 546 q 513 605 569 597 q 372 613 456 613 l 375 703 l 660 703 z "},"6":{"ha":844,"x_min":47,"x_max":797,"o":"m 513 299 q 494 403 513 358 q 443 449 476 449 q 388 403 408 449 q 368 299 368 357 q 388 201 368 243 q 442 158 407 158 q 495 200 478 158 q 513 299 513 242 m 351 563 q 492 585 424 585 q 649 551 579 585 q 758 456 718 517 q 797 319 797 396 q 753 141 797 217 q 633 26 710 65 q 454 -14 556 -14 q 310 5 375 -14 q 202 57 246 24 q 127 132 158 90 q 79 226 96 174 q 55 328 63 278 q 47 431 47 378 q 74 635 47 544 q 156 794 100 725 q 305 902 211 864 q 526 940 399 940 q 714 892 638 940 q 790 769 790 844 q 760 685 790 722 q 681 649 731 649 q 606 671 657 649 q 515 693 556 693 q 410 656 457 693 q 351 563 363 618 z "},"7":{"ha":819,"x_min":40,"x_max":783,"o":"m 150 147 q 190 40 150 78 q 307 1 229 1 q 374 6 350 1 q 417 26 397 10 q 449 74 438 43 q 468 157 460 104 q 544 416 492 294 q 715 667 597 538 q 725 678 718 671 q 750 706 742 697 q 767 730 758 715 q 780 759 776 744 q 783 792 783 774 q 744 901 783 875 q 606 928 704 928 q 194 926 547 926 q 74 905 108 926 q 40 813 40 883 q 70 727 40 753 q 182 701 100 701 q 228 702 201 701 q 281 703 256 703 q 327 703 306 703 q 362 703 349 703 q 374 703 375 703 q 350 669 365 690 q 296 581 335 647 q 228 452 257 515 q 174 303 199 389 q 150 147 150 218 z "},"8":{"ha":854,"x_min":42,"x_max":804,"o":"m 492 682 q 474 758 492 725 q 426 790 457 790 q 388 772 404 790 q 365 728 372 754 q 357 672 357 701 q 375 590 357 625 q 426 556 393 556 q 475 593 458 556 q 492 682 492 631 m 494 263 q 476 358 494 317 q 425 399 458 399 q 371 357 390 399 q 351 263 351 315 q 359 199 351 229 q 384 149 367 169 q 425 129 401 129 q 477 169 460 129 q 494 263 494 208 m 424 -8 q 231 22 317 -8 q 94 115 146 53 q 42 260 42 176 q 182 485 42 410 q 88 669 88 554 q 182 860 88 790 q 425 931 276 931 q 667 860 574 931 q 761 669 761 790 q 667 485 761 554 q 804 260 804 408 q 697 63 804 135 q 424 -8 589 -8 z "},"9":{"ha":839,"x_min":47,"x_max":797,"o":"m 324 619 q 342 515 324 560 q 393 469 360 469 q 433 492 415 469 q 458 549 450 515 q 467 619 467 583 q 447 722 467 678 q 393 767 428 767 q 341 724 358 767 q 324 619 324 681 m 492 356 q 353 333 419 333 q 133 417 219 333 q 47 628 47 500 q 90 794 47 724 q 210 902 133 865 q 389 939 288 939 q 557 910 483 939 q 675 837 631 882 q 748 729 719 792 q 787 605 776 667 q 797 475 797 543 q 781 316 797 389 q 730 182 765 243 q 641 78 694 121 q 509 11 588 35 q 332 -12 431 -12 q 143 35 219 -12 q 67 157 67 82 q 97 242 67 204 q 176 279 128 279 q 251 253 200 279 q 343 226 303 226 q 408 243 376 226 q 463 290 440 260 q 492 356 485 319 z "}," ":{"ha":375,"x_min":0,"x_max":0,"o":""},"!":{"ha":485,"x_min":78,"x_max":407,"o":"m 407 836 q 368 931 407 901 q 235 960 329 960 q 158 951 189 960 q 109 922 126 942 q 85 878 92 903 q 78 821 78 854 q 106 596 78 754 q 133 371 133 438 q 157 284 133 311 q 239 257 181 257 q 325 283 299 257 q 351 367 351 310 q 357 453 351 404 q 371 551 363 503 q 388 649 379 600 q 401 747 396 697 q 407 836 407 797 m 88 96 q 131 176 88 151 q 240 201 175 201 q 406 96 406 201 q 362 17 406 44 q 240 -10 318 -10 q 128 20 168 -10 q 88 96 88 50 z "},"\"":{"ha":815,"x_min":74,"x_max":767,"o":"z "},"#":{"ha":976,"x_min":24,"x_max":958,"o":"m 854 565 q 931 541 903 565 q 958 471 958 517 q 839 374 958 374 l 781 374 l 758 297 l 800 297 q 856 286 832 297 q 892 253 879 275 q 904 203 904 232 q 785 106 904 106 l 706 106 l 697 76 q 592 -8 675 -8 q 533 3 557 -8 q 498 34 508 15 q 488 78 488 53 q 490 106 488 85 l 336 106 l 329 78 q 222 -7 306 -7 q 144 17 171 -7 q 118 79 118 40 q 121 106 118 85 q 24 199 24 111 q 144 297 24 297 l 174 297 l 196 374 l 185 374 q 72 467 72 374 q 193 565 72 565 l 250 565 l 258 596 q 297 656 271 640 q 374 671 324 671 q 439 647 411 671 q 467 588 467 624 q 464 565 467 576 l 618 565 l 626 594 q 666 655 639 639 q 743 671 693 671 q 808 647 781 671 q 836 586 836 622 q 833 565 836 576 l 854 565 m 407 378 l 383 292 l 546 292 l 569 378 l 407 378 z "},"$":{"ha":1000,"x_min":79,"x_max":917,"o":"m 358 949 l 360 993 q 396 1086 361 1056 q 490 1117 431 1117 q 588 1094 554 1117 q 621 1006 621 1072 l 621 949 q 817 867 740 925 q 893 749 893 808 q 884 713 893 728 q 862 692 875 699 q 833 686 849 686 q 758 712 808 686 q 647 763 708 738 q 535 789 586 789 q 453 722 453 789 q 466 683 453 701 q 508 644 479 664 q 565 608 538 624 q 642 567 593 593 q 724 522 690 542 q 874 406 831 461 q 917 278 917 350 q 626 -4 917 31 l 626 -50 q 594 -160 626 -131 q 493 -190 563 -190 q 395 -161 426 -190 q 364 -61 364 -132 l 364 10 q 214 68 281 31 q 113 147 147 106 q 79 224 79 188 q 99 276 79 254 q 158 297 119 297 q 299 260 188 297 q 478 224 410 224 q 540 267 540 224 q 535 290 540 279 q 519 310 531 300 q 492 330 507 321 q 452 353 478 339 q 401 381 426 367 q 333 417 375 394 q 253 461 292 439 q 136 572 178 504 q 94 697 94 639 q 163 858 94 790 q 358 949 231 925 z "},"%":{"ha":1240,"x_min":25,"x_max":1199,"o":"m 1019 189 q 1016 227 1019 210 q 1006 256 1013 244 q 989 268 999 268 q 963 244 972 268 q 954 189 954 219 q 963 138 954 160 q 989 117 972 117 q 1006 128 999 117 q 1017 155 1014 139 q 1019 189 1019 171 m 989 -17 q 833 32 892 -17 q 775 189 775 81 q 832 354 775 306 q 989 403 889 403 q 1142 351 1085 403 q 1199 189 1199 299 q 1142 32 1199 81 q 989 -17 1085 -17 m 269 722 q 269 741 269 732 q 266 759 268 750 q 261 776 264 768 q 256 789 258 783 q 248 798 253 794 q 238 801 243 801 q 213 777 222 801 q 204 722 204 753 q 213 671 204 693 q 238 649 222 649 q 262 670 254 649 q 269 722 269 692 m 238 515 q 83 565 142 515 q 25 722 25 614 q 81 886 25 838 q 238 935 138 935 q 322 923 285 935 q 388 886 360 911 q 433 819 417 861 q 449 722 449 778 q 391 565 449 614 q 238 515 333 515 m 608 69 q 563 -1 589 21 q 493 -24 536 -24 q 367 19 426 -24 q 308 114 308 61 q 324 174 308 136 l 638 936 q 680 993 654 975 q 749 1011 706 1011 q 876 972 815 1011 q 936 882 936 933 q 925 832 936 861 l 608 69 z "},"&":{"ha":1164,"x_min":17,"x_max":1129,"o":"m 533 735 q 527 781 533 761 q 507 813 521 801 q 474 825 493 825 q 428 799 444 825 q 413 733 413 774 q 428 660 413 692 q 474 629 444 629 q 518 660 503 629 q 533 735 533 692 m 126 733 q 174 855 126 804 q 298 928 222 906 q 471 950 374 950 q 614 935 549 950 q 725 893 679 921 q 797 824 771 865 q 822 733 822 783 q 707 524 822 604 q 856 347 778 436 q 908 458 881 399 q 941 497 921 488 q 999 506 961 506 q 1060 486 1038 506 q 1083 431 1083 467 q 1060 314 1083 383 q 1008 194 1038 244 q 1051 151 1019 174 q 1106 109 1082 128 q 1129 71 1129 90 q 1107 17 1129 43 q 1031 -10 1085 -10 q 946 1 981 -10 q 878 34 911 13 q 839 58 846 56 q 457 -10 643 -10 q 281 10 358 -10 q 155 61 203 31 q 74 133 107 92 q 29 213 42 174 q 17 292 17 253 q 70 453 17 385 q 206 556 124 522 q 126 733 126 629 m 567 214 l 396 396 q 351 361 369 383 q 332 314 332 339 q 351 253 332 279 q 401 213 369 226 q 469 200 432 200 q 567 214 522 200 z "},"'":{"ha":458,"x_min":60,"x_max":393,"o":"m 74 829 q 116 749 74 775 q 224 724 158 724 q 172 666 201 688 q 81 614 143 644 q 60 574 60 604 q 74 537 60 551 q 114 522 89 522 q 175 533 140 522 q 248 568 210 544 q 319 624 286 592 q 372 703 351 656 q 393 803 393 750 q 346 904 393 874 q 224 935 299 935 q 113 906 151 935 q 74 829 74 876 z "},"(":{"ha":603,"x_min":90,"x_max":515,"o":"m 421 446 q 435 253 421 351 q 468 90 450 156 q 501 -39 486 25 q 515 -137 515 -103 q 505 -183 515 -164 q 478 -209 494 -201 q 443 -217 463 -217 q 328 -167 389 -217 q 215 -33 268 -117 q 126 178 161 51 q 90 444 90 306 q 126 710 90 583 q 215 922 161 838 q 329 1056 268 1006 q 443 1106 390 1106 q 494 1085 474 1106 q 515 1025 515 1064 q 492 896 515 985 q 444 685 468 807 q 421 446 421 564 z "},")":{"ha":568,"x_min":107,"x_max":532,"o":"m 201 446 q 187 253 201 351 q 154 90 172 156 q 122 -39 136 25 q 107 -137 107 -103 q 117 -183 107 -164 q 144 -209 128 -201 q 179 -217 160 -217 q 294 -167 233 -217 q 408 -33 354 -117 q 497 178 461 51 q 532 444 532 306 q 497 710 532 583 q 408 922 461 838 q 293 1056 354 1006 q 179 1106 232 1106 q 128 1085 149 1106 q 107 1025 107 1064 q 131 896 107 985 q 178 685 154 807 q 201 446 201 564 z "},"*":{"ha":789,"x_min":42,"x_max":747,"o":"m 294 1038 q 298 1090 294 1068 q 310 1128 301 1113 q 331 1153 318 1144 q 362 1167 344 1163 q 403 1171 379 1171 q 475 1136 454 1171 q 496 1025 496 1101 l 496 974 l 578 1003 q 654 1019 625 1019 q 699 1006 678 1019 q 734 965 721 992 q 747 908 747 939 q 719 853 747 876 q 633 808 692 829 l 579 789 l 642 701 q 672 624 672 657 q 638 556 672 588 q 565 525 603 525 q 478 582 519 525 l 393 704 l 307 582 q 221 525 267 525 q 149 556 183 525 q 114 622 114 588 q 144 701 114 657 l 207 790 l 156 808 q 69 853 97 829 q 42 908 42 876 q 70 988 42 956 q 135 1019 99 1019 q 213 1003 165 1019 l 294 974 l 294 1038 z "},"+":{"ha":767,"x_min":60,"x_max":704,"o":"m 557 436 q 672 409 639 436 q 704 317 704 382 q 666 238 704 260 q 543 215 628 215 l 489 215 l 489 128 q 382 3 489 3 q 267 138 267 3 l 267 215 l 183 215 q 60 322 60 215 q 87 406 60 375 q 188 436 114 436 l 267 436 l 267 501 q 294 615 267 583 q 388 647 321 647 q 447 630 425 647 q 479 578 469 613 q 489 486 489 543 l 489 436 l 557 436 z "},",":{"ha":432,"x_min":42,"x_max":375,"o":"m 56 96 q 72 150 56 126 q 123 188 89 174 q 206 201 157 201 q 328 171 281 201 q 375 68 375 140 q 354 -32 375 15 q 301 -111 333 -79 q 230 -166 268 -143 q 157 -200 192 -189 q 96 -211 122 -211 q 56 -197 71 -211 q 42 -160 42 -182 q 63 -121 42 -131 q 154 -68 125 -90 q 206 -10 183 -46 q 98 15 140 -10 q 56 96 56 40 z "},"-":{"ha":546,"x_min":49,"x_max":497,"o":"m 364 481 q 443 470 414 481 q 485 436 472 460 q 497 372 497 413 q 463 301 497 321 q 351 281 428 281 l 161 281 q 49 378 49 281 q 171 481 49 481 l 364 481 z "},".":{"ha":393,"x_min":42,"x_max":344,"o":"m 42 96 q 85 15 42 40 q 193 -10 128 -10 q 306 14 267 -10 q 344 96 344 38 q 193 201 344 201 q 81 172 121 201 q 42 96 42 143 z "},"/":{"ha":758,"x_min":104,"x_max":701,"o":"m 404 861 q 357 931 383 908 q 288 953 331 953 q 163 910 222 953 q 104 815 104 868 q 119 757 104 794 l 401 51 q 444 -6 418 13 q 513 -24 471 -24 q 640 16 579 -24 q 701 106 701 56 q 690 156 701 126 l 404 861 z "},":":{"ha":414,"x_min":51,"x_max":354,"o":"m 51 565 q 94 485 51 510 q 203 460 138 460 q 315 483 276 460 q 354 565 354 507 q 203 671 354 671 q 91 642 131 671 q 51 565 51 613 m 51 94 q 94 14 51 39 q 203 -11 138 -11 q 315 13 276 -11 q 354 94 354 36 q 203 200 354 200 q 91 171 131 200 q 51 94 51 142 z "},";":{"ha":435,"x_min":56,"x_max":389,"o":"m 69 96 q 86 150 69 126 q 137 188 103 174 q 219 201 171 201 q 342 171 294 201 q 389 68 389 140 q 368 -32 389 15 q 315 -111 347 -79 q 244 -166 282 -143 q 171 -200 206 -189 q 110 -211 136 -211 q 70 -197 85 -211 q 56 -160 56 -182 q 76 -121 56 -131 q 168 -68 139 -90 q 219 -10 197 -46 q 112 15 154 -10 q 69 96 69 40 m 72 565 q 115 485 72 510 q 224 460 158 460 q 336 483 297 460 q 375 565 375 507 q 224 671 375 671 q 112 642 151 671 q 72 565 72 613 z "},"<":{"ha":619,"x_min":56,"x_max":572,"o":"m 390 10 l 108 219 q 56 326 56 257 q 104 429 56 392 l 346 626 q 479 683 419 683 q 539 651 508 683 q 569 579 569 619 q 560 544 569 561 q 533 510 551 528 q 482 467 515 492 l 317 331 l 486 201 q 557 138 542 163 q 572 81 572 113 q 542 8 572 40 q 481 -24 511 -24 q 390 10 438 -24 z "},"=":{"ha":776,"x_min":32,"x_max":747,"o":"m 614 276 q 693 265 664 276 q 735 231 722 254 q 747 168 747 208 q 713 96 747 117 q 601 75 678 75 l 144 75 q 32 172 32 75 q 153 276 32 276 l 614 276 m 614 563 q 693 551 664 563 q 735 517 722 540 q 747 453 747 494 q 713 382 747 403 q 601 361 678 361 l 144 361 q 32 458 32 361 q 153 563 32 563 l 614 563 z "},">":{"ha":619,"x_min":47,"x_max":564,"o":"m 229 10 l 511 219 q 564 326 564 257 q 515 429 564 392 l 274 626 q 140 683 200 683 q 81 651 111 683 q 50 579 50 619 q 69 528 50 553 q 138 467 89 504 l 303 331 l 133 201 q 63 138 78 163 q 47 81 47 113 q 78 8 47 40 q 139 -24 108 -24 q 229 10 182 -24 z "},"?":{"ha":801,"x_min":33,"x_max":731,"o":"m 731 710 q 634 897 731 835 q 357 960 538 960 q 111 914 189 960 q 33 789 33 868 q 43 739 33 764 q 74 689 53 714 q 138 648 96 664 q 235 632 179 632 q 282 634 264 632 q 318 643 300 636 q 345 665 336 650 q 354 703 354 679 q 344 747 354 721 q 333 779 333 772 q 369 814 333 814 q 424 773 403 814 q 446 679 446 732 q 426 588 446 632 q 380 510 407 543 q 325 445 353 476 q 278 382 297 414 q 260 319 260 350 q 361 249 260 249 q 465 285 403 249 q 586 383 526 322 q 688 532 646 443 q 731 710 731 621 m 197 96 q 242 176 197 151 q 351 201 286 201 q 515 96 515 201 q 472 17 515 44 q 351 -10 429 -10 q 286 -1 315 -10 q 238 21 257 7 q 208 54 218 35 q 197 96 197 74 z "},"@":{"ha":1431,"x_min":25,"x_max":1407,"o":"m 778 213 l 778 424 q 728 456 758 456 q 693 434 708 456 q 670 381 678 413 q 663 315 663 350 q 665 277 663 296 q 673 242 668 258 q 685 212 678 225 q 703 191 693 199 q 726 183 714 183 q 778 213 758 183 m 725 -256 q 418 -211 553 -256 q 198 -86 283 -167 q 69 105 113 -6 q 25 350 25 215 q 206 766 25 621 q 728 911 386 911 q 858 905 794 911 q 991 883 922 899 q 1119 845 1060 868 q 1232 785 1178 822 q 1324 701 1286 749 q 1385 588 1363 654 q 1407 444 1407 522 q 1381 290 1407 358 q 1297 167 1354 222 q 1136 82 1239 113 q 892 51 1033 51 q 794 93 818 51 q 625 44 722 44 q 478 117 536 44 q 419 315 419 189 q 477 519 419 443 q 625 594 535 594 q 793 531 715 594 q 890 586 822 586 q 985 560 951 586 q 1018 464 1018 533 l 1018 257 q 1133 411 1133 285 q 1038 626 1133 564 q 736 688 942 688 q 565 670 639 688 q 429 613 490 653 q 335 502 368 574 q 303 329 303 431 q 323 188 303 251 q 387 73 343 125 q 510 -8 431 21 q 701 -36 590 -36 q 758 -33 718 -36 q 819 -31 799 -31 q 894 -64 863 -31 q 926 -144 926 -97 q 915 -194 926 -174 q 885 -227 903 -215 q 840 -245 868 -239 q 787 -253 813 -251 q 725 -256 761 -256 z "},"A":{"ha":989,"x_min":60,"x_max":932,"o":"m 611 211 l 381 211 l 381 138 q 343 33 381 67 q 214 0 306 0 q 150 11 175 0 q 106 49 125 22 q 78 126 88 75 q 65 248 69 176 q 60 429 60 319 q 80 605 60 525 q 134 740 100 685 q 211 838 168 796 q 305 904 254 881 q 403 940 356 928 q 500 951 451 951 q 615 935 558 951 q 731 881 672 919 q 833 784 789 842 q 904 635 876 726 q 932 429 932 543 q 919 158 932 246 q 874 35 906 69 q 778 0 843 0 q 649 33 686 0 q 611 138 611 67 l 611 211 m 497 725 q 409 690 438 725 q 381 567 381 656 l 381 403 l 611 403 l 611 569 q 597 663 611 628 q 559 712 583 699 q 497 725 535 725 z "},"B":{"ha":1018,"x_min":101,"x_max":936,"o":"m 807 494 q 936 290 936 418 q 915 184 936 235 q 851 92 893 133 q 739 26 808 50 q 582 1 669 1 l 260 1 q 138 44 175 1 q 101 199 101 88 l 101 786 q 118 869 101 833 q 172 928 135 906 q 260 950 208 950 l 578 950 q 809 874 717 949 q 901 683 901 800 q 895 617 901 646 q 876 567 889 589 q 847 528 864 544 q 807 494 831 511 m 636 313 q 613 383 636 358 q 544 419 589 408 q 422 429 500 429 l 422 189 q 583 216 531 189 q 636 313 636 243 m 618 683 q 573 763 618 742 q 422 785 528 785 l 422 572 q 528 582 488 572 q 594 616 569 592 q 618 683 618 640 z "},"C":{"ha":1088,"x_min":71,"x_max":1018,"o":"m 657 690 q 633 740 657 719 q 575 761 608 761 q 465 685 508 761 q 422 514 422 610 q 450 381 422 440 q 531 288 478 322 q 653 253 583 253 q 751 273 704 253 q 828 317 799 293 q 888 362 857 342 q 943 382 919 382 q 996 358 974 382 q 1018 307 1018 333 q 1001 239 1018 278 q 946 156 983 200 q 858 76 908 113 q 734 15 808 39 q 578 -10 660 -10 q 377 23 469 -10 q 217 116 285 56 q 110 268 149 176 q 71 474 71 360 q 206 829 71 699 q 558 960 340 960 q 764 922 669 960 q 914 818 858 885 q 969 672 969 751 q 908 506 969 581 q 750 432 847 432 q 650 463 694 432 q 606 550 606 493 q 631 624 606 576 q 657 690 657 671 z "},"D":{"ha":1000,"x_min":94,"x_max":936,"o":"m 457 950 q 805 825 674 950 q 936 481 936 700 q 923 343 936 410 q 879 213 910 276 q 803 103 849 150 q 686 28 757 57 q 526 0 615 0 l 253 0 q 131 43 168 0 q 94 199 94 86 l 94 785 q 253 950 94 950 l 457 950 m 415 189 q 478 197 451 189 q 530 224 506 204 q 569 278 554 244 q 594 363 585 311 q 603 486 603 415 q 589 620 603 565 q 549 703 575 675 q 491 744 522 732 q 415 757 460 756 l 415 189 z "},"E":{"ha":933,"x_min":96,"x_max":864,"o":"m 654 564 q 758 540 728 564 q 788 460 788 517 q 752 392 788 413 q 642 372 717 372 l 417 372 l 417 225 l 718 224 q 830 201 796 224 q 864 119 864 178 q 824 26 864 53 q 704 0 785 0 l 254 0 q 134 44 172 0 q 96 199 96 88 l 96 785 q 254 951 96 951 l 704 951 q 824 926 785 951 q 864 836 864 901 q 830 751 864 775 q 718 726 796 726 l 415 726 l 415 564 l 654 564 z "},"F":{"ha":896,"x_min":85,"x_max":858,"o":"m 406 193 q 364 49 406 99 q 243 0 322 0 q 126 45 168 0 q 85 199 85 90 l 85 785 q 97 862 85 829 q 131 914 108 894 q 181 942 153 933 q 243 951 208 951 l 699 951 q 819 926 779 951 q 858 836 858 901 q 824 751 858 775 q 713 726 790 726 l 406 726 l 406 564 l 650 564 q 713 558 688 564 q 755 540 739 553 q 777 508 771 526 q 783 460 783 489 q 749 392 783 413 q 638 372 714 372 l 406 372 l 406 193 z "},"G":{"ha":1086,"x_min":71,"x_max":1018,"o":"m 628 718 q 571 761 628 761 q 471 696 513 761 q 429 478 429 631 q 477 272 429 336 q 590 207 525 207 q 628 215 611 207 q 657 240 646 224 q 668 281 668 257 q 610 293 635 281 q 575 324 586 306 q 564 365 564 343 q 590 440 564 415 q 681 465 617 465 l 849 465 q 974 431 929 465 q 1018 308 1018 396 q 896 85 1018 181 q 606 -10 774 -10 q 331 46 451 -10 q 141 212 211 101 q 71 474 71 322 q 207 829 71 699 q 568 960 343 960 q 728 947 657 960 q 845 911 799 933 q 923 858 892 889 q 967 792 954 826 q 981 719 981 757 q 972 669 981 693 q 942 620 964 644 q 876 581 921 596 q 769 565 832 565 q 653 592 678 565 q 628 718 628 619 z "},"H":{"ha":1083,"x_min":79,"x_max":1004,"o":"m 1004 208 q 964 48 1004 96 q 842 0 924 0 q 724 44 761 0 q 686 199 686 88 l 685 356 l 401 356 l 401 208 q 363 47 401 94 q 239 0 324 0 q 121 44 158 0 q 83 199 83 88 l 79 785 q 123 911 79 871 q 239 951 167 951 q 362 921 322 951 q 401 797 401 890 l 401 564 l 683 564 l 683 785 q 705 881 683 843 q 760 935 726 919 q 842 951 794 951 q 963 921 922 951 q 1004 797 1004 890 l 1004 208 z "},"I":{"ha":506,"x_min":97,"x_max":417,"o":"m 417 208 q 376 50 417 100 q 254 0 336 0 q 135 43 174 0 q 97 197 97 86 l 97 785 q 254 951 97 951 q 376 921 335 951 q 417 797 417 890 l 417 208 z "},"J":{"ha":914,"x_min":71,"x_max":831,"o":"m 369 276 q 393 213 369 236 q 446 189 417 189 q 496 208 481 189 q 511 276 511 226 l 511 785 q 548 910 511 869 q 669 951 585 951 q 788 917 744 951 q 831 797 831 882 l 831 282 q 738 60 831 129 q 467 -10 646 -10 q 361 -1 410 -10 q 275 22 313 7 q 206 56 238 36 q 153 99 175 75 q 115 148 132 122 q 90 201 99 174 q 76 252 81 228 q 71 301 71 276 q 102 428 71 394 q 225 463 133 463 q 338 436 299 463 q 378 364 378 410 q 374 319 378 350 q 369 276 369 289 z "},"K":{"ha":1001,"x_min":92,"x_max":922,"o":"m 735 457 q 864 385 806 449 q 922 224 922 322 q 908 81 922 128 q 861 17 894 35 q 760 0 828 0 q 670 15 706 0 q 618 60 635 31 q 601 138 601 90 q 597 240 601 199 q 584 305 592 281 q 561 342 576 329 q 531 358 546 354 q 492 361 517 361 l 418 361 l 418 207 q 375 48 418 96 q 249 0 332 0 q 130 45 168 0 q 92 197 92 90 l 92 776 q 124 908 92 864 q 231 951 157 951 q 302 946 274 951 q 358 926 331 940 q 398 880 385 911 q 411 800 411 849 q 410 703 411 757 q 410 628 410 650 q 419 597 410 610 q 447 577 428 585 q 493 569 465 569 q 573 617 553 569 q 593 810 593 664 q 632 917 593 882 q 757 951 671 951 q 882 915 850 951 q 914 786 914 879 q 860 549 914 633 q 735 457 807 465 z "},"L":{"ha":844,"x_min":86,"x_max":789,"o":"m 267 0 q 164 20 203 1 q 106 82 125 39 q 86 197 86 125 l 86 785 q 129 905 86 858 q 243 951 172 951 q 366 921 326 951 q 406 797 406 890 l 406 240 l 643 240 q 756 217 724 240 q 789 119 789 193 q 751 22 789 44 q 629 0 714 0 l 267 0 z "},"M":{"ha":1318,"x_min":92,"x_max":1229,"o":"m 913 508 l 913 144 q 953 34 914 68 q 1056 0 993 0 q 1229 138 1228 0 l 1229 742 q 1176 901 1229 849 q 1026 953 1122 953 q 842 853 893 953 l 644 453 l 458 860 q 401 928 435 903 q 304 954 367 954 q 140 900 189 954 q 92 739 92 846 l 92 133 q 119 27 92 54 q 208 0 147 0 q 290 28 263 0 q 317 115 317 56 l 317 508 l 478 215 q 557 102 526 133 q 632 71 588 71 q 692 90 667 71 q 739 153 717 108 l 913 508 z "},"N":{"ha":1074,"x_min":93,"x_max":981,"o":"m 981 132 q 944 35 981 71 q 839 0 908 0 q 803 4 821 0 q 765 19 785 8 q 729 40 744 31 q 691 70 714 50 q 655 102 668 90 q 614 140 642 114 q 574 179 586 167 l 319 419 l 319 118 q 294 25 319 50 q 213 0 268 0 q 122 28 151 0 q 93 121 93 56 l 93 792 q 133 911 93 871 q 249 951 174 951 q 331 935 300 951 q 406 878 363 919 l 757 528 l 757 831 q 787 920 757 890 q 868 950 817 950 q 954 922 928 950 q 981 832 981 894 l 981 132 z "},"O":{"ha":1118,"x_min":72,"x_max":1046,"o":"m 804 47 q 749 19 804 47 q 558 -8 694 -8 q 312 47 421 -8 q 138 211 203 101 q 72 469 72 321 q 208 827 72 694 q 558 960 343 960 q 910 827 774 960 q 1046 469 1046 694 q 980 211 1046 321 q 804 47 914 101 m 558 194 q 640 236 606 194 q 688 339 674 278 q 703 469 703 400 q 688 603 703 540 q 638 711 672 667 q 558 756 604 756 q 481 711 514 756 q 431 603 447 667 q 414 469 414 539 q 430 339 414 400 q 480 236 446 278 q 558 194 514 194 z "},"P":{"ha":972,"x_min":85,"x_max":917,"o":"m 421 208 q 379 48 421 96 q 251 0 338 0 q 125 44 165 0 q 85 199 85 88 l 85 785 q 131 910 85 869 q 251 951 176 951 l 499 951 q 665 927 589 951 q 798 859 742 903 q 885 749 854 815 q 917 603 917 683 q 860 431 917 504 q 710 322 803 358 q 500 286 617 286 l 421 286 l 421 208 m 596 622 q 586 703 596 674 q 552 749 576 733 q 499 769 528 764 q 421 774 471 774 l 421 468 q 490 475 460 468 q 544 499 519 482 q 583 547 569 515 q 596 622 596 578 z "},"Q":{"ha":1118,"x_min":72,"x_max":1046,"o":"m 689 338 q 696 367 689 338 q 703 469 703 397 q 688 603 703 540 q 640 710 674 667 q 561 754 607 754 q 481 710 515 754 q 431 602 447 665 q 415 468 415 539 q 421 389 415 428 q 438 315 426 350 q 467 253 450 279 q 508 210 483 226 q 561 194 532 194 q 642 236 608 194 q 689 338 675 278 m 931 -65 q 1011 -99 985 -68 q 1038 -201 1038 -129 q 993 -316 1038 -285 q 868 -347 949 -347 q 716 -324 788 -347 q 605 -275 644 -301 q 535 -217 565 -249 q 497 -163 514 -196 q 467 -87 479 -131 q 451 1 454 -44 q 177 156 282 33 q 72 468 72 278 q 209 826 72 694 q 561 958 346 958 q 910 826 775 958 q 1046 468 1046 694 q 951 166 1046 286 q 699 7 856 46 q 931 -65 756 -56 z "},"R":{"ha":1000,"x_min":83,"x_max":929,"o":"m 404 208 q 242 0 404 0 q 122 44 160 0 q 83 199 83 88 l 83 785 q 127 908 83 865 q 242 950 171 950 l 533 950 q 810 870 704 950 q 915 665 915 790 q 876 517 915 571 q 749 439 836 464 q 872 374 815 435 q 929 224 929 314 q 912 83 929 132 q 863 17 894 33 q 772 0 831 0 q 652 34 690 0 q 614 138 614 68 q 597 270 614 224 q 554 331 581 317 q 481 344 528 344 l 404 343 l 404 208 m 617 675 q 568 767 617 742 q 404 792 519 792 l 404 551 q 565 578 513 551 q 617 675 617 606 z "},"S":{"ha":964,"x_min":60,"x_max":897,"o":"m 475 961 q 757 893 640 961 q 874 749 874 825 q 865 713 874 728 q 842 692 856 699 q 814 686 829 686 q 739 712 789 686 q 628 763 689 738 q 515 789 567 789 q 433 722 433 789 q 447 683 433 701 q 489 644 460 664 q 546 608 518 624 q 622 567 574 593 q 704 522 671 542 q 854 406 811 461 q 897 278 897 350 q 510 -10 897 -10 q 362 6 433 -10 q 237 46 290 21 q 142 101 183 71 q 81 164 101 132 q 60 224 60 196 q 80 276 60 254 q 139 297 100 297 q 279 260 168 297 q 458 224 390 224 q 521 267 521 224 q 516 290 521 279 q 499 310 511 300 q 473 330 488 321 q 433 353 458 339 q 381 381 407 367 q 314 417 356 394 q 233 461 272 439 q 145 533 182 490 q 92 619 108 576 q 75 697 75 661 q 179 888 75 814 q 475 961 283 961 z "},"T":{"ha":1024,"x_min":68,"x_max":972,"o":"m 683 208 q 664 83 683 129 q 610 18 644 36 q 521 0 576 0 q 402 44 439 0 q 364 199 365 88 l 361 711 l 243 711 q 112 739 156 711 q 68 838 68 767 q 85 906 68 881 q 138 941 103 931 q 231 951 172 951 l 825 951 q 938 924 903 951 q 972 828 972 896 q 952 756 972 782 q 899 721 932 731 q 813 711 865 711 l 683 711 l 683 208 z "},"U":{"ha":1024,"x_min":81,"x_max":936,"o":"m 936 785 l 936 371 q 838 80 936 168 q 508 -8 740 -8 q 184 86 288 -8 q 81 371 81 181 l 81 785 q 124 905 81 858 q 235 951 168 951 q 359 921 317 951 q 401 797 401 890 l 401 344 q 416 274 403 300 q 451 237 429 247 q 508 226 474 226 q 565 235 543 226 q 598 261 588 243 q 612 297 608 279 q 615 344 615 315 l 615 799 q 627 878 615 846 q 663 925 639 910 q 713 946 688 940 q 775 951 739 951 q 896 913 856 951 q 936 785 936 874 z "},"V":{"ha":1044,"x_min":61,"x_max":971,"o":"m 517 226 q 609 263 588 226 q 631 386 631 299 q 631 578 631 428 q 632 808 632 729 q 667 916 632 882 q 789 950 703 950 q 903 912 865 950 q 956 773 940 874 q 971 467 971 672 q 951 307 971 379 q 895 184 931 235 q 815 95 860 133 q 719 35 771 57 q 618 1 668 13 q 519 -10 568 -10 q 399 5 460 -10 q 277 56 339 19 q 168 144 215 92 q 91 280 121 196 q 61 467 61 364 q 78 773 61 672 q 135 912 94 874 q 258 950 175 950 q 368 916 336 950 q 400 808 400 882 q 401 578 400 728 q 401 388 401 429 q 403 330 401 351 q 412 286 406 308 q 431 252 418 264 q 464 233 443 240 q 517 226 485 226 z "},"W":{"ha":1417,"x_min":72,"x_max":1346,"o":"m 921 218 q 996 277 975 218 q 1017 469 1017 336 l 1019 810 q 1053 917 1019 883 q 1171 951 1088 951 q 1253 935 1222 951 q 1307 869 1285 918 q 1338 738 1329 821 q 1346 517 1346 654 q 1332 364 1346 435 q 1294 240 1318 293 q 1238 145 1271 188 q 1169 75 1206 103 q 1093 28 1133 47 q 1015 2 1053 10 q 940 -6 976 -6 q 714 74 815 -6 q 488 -8 614 -8 q 379 8 433 -8 q 269 63 325 24 q 169 159 213 101 q 99 309 126 217 q 72 514 72 401 q 90 789 72 696 q 142 915 107 882 q 246 949 178 949 q 336 933 303 949 q 383 886 369 917 q 397 807 397 856 l 399 468 q 419 275 399 335 q 501 215 440 215 q 547 241 532 215 q 568 324 563 267 q 550 575 550 404 q 554 728 550 671 q 567 826 558 785 q 594 886 575 868 q 638 912 614 904 q 706 919 663 919 q 749 918 731 919 q 785 910 768 917 q 813 897 801 903 q 833 876 824 892 q 849 850 843 861 q 859 814 854 839 q 866 770 864 789 q 869 715 868 751 q 870 651 869 678 q 871 574 871 624 q 853 315 871 399 q 874 242 858 265 q 921 218 889 218 z "},"X":{"ha":1060,"x_min":76,"x_max":999,"o":"m 324 472 l 133 657 q 76 774 76 718 q 135 894 76 842 q 249 951 199 951 q 356 897 310 951 l 533 669 l 681 867 q 833 950 749 950 q 942 901 892 950 q 999 790 999 843 q 917 644 999 729 l 753 489 l 940 293 q 999 178 999 228 q 940 57 999 108 q 826 -1 876 -1 q 719 53 764 -1 l 540 286 l 393 85 q 242 0 328 0 q 133 51 185 0 q 76 161 76 108 q 157 307 76 218 l 324 472 z "},"Y":{"ha":988,"x_min":58,"x_max":935,"o":"m 653 208 q 613 48 653 96 q 489 0 572 0 q 371 44 408 0 q 332 199 333 88 l 331 424 l 117 674 q 58 789 58 740 q 117 910 58 865 q 215 951 172 951 q 322 897 275 951 l 492 700 l 633 865 q 785 950 704 950 q 878 917 844 950 q 935 807 935 860 q 915 745 935 778 q 853 661 896 713 l 653 417 l 653 208 z "},"Z":{"ha":1051,"x_min":83,"x_max":974,"o":"m 832 225 q 901 219 874 225 q 945 198 929 213 q 967 164 961 183 q 974 115 974 144 q 929 22 974 44 q 775 0 885 0 l 254 0 q 176 23 215 0 q 110 87 136 46 q 83 174 83 128 q 88 242 83 215 q 111 299 93 269 q 144 345 129 328 q 197 403 158 363 l 551 725 l 269 725 q 135 752 176 725 q 93 843 93 779 q 127 927 93 903 q 228 951 161 951 l 796 951 q 869 937 838 951 q 918 899 901 922 q 943 854 935 876 q 951 813 951 832 q 950 768 951 788 q 942 731 949 749 q 933 704 936 714 q 917 678 931 694 q 899 656 904 661 q 872 628 893 650 q 843 599 851 607 l 438 225 l 832 225 z "},"[":{"ha":664,"x_min":147,"x_max":621,"o":"m 147 -67 q 161 -156 147 -125 q 213 -203 175 -187 q 321 -219 251 -219 l 471 -221 q 581 -191 542 -221 q 621 -115 621 -161 q 574 -34 621 -58 q 453 -10 526 -10 l 453 901 q 574 926 526 901 q 621 1007 621 951 q 604 1060 621 1038 q 553 1097 588 1083 q 471 1111 518 1111 l 321 1111 q 183 1077 219 1111 q 147 960 147 1043 l 147 -67 z "},"\\":{"ha":758,"x_min":54,"x_max":682,"o":"m 382 69 q 428 -1 401 21 q 497 -24 454 -24 q 623 19 564 -24 q 682 114 682 61 q 667 174 682 136 l 353 936 q 310 993 336 975 q 242 1011 285 1011 q 115 972 175 1011 q 54 882 54 933 q 65 832 54 861 l 382 69 z "},"]":{"ha":663,"x_min":43,"x_max":517,"o":"m 517 -67 q 503 -156 517 -125 q 451 -203 489 -187 q 343 -219 413 -219 l 193 -221 q 83 -191 122 -221 q 43 -115 43 -161 q 90 -34 43 -58 q 211 -10 138 -10 l 211 901 q 90 926 138 901 q 43 1007 43 951 q 60 1060 43 1038 q 111 1097 76 1083 q 193 1111 146 1111 l 343 1111 q 481 1077 444 1111 q 517 960 517 1043 l 517 -67 z "},"^":{"ha":667,"x_min":69,"x_max":593,"o":"m 522 372 q 593 257 593 301 q 562 190 593 218 q 493 161 531 161 q 418 203 460 161 q 406 217 413 210 q 394 230 399 225 q 383 240 389 235 q 374 250 378 246 q 366 258 371 254 q 358 265 361 263 q 351 269 354 267 q 344 274 347 272 q 338 276 342 275 q 331 276 335 276 q 312 269 322 276 q 294 256 301 263 q 273 233 288 249 q 250 207 258 217 q 169 164 208 164 q 99 191 129 164 q 69 257 69 218 q 71 274 69 265 q 76 290 72 282 q 84 305 81 299 q 94 319 88 311 q 105 333 101 328 q 117 347 108 338 q 128 360 125 356 q 329 471 224 471 q 414 453 374 471 q 473 419 454 435 q 522 372 492 403 z "},"_":{"ha":904,"x_min":26,"x_max":868,"o":"m 758 197 q 844 176 819 197 q 868 99 868 156 q 840 21 868 42 q 744 0 811 0 l 114 0 q 47 24 67 0 q 26 97 26 49 q 48 171 26 144 q 124 197 69 197 l 758 197 z "},"`":{"ha":515,"x_min":51,"x_max":464,"o":"m 226 1058 q 160 1076 196 1076 q 81 1033 111 1076 q 51 942 51 990 q 138 839 51 872 l 307 782 q 371 771 342 771 q 438 795 413 771 q 464 854 464 819 q 452 898 464 878 q 428 928 440 918 q 393 953 417 938 q 386 958 389 956 l 226 1058 z "},"a":{"ha":867,"x_min":58,"x_max":800,"o":"m 501 460 q 440 500 478 500 q 382 447 404 500 q 360 326 360 394 q 381 213 360 263 q 439 163 401 163 q 501 200 478 163 l 501 460 m 313 -8 q 131 81 203 -8 q 58 326 58 171 q 130 578 58 485 q 313 672 201 672 q 521 593 425 672 q 642 663 558 663 q 758 630 717 663 q 800 510 800 597 l 800 149 q 765 33 800 65 q 643 0 731 0 q 522 51 551 0 q 313 -8 433 -8 z "},"b":{"ha":874,"x_min":67,"x_max":822,"o":"m 372 213 q 442 165 397 165 q 500 213 479 165 q 521 321 521 260 q 515 386 521 354 q 500 444 510 418 q 475 485 490 469 q 440 501 460 501 q 372 450 397 501 q 372 347 372 432 q 372 213 372 261 m 371 606 q 569 674 463 674 q 750 582 678 674 q 822 350 822 490 q 713 85 822 181 q 428 -10 603 -10 q 241 21 321 -10 q 116 113 161 51 q 69 260 71 174 l 67 783 q 108 910 67 869 q 219 950 150 950 q 334 913 297 950 q 371 796 371 876 l 371 606 z "},"c":{"ha":832,"x_min":57,"x_max":775,"o":"m 475 519 q 439 551 475 551 q 392 522 413 551 q 360 449 371 493 q 349 358 349 406 q 391 246 349 289 q 506 203 433 203 q 628 219 576 203 q 678 240 649 225 q 721 256 708 256 q 753 249 740 256 q 770 232 765 242 q 775 211 775 222 q 762 164 775 192 q 721 106 749 136 q 656 49 693 75 q 565 7 619 24 q 451 -10 511 -10 q 168 83 279 -10 q 57 336 57 175 q 108 516 57 439 q 247 633 158 593 q 451 672 336 672 q 633 647 561 672 q 735 578 704 621 q 765 475 765 535 q 755 421 765 449 q 723 365 744 393 q 660 320 701 338 q 563 303 618 303 q 522 306 538 303 q 488 317 506 308 q 463 347 471 326 q 454 400 454 368 q 465 467 454 428 q 475 519 475 507 z "},"d":{"ha":868,"x_min":58,"x_max":804,"o":"m 501 200 l 500 460 q 439 499 476 499 q 397 472 415 499 q 368 407 378 446 q 358 325 358 368 q 379 211 358 261 q 438 161 400 161 q 451 163 444 161 q 464 166 458 164 q 475 172 469 168 q 485 179 481 175 q 493 189 489 183 q 501 200 497 194 m 804 208 q 767 48 804 96 q 651 0 729 0 q 529 56 563 0 q 311 -10 439 -10 q 131 80 203 -10 q 58 325 58 169 q 129 577 58 483 q 311 671 200 671 q 499 607 411 671 l 499 785 q 540 910 499 869 q 651 951 582 951 q 766 921 728 951 q 804 797 804 890 l 804 208 z "},"e":{"ha":826,"x_min":56,"x_max":775,"o":"m 351 389 q 456 390 447 390 q 486 415 476 390 q 493 465 493 433 q 440 553 493 553 q 402 532 421 553 q 369 473 383 511 q 351 389 356 435 m 446 -8 q 166 79 276 -8 q 56 318 56 167 q 165 577 56 482 q 446 672 274 672 q 684 615 608 672 q 760 457 760 557 q 755 419 760 438 q 740 384 750 401 q 712 352 729 367 q 672 326 694 338 q 619 308 650 314 q 554 301 589 301 l 358 300 q 408 230 372 256 q 500 204 444 204 q 622 219 560 204 q 680 242 649 226 q 725 257 711 257 q 762 243 749 257 q 775 208 775 229 q 753 148 775 183 q 691 77 731 113 q 586 17 651 42 q 446 -8 521 -8 z "},"f":{"ha":653,"x_min":38,"x_max":633,"o":"m 442 621 q 470 731 442 707 q 567 754 499 754 q 616 769 599 754 q 633 807 633 785 q 569 903 633 856 q 389 950 506 950 q 266 931 314 950 q 190 868 218 911 q 152 767 163 825 q 142 619 142 710 q 38 532 38 614 q 61 473 38 493 q 140 451 85 453 l 139 199 q 175 44 139 88 q 289 0 211 0 q 405 45 368 0 q 442 208 442 90 l 442 451 q 568 466 529 451 q 607 528 607 481 q 571 603 607 586 q 442 621 535 621 z "},"g":{"ha":867,"x_min":63,"x_max":803,"o":"m 506 200 l 504 463 q 444 501 481 501 q 401 475 419 501 q 373 410 382 449 q 364 328 364 371 q 385 213 364 263 q 443 164 406 164 q 506 200 481 164 m 317 -8 q 135 81 207 -8 q 63 328 63 171 q 133 579 63 486 q 315 672 204 672 q 524 594 428 672 q 643 663 560 663 q 760 629 718 663 q 803 510 803 596 l 803 256 q 785 24 803 121 q 726 -146 768 -72 q 609 -256 683 -219 q 426 -292 535 -292 q 288 -271 351 -292 q 186 -219 224 -250 q 128 -158 149 -189 q 107 -106 107 -128 q 122 -61 107 -79 q 165 -43 138 -43 q 249 -79 182 -43 q 358 -115 317 -115 q 500 31 500 -115 q 317 -8 419 -8 z "},"h":{"ha":867,"x_min":65,"x_max":807,"o":"m 503 372 q 442 451 503 451 q 422 449 431 451 q 405 442 413 446 q 391 430 397 438 q 380 413 385 422 q 373 392 375 404 q 371 364 371 379 l 371 211 q 333 49 371 97 q 218 1 296 1 q 104 45 140 1 q 68 200 68 89 l 65 792 q 107 918 65 878 q 218 958 149 958 q 280 953 256 958 q 326 933 304 949 q 360 885 349 917 q 371 804 371 853 l 371 603 q 621 665 474 665 q 728 631 688 665 q 788 524 768 597 q 807 331 807 450 q 803 190 807 244 q 790 95 799 135 q 761 36 781 56 q 716 8 742 17 q 650 0 690 0 q 538 28 572 0 q 504 115 504 57 l 503 372 z "},"i":{"ha":424,"x_min":60,"x_max":363,"o":"m 361 149 q 326 33 361 65 q 204 0 292 0 q 92 38 122 0 q 63 164 63 76 l 63 506 q 101 619 63 576 q 203 663 139 663 q 319 630 278 663 q 361 510 361 597 l 361 149 m 60 856 q 103 775 60 800 q 211 750 146 750 q 324 774 285 750 q 363 856 363 797 q 211 961 363 961 q 99 932 139 961 q 60 856 60 903 z "},"j":{"ha":472,"x_min":-179,"x_max":400,"o":"m 94 856 q 138 775 94 800 q 246 750 181 750 q 358 774 319 750 q 397 856 397 797 q 246 961 397 961 q 134 932 174 961 q 94 856 94 903 m 400 517 q 358 620 400 578 q 253 663 317 663 q 141 622 183 663 q 99 496 99 581 l 99 67 q 88 -11 99 19 q 55 -55 78 -42 q 9 -72 32 -68 q -51 -75 -14 -75 q -151 -91 -122 -75 q -179 -144 -179 -107 q -88 -239 -179 -194 q 150 -283 3 -283 q 267 -256 218 -283 q 345 -180 317 -229 q 387 -70 374 -131 q 400 65 400 -10 l 400 517 z "},"k":{"ha":810,"x_min":65,"x_max":764,"o":"m 419 197 l 369 197 q 328 63 369 125 q 217 0 286 0 q 102 44 139 0 q 65 199 65 88 l 65 769 q 85 866 65 829 q 135 918 104 903 q 217 936 167 933 q 332 878 303 936 q 361 679 361 821 q 349 486 361 569 q 411 456 358 456 q 456 470 444 456 q 468 529 468 485 q 502 624 468 594 q 618 653 536 653 q 734 622 704 653 q 764 508 764 590 q 713 375 764 422 q 597 328 661 328 q 713 288 663 328 q 764 169 764 249 q 735 32 764 64 q 618 0 707 0 q 502 30 536 0 q 468 124 468 60 q 463 172 468 156 q 448 192 457 188 q 419 197 439 197 z "},"l":{"ha":433,"x_min":64,"x_max":369,"o":"m 369 210 q 332 49 369 97 q 217 0 294 0 q 103 44 139 0 q 67 199 67 88 l 64 785 q 72 849 64 821 q 92 896 79 876 q 125 928 106 915 q 167 946 144 940 q 217 951 190 951 q 331 921 293 951 q 369 797 369 890 l 369 210 z "},"m":{"ha":1257,"x_min":74,"x_max":1190,"o":"m 888 367 q 825 444 888 444 q 783 413 797 444 q 769 332 769 381 q 767 210 769 258 q 758 122 765 161 q 742 61 751 83 q 715 24 732 39 q 678 5 699 10 q 625 0 657 0 q 547 14 576 0 q 504 53 517 28 q 492 115 492 78 l 492 367 q 429 444 492 444 q 388 416 404 444 q 372 342 372 388 l 372 149 q 338 33 372 65 q 215 0 303 0 q 103 38 133 0 q 74 164 74 76 l 74 506 q 112 619 74 576 q 214 663 150 663 q 358 589 328 663 q 462 643 411 628 q 581 658 513 658 q 729 569 683 658 q 743 581 736 575 q 1006 658 850 658 q 1147 583 1104 658 q 1190 332 1190 508 q 1188 210 1190 258 q 1179 122 1186 161 q 1162 61 1172 83 q 1133 24 1151 39 q 1091 5 1114 10 q 1033 0 1068 0 q 948 14 981 0 q 901 53 915 28 q 888 115 888 78 l 888 367 z "},"n":{"ha":856,"x_min":61,"x_max":794,"o":"m 490 374 q 429 451 490 451 q 381 427 400 451 q 360 363 363 403 l 360 149 q 325 32 360 64 q 203 0 290 0 q 91 38 121 0 q 61 164 61 76 l 61 506 q 99 619 61 576 q 201 663 138 663 q 290 647 254 663 q 344 594 326 632 q 608 665 453 665 q 751 588 707 665 q 794 332 794 510 q 790 190 794 244 q 777 95 786 135 q 749 36 768 56 q 703 8 729 17 q 638 0 678 0 q 526 29 560 0 q 492 115 492 58 l 490 374 z "},"o":{"ha":876,"x_min":54,"x_max":824,"o":"m 440 -10 q 245 29 332 -10 q 106 146 158 68 q 54 328 54 224 q 163 579 54 486 q 440 672 271 672 q 717 579 610 672 q 824 328 824 486 q 715 81 824 171 q 440 -10 606 -10 m 513 329 q 494 456 513 401 q 442 511 476 511 q 400 483 418 511 q 374 415 382 456 q 365 329 365 375 q 385 205 365 258 q 440 151 404 151 q 494 204 476 151 q 513 329 513 257 z "},"p":{"ha":863,"x_min":65,"x_max":814,"o":"m 371 201 q 433 163 394 163 q 492 213 471 163 q 513 326 513 263 q 490 447 513 394 q 432 500 468 500 q 371 460 394 500 l 371 201 m 371 -81 q 333 -241 371 -193 q 218 -289 296 -289 q 104 -245 140 -289 q 68 -90 68 -201 l 65 496 q 107 622 65 582 q 218 663 149 663 q 306 649 272 663 q 356 597 339 636 q 561 672 451 672 q 743 579 672 672 q 814 326 814 486 q 742 81 814 171 q 560 -8 669 -8 q 371 39 454 -8 l 371 -81 z "},"q":{"ha":869,"x_min":57,"x_max":813,"o":"m 507 453 q 440 500 483 500 q 386 453 406 500 q 367 344 367 406 q 388 219 367 274 q 442 164 408 164 q 507 215 483 164 l 507 453 m 508 60 q 310 -8 417 -8 q 129 83 201 -8 q 57 315 57 175 q 172 577 57 483 q 468 671 286 671 q 717 602 625 671 q 810 406 810 533 l 813 -118 q 771 -244 813 -204 q 660 -285 729 -285 q 546 -244 585 -285 q 507 -131 507 -203 l 508 60 z "},"r":{"ha":656,"x_min":64,"x_max":644,"o":"m 363 149 q 328 33 363 65 q 204 0 293 0 q 93 38 122 0 q 64 164 64 76 l 64 506 q 81 588 64 553 q 129 643 97 624 q 204 663 161 663 q 343 601 310 663 q 499 663 424 663 q 644 524 644 663 q 613 433 644 468 q 529 399 581 399 q 480 411 499 399 q 445 436 461 424 q 408 449 429 449 q 363 428 378 449 l 363 149 z "},"s":{"ha":781,"x_min":57,"x_max":728,"o":"m 390 672 q 606 619 519 672 q 692 504 692 567 q 676 471 692 486 q 638 456 661 456 q 592 470 617 456 q 544 501 567 485 q 486 532 522 518 q 410 546 450 546 q 356 513 356 546 q 383 475 356 489 q 465 446 411 461 q 546 417 518 431 q 689 330 650 376 q 728 207 728 283 q 707 133 728 169 q 644 63 686 96 q 531 10 603 31 q 368 -10 460 -10 q 100 72 189 -10 q 57 156 57 113 q 74 197 57 182 q 124 213 92 213 q 221 181 156 213 q 342 150 286 150 q 418 188 418 150 q 378 219 418 207 q 272 247 338 231 q 168 289 207 264 q 83 355 107 315 q 58 451 58 394 q 151 610 58 549 q 390 672 243 672 z "},"t":{"ha":696,"x_min":39,"x_max":629,"o":"m 133 297 l 133 461 q 78 473 99 463 q 48 500 57 483 q 39 542 39 517 q 135 628 39 621 l 135 757 q 211 852 135 810 q 363 894 288 894 q 422 868 408 894 q 436 789 436 842 l 438 629 l 475 629 q 580 609 551 629 q 608 536 608 589 q 600 499 608 514 q 573 475 592 483 q 528 463 554 467 q 463 460 501 460 l 438 460 l 438 307 q 440 270 438 285 q 446 247 442 256 q 458 236 450 239 q 476 233 465 233 q 504 245 493 233 q 522 272 515 257 q 538 298 528 286 q 563 310 549 310 q 612 294 594 310 q 629 257 629 279 q 615 176 629 219 q 572 93 600 133 q 495 26 544 53 q 385 0 446 0 q 190 69 247 0 q 133 297 133 139 z "},"u":{"ha":868,"x_min":64,"x_max":797,"o":"m 368 293 q 429 214 368 214 q 466 227 450 214 q 490 264 482 240 q 499 318 499 288 l 499 504 q 515 587 499 551 q 564 642 532 622 q 639 661 596 661 q 756 628 714 661 q 797 508 797 596 l 797 147 q 763 31 797 63 q 640 -1 728 -1 q 576 6 603 -1 q 534 29 550 14 q 510 69 518 44 q 390 17 453 32 q 249 1 326 1 q 107 78 150 1 q 64 332 64 156 q 68 474 64 419 q 81 569 72 529 q 109 628 90 608 q 153 656 128 647 q 221 664 179 664 q 333 635 299 664 q 367 547 367 606 l 368 293 z "},"v":{"ha":857,"x_min":61,"x_max":793,"o":"m 426 208 q 478 231 467 208 q 489 315 489 254 l 490 539 q 505 608 490 582 q 554 649 519 635 q 647 663 589 663 q 708 654 685 663 q 750 627 732 646 q 776 570 768 608 q 789 478 785 532 q 793 343 793 425 q 769 208 793 268 q 709 110 746 149 q 624 47 672 72 q 526 10 575 21 q 428 0 478 0 q 331 10 379 0 q 233 47 282 21 q 146 110 183 72 q 85 208 108 149 q 61 343 61 268 q 74 545 61 479 q 116 637 86 611 q 207 663 146 663 q 329 633 293 663 q 365 539 365 603 l 367 317 q 367 284 367 294 q 368 258 367 274 q 374 236 369 243 q 384 222 378 229 q 401 211 390 214 q 426 208 411 208 z "},"w":{"ha":1236,"x_min":60,"x_max":1179,"o":"m 819 208 q 865 226 856 208 q 874 290 874 243 l 875 539 q 911 633 875 603 q 1033 663 947 663 q 1094 654 1071 663 q 1135 627 1118 646 q 1162 570 1153 608 q 1175 478 1171 532 q 1179 342 1179 425 q 1156 208 1179 268 q 1098 110 1133 147 q 1015 47 1063 72 q 921 10 968 21 q 826 0 874 0 q 619 71 714 0 q 414 0 526 0 q 320 10 367 0 q 226 47 274 21 q 142 110 178 72 q 83 208 106 147 q 60 342 60 268 q 72 545 60 479 q 114 637 85 611 q 206 663 143 663 q 299 649 264 663 q 348 608 333 635 q 363 539 363 582 l 364 292 q 365 262 364 271 q 368 240 365 253 q 376 222 371 226 q 392 213 382 217 q 417 208 401 208 q 482 240 472 208 q 469 419 469 324 q 475 545 469 500 q 499 618 481 590 q 546 654 518 646 q 625 663 574 663 q 697 654 671 663 q 740 618 724 646 q 763 545 757 590 q 768 419 768 500 q 757 239 768 322 q 819 208 767 208 z "},"x":{"ha":836,"x_min":49,"x_max":789,"o":"m 419 138 q 401 118 417 133 q 381 97 386 103 q 362 77 376 92 q 340 56 347 63 q 318 39 332 50 q 294 23 304 28 q 271 12 283 18 q 246 3 258 6 q 221 0 233 0 q 104 50 160 0 q 49 157 49 100 q 60 188 49 171 q 95 226 72 206 q 135 263 118 247 q 180 299 153 278 q 213 325 207 319 q 181 351 201 333 q 146 381 160 368 q 114 412 132 393 q 85 448 96 431 q 67 488 75 465 q 58 533 58 510 q 104 621 58 581 q 199 661 150 661 q 250 650 225 661 q 298 619 275 639 q 340 578 321 599 q 381 531 358 558 q 419 490 404 504 q 467 542 435 504 q 519 601 499 579 q 574 642 540 622 q 639 661 607 661 q 679 653 658 661 q 717 633 700 646 q 749 603 735 619 q 772 569 764 588 q 779 532 779 550 q 771 485 779 508 q 739 435 763 463 q 705 397 715 408 q 660 355 694 385 q 626 325 626 325 q 658 299 631 319 q 703 263 686 278 q 743 226 721 247 q 777 188 765 206 q 789 157 789 171 q 733 50 789 100 q 617 0 678 0 q 588 4 603 0 q 562 13 574 8 q 535 29 550 18 q 510 47 519 40 q 485 69 501 54 q 463 91 469 85 q 440 115 457 97 q 419 138 424 133 z "},"y":{"ha":843,"x_min":63,"x_max":783,"o":"m 783 392 q 769 60 783 154 q 735 -87 758 -25 q 668 -197 711 -149 q 558 -268 625 -244 q 400 -292 492 -292 q 263 -270 326 -292 q 163 -217 200 -249 q 106 -156 126 -186 q 85 -103 85 -125 q 99 -62 85 -81 q 139 -43 114 -43 q 181 -54 157 -43 q 228 -79 206 -65 q 281 -104 250 -93 q 340 -115 311 -115 q 447 -78 415 -115 q 478 29 478 -40 q 432 13 454 19 q 389 1 410 6 q 349 -4 368 -3 q 313 -6 331 -6 q 172 40 231 -6 q 88 153 114 86 q 63 299 63 221 q 65 431 63 376 q 74 527 67 485 q 90 594 81 569 q 115 635 99 619 q 153 657 132 651 q 203 663 174 663 q 326 633 290 663 q 361 539 361 603 l 363 315 q 363 283 363 293 q 365 257 363 272 q 370 235 367 242 q 380 220 374 228 q 397 210 386 213 q 422 207 407 207 q 474 230 464 207 q 485 314 485 253 l 486 539 q 501 608 486 582 q 550 649 515 635 q 644 663 585 663 q 706 651 681 663 q 747 620 732 639 q 770 565 763 601 q 781 490 778 528 q 783 392 783 453 z "},"z":{"ha":774,"x_min":51,"x_max":731,"o":"m 628 175 q 690 164 668 175 q 721 132 713 153 q 729 75 729 111 q 698 15 729 29 q 588 0 667 0 l 178 0 q 91 33 131 0 q 51 118 51 65 q 67 209 51 176 q 136 296 82 242 l 318 488 l 217 488 q 108 508 142 488 q 75 576 75 529 q 99 645 75 628 q 197 663 122 663 l 619 663 q 701 634 671 663 q 731 556 731 606 q 718 483 731 508 q 653 399 706 458 l 443 174 l 628 175 z "},"{":{"ha":763,"x_min":90,"x_max":672,"o":"m 503 900 q 624 925 576 900 q 672 1006 672 950 q 633 1082 672 1053 q 522 1111 593 1111 l 372 1111 q 235 1077 271 1111 q 199 958 199 1043 l 199 549 q 118 513 146 540 q 90 447 90 486 q 199 344 90 360 l 199 -67 q 213 -156 199 -125 q 265 -203 226 -187 q 372 -219 303 -219 l 522 -219 q 633 -190 593 -219 q 672 -115 672 -161 q 624 -34 672 -58 q 503 -10 576 -10 q 400 444 503 422 q 503 900 503 471 z "},"|":{"ha":471,"x_min":85,"x_max":389,"o":"m 389 39 m 389 39 q 236 -101 389 -101 q 153 -90 185 -101 q 103 -50 121 -79 q 85 28 85 -21 l 85 879 q 96 937 85 913 q 128 975 107 961 q 176 996 149 989 q 236 1003 203 1003 q 278 1001 260 1003 q 314 996 296 1000 q 345 984 332 992 q 368 965 358 976 q 383 935 378 953 q 389 892 389 917 l 389 39 z "},"}":{"ha":772,"x_min":100,"x_max":682,"o":"m 269 900 q 148 925 196 900 q 100 1006 100 950 q 140 1082 100 1053 q 250 1111 179 1111 l 400 1111 q 538 1077 501 1111 q 574 958 574 1043 l 574 549 q 654 513 626 540 q 682 447 682 486 q 574 344 682 360 l 574 -67 q 560 -156 574 -125 q 508 -203 546 -187 q 400 -219 469 -219 l 250 -219 q 140 -190 179 -219 q 100 -115 100 -161 q 148 -34 100 -58 q 269 -10 196 -10 q 372 444 269 422 q 269 900 269 471 z "},"~":{"ha":660,"x_min":-62,"x_max":724,"o":"m 214 171 q 174 88 214 122 q 74 54 133 54 q -35 94 -7 54 q -62 213 -62 135 q -43 315 -62 267 q 19 395 -24 363 q 121 428 63 428 q 192 421 156 428 q 260 403 229 414 q 319 381 290 393 q 372 356 349 368 q 411 333 394 343 q 438 317 428 322 l 446 310 q 487 392 446 357 q 586 428 528 428 q 695 388 667 428 q 724 271 724 347 q 675 119 724 185 q 539 54 626 54 q 428 72 482 54 q 342 113 375 90 q 275 153 310 135 q 214 171 240 171 z "},"":{"ha":778,"x_min":360,"x_max":854,"o":"m 663 625 q 671 684 663 669 q 703 699 679 699 q 730 687 718 699 q 747 660 742 675 q 764 634 753 646 q 788 622 775 622 q 817 626 804 622 q 838 638 831 631 q 850 655 846 646 q 854 674 854 664 q 840 756 854 713 q 797 839 825 799 q 720 906 769 879 q 611 932 671 932 q 419 863 474 932 q 363 635 364 794 l 360 181 q 396 26 360 69 q 510 -18 432 -18 q 626 27 589 -18 q 663 190 663 72 l 663 625 z "},"":{"ha":969,"x_min":336,"x_max":807,"o":"m 807 529 q 766 395 807 446 q 640 344 725 344 q 575 365 600 344 q 542 410 550 386 q 525 456 535 435 q 501 476 515 476 q 464 455 472 476 q 457 378 456 433 l 336 376 q 363 503 336 440 q 435 606 389 565 q 531 667 485 650 q 653 685 576 685 q 767 642 728 685 q 807 529 807 599 z "},"":{"ha":1081,"x_min":168,"x_max":725,"o":"m 472 293 q 533 214 472 214 q 584 243 565 214 q 603 318 603 272 l 725 318 q 628 78 725 153 q 354 0 517 0 q 212 78 256 0 q 168 332 168 156 q 172 474 168 419 q 185 569 176 529 q 214 628 194 608 q 259 656 233 647 q 325 664 285 664 q 437 634 403 664 q 471 547 471 604 q 472 409 471 497 q 472 293 472 321 z "},"":{"ha":633,"x_min":186,"x_max":492,"o":"m 492 190 q 474 67 492 114 q 423 1 456 21 q 339 -19 390 -19 q 273 -10 300 -19 q 226 22 246 0 q 198 83 207 44 q 189 179 189 122 l 186 765 q 228 892 186 851 q 339 932 269 932 q 400 926 375 932 q 447 906 425 921 q 481 858 469 890 q 492 778 492 826 l 492 190 z "},"":{"ha":1081,"x_min":321,"x_max":878,"o":"m 572 372 q 511 450 572 450 q 476 437 492 450 q 451 400 460 424 q 442 347 442 376 l 321 346 q 417 586 321 511 q 692 664 528 664 q 834 586 790 664 q 878 331 878 508 q 874 188 878 243 q 860 94 869 133 q 831 35 850 54 q 787 7 813 15 q 719 -1 761 -1 q 608 28 642 -1 q 574 114 574 57 l 572 372 z "},"":{"ha":1117,"x_min":163,"x_max":765,"o":"m 635 326 q 626 409 635 371 q 595 474 617 447 q 543 500 574 500 q 485 447 507 500 q 464 326 464 394 q 484 213 464 263 q 543 163 504 163 q 611 211 588 163 q 635 326 635 260 m 415 -8 q 235 81 307 -8 q 163 326 163 171 q 233 578 163 485 q 415 672 304 672 q 529 650 474 672 q 626 592 585 628 q 700 512 668 556 q 749 423 732 468 q 765 339 765 378 q 718 151 765 231 q 592 31 671 71 q 415 -8 514 -8 z "},"":{"ha":1117,"x_min":163,"x_max":765,"o":"m 293 326 q 316 211 293 260 q 385 163 339 163 q 443 213 422 163 q 464 326 464 263 q 442 447 464 394 q 383 500 419 500 q 333 474 354 500 q 302 409 311 447 q 293 326 293 371 m 511 -8 q 334 31 413 -8 q 209 151 256 71 q 163 339 163 231 q 179 423 163 378 q 228 512 196 468 q 301 592 260 556 q 398 650 343 628 q 511 672 453 672 q 694 578 622 672 q 765 326 765 485 q 693 81 765 171 q 511 -8 621 -8 z "},"":{"ha":872,"x_min":107,"x_max":676,"o":"m 543 685 l 228 685 q 133 662 160 685 q 107 597 107 639 q 133 535 107 556 q 219 515 158 515 l 529 515 q 642 531 608 515 q 676 592 676 547 q 647 665 676 644 q 543 685 618 685 z "},"¡":{"ha":474,"x_min":78,"x_max":396,"o":"m 383 115 q 347 20 383 50 q 226 -10 311 -10 q 115 26 146 -10 q 85 131 85 61 q 113 356 85 197 q 140 581 140 514 q 160 667 140 640 q 229 693 181 693 q 305 667 282 693 q 328 585 328 642 q 356 352 328 518 q 383 115 383 186 m 78 856 q 122 774 78 800 q 232 749 165 749 q 396 856 396 749 q 352 933 396 907 q 232 960 308 960 q 119 931 160 960 q 78 856 78 901 z "},"¢":{"ha":832,"x_min":57,"x_max":775,"o":"m 475 599 q 439 631 475 631 q 392 602 413 631 q 360 530 371 574 q 349 438 349 486 q 391 326 349 369 q 506 283 433 283 q 628 299 576 283 q 678 320 649 304 q 721 336 708 336 q 762 322 749 336 q 775 292 775 308 q 717 181 775 246 q 567 88 660 117 l 567 3 q 551 -83 567 -51 q 507 -126 535 -114 q 433 -137 479 -137 q 335 -109 367 -137 q 304 -7 304 -81 l 304 90 q 124 209 190 125 q 57 417 57 293 q 123 617 57 535 q 304 733 189 700 l 306 824 q 324 894 306 865 q 369 934 342 922 q 436 946 397 946 q 533 924 500 946 q 567 835 567 901 l 567 744 q 765 554 765 710 q 755 500 765 528 q 723 445 744 472 q 660 400 701 418 q 563 382 618 382 q 522 385 538 382 q 488 397 506 388 q 463 427 471 407 q 454 479 454 447 q 465 547 454 508 q 475 599 475 586 z "},"£":{"ha":772,"x_min":56,"x_max":703,"o":"m 511 621 q 517 694 511 671 q 540 731 522 717 q 636 754 568 754 q 685 769 668 754 q 703 807 703 785 q 639 903 703 856 q 458 950 575 950 q 335 931 383 950 q 260 868 288 911 q 222 767 232 825 q 211 619 211 710 l 211 578 l 167 578 q 97 554 119 578 q 74 490 74 531 q 167 408 74 408 l 210 408 l 210 296 q 203 261 210 274 q 181 239 197 249 q 129 218 164 229 q 72 182 89 206 q 56 110 56 158 q 76 28 56 56 q 144 0 96 0 l 575 0 q 644 9 618 0 q 683 43 669 18 q 697 113 697 68 q 687 180 697 156 q 653 215 676 204 q 588 225 629 225 l 513 225 l 513 408 l 568 408 q 647 425 628 408 q 665 493 665 442 q 655 544 665 525 q 624 570 644 563 q 568 578 603 578 l 511 578 l 511 621 z "},"¤":{"ha":906,"x_min":0,"x_max":894,"o":"m 82 313 q 58 436 58 369 q 83 565 58 507 l 69 575 q 0 663 0 622 q 34 738 0 700 q 97 776 68 776 q 171 744 125 776 l 215 714 q 453 772 315 772 q 685 717 586 772 l 725 744 q 797 776 771 776 q 861 738 828 776 q 894 663 894 700 q 826 575 894 622 l 819 571 q 846 436 846 510 q 819 307 846 367 l 847 289 q 894 217 894 256 q 863 140 894 179 q 799 100 831 100 q 742 121 772 100 l 682 163 q 453 110 585 110 q 218 165 318 110 l 153 121 q 96 100 124 100 q 53 119 75 100 q 15 165 31 138 q 0 217 0 193 q 49 289 0 256 l 82 313 m 556 439 q 545 496 556 469 q 511 540 535 522 q 454 558 488 558 q 396 540 421 558 q 360 496 371 522 q 349 439 349 469 q 376 358 349 393 q 454 322 404 322 q 530 357 504 322 q 556 439 556 392 z "},"¥":{"ha":1004,"x_min":58,"x_max":935,"o":"m 747 232 q 822 216 800 232 q 844 160 844 200 q 823 105 844 119 q 747 90 801 90 l 222 90 q 129 160 129 90 q 149 214 129 196 q 222 232 168 232 l 747 232 m 747 453 q 822 437 800 453 q 844 381 844 421 q 842 356 844 367 q 835 338 840 346 q 822 324 829 329 q 803 317 815 319 q 778 313 792 314 q 747 311 765 311 l 222 311 q 129 381 129 311 q 136 419 129 404 q 164 443 143 433 q 222 453 185 453 l 747 453 m 653 208 q 613 48 653 96 q 489 0 572 0 q 371 44 408 0 q 332 199 333 88 l 331 424 l 117 674 q 58 789 58 740 q 117 910 58 865 q 215 951 172 951 q 322 897 275 951 l 492 700 l 633 865 q 785 950 704 950 q 878 917 844 950 q 935 807 935 860 q 915 745 935 778 q 853 661 896 713 l 653 417 l 653 208 z "},"¦":{"ha":471,"x_min":85,"x_max":389,"o":"m 389 689 q 236 549 389 549 q 122 577 158 549 q 85 678 85 606 l 85 879 q 126 973 85 943 q 236 1003 167 1003 q 351 981 313 1003 q 389 892 389 960 l 389 689 m 389 101 q 236 -39 389 -39 q 153 -28 185 -39 q 103 13 121 -17 q 85 90 85 42 l 85 292 q 126 385 85 356 q 236 415 167 415 q 351 394 313 415 q 389 304 389 372 l 389 101 z "},"§":{"ha":1111,"x_min":46,"x_max":1060,"o":"m 249 803 q 271 931 249 872 q 337 1038 293 990 q 453 1112 381 1085 q 622 1139 526 1139 q 896 1072 786 1139 q 1006 926 1006 1004 q 988 881 1006 897 q 947 864 969 864 q 875 890 922 864 q 769 941 828 915 q 661 967 711 967 q 581 900 581 967 q 603 852 581 875 q 656 814 626 829 q 741 770 686 799 q 835 717 796 742 q 899 676 878 690 q 949 642 919 663 q 992 608 979 621 q 1021 574 1004 594 q 1044 535 1038 554 q 1055 492 1050 517 q 1060 439 1060 468 q 1009 288 1060 353 q 897 200 958 222 q 900 156 900 179 q 888 65 900 107 q 846 -13 875 24 q 772 -76 817 -50 q 656 -118 726 -103 q 497 -133 586 -133 q 316 -110 403 -133 q 172 -51 229 -86 q 80 25 114 -15 q 46 100 46 65 q 66 152 46 131 q 126 174 86 174 q 261 137 154 174 q 433 100 368 100 q 496 143 496 100 q 488 169 496 158 q 468 190 481 181 q 431 211 456 199 q 378 237 406 224 q 306 273 351 250 q 217 322 261 296 q 128 386 163 353 q 78 460 94 419 q 61 550 61 500 q 74 629 61 592 q 103 691 86 667 q 147 738 119 715 q 197 774 175 761 q 249 803 218 788 m 717 451 q 705 476 717 465 q 661 506 693 488 q 579 555 622 528 q 517 594 536 582 q 477 615 499 607 q 438 624 456 624 q 396 581 396 624 q 438 506 396 547 q 540 435 479 464 q 650 406 600 406 q 698 417 679 406 q 717 451 717 429 z "},"¨":{"ha":628,"x_min":-1,"x_max":626,"o":"m 0 1117 q 41 1040 0 1064 q 145 1016 82 1016 q 253 1038 216 1016 q 290 1117 290 1061 q 145 1218 290 1218 q 38 1190 76 1218 q 0 1117 0 1162 m 334 1117 q 376 1040 334 1064 q 480 1016 417 1016 q 588 1038 550 1016 q 625 1117 625 1061 q 480 1218 625 1218 q 372 1190 410 1218 q 334 1117 334 1162 z "},"©":{"ha":743,"x_min":-6,"x_max":751,"o":"m 106 1029 q 50 978 106 1029 q -6 782 -6 928 q 106 535 -6 636 q 376 433 218 433 q 642 535 533 433 q 751 782 751 636 q 642 1029 751 928 q 376 1131 533 1131 q 106 1029 218 1131 m 82 782 q 105 885 82 836 q 167 968 128 933 q 262 1024 207 1003 q 376 1044 317 1044 q 581 968 497 1044 q 665 782 665 892 q 642 679 665 728 q 581 596 619 631 q 490 540 543 561 q 376 519 436 519 q 168 596 254 519 q 82 782 82 672 m 385 813 q 391 841 385 824 q 397 864 397 858 q 376 888 397 888 q 343 859 356 888 q 331 796 331 831 q 353 735 331 758 q 415 713 376 713 q 489 721 457 713 q 517 734 501 725 q 539 743 532 743 q 561 738 551 743 q 575 726 571 733 q 579 713 579 719 q 566 674 579 696 q 529 631 553 653 q 467 592 506 608 q 383 576 428 576 q 215 632 281 576 q 149 783 149 688 q 214 928 149 875 q 383 982 279 982 q 569 865 569 982 q 560 822 569 843 q 522 781 550 800 q 449 763 493 763 q 401 772 418 763 q 385 813 385 782 z "},"ª":{"ha":867,"x_min":169,"x_max":690,"o":"m 480 808 q 437 836 464 836 q 397 799 412 836 q 381 715 381 762 q 396 635 381 670 q 436 600 410 600 q 480 626 464 600 l 480 808 m 348 480 q 221 543 271 480 q 170 715 170 606 q 220 891 170 825 q 348 957 270 957 q 494 901 427 957 q 578 950 520 950 q 660 927 631 950 q 689 843 689 904 l 689 590 q 665 509 689 532 q 579 486 641 486 q 495 522 515 486 q 348 480 432 480 z "},"«":{"ha":1110,"x_min":71,"x_max":1078,"o":"z "},"¬":{"ha":776,"x_min":32,"x_max":750,"o":"m 750 236 q 726 137 750 163 q 640 111 703 111 q 594 119 614 111 q 562 142 575 126 q 542 185 549 158 q 535 249 535 213 l 535 361 l 144 361 q 32 458 32 361 q 153 563 32 563 l 614 563 q 661 560 642 563 q 696 551 681 557 q 750 439 750 529 l 750 236 z "},"­":{"ha":1522,"x_min":0,"x_max":0,"o":""},"®":{"ha":763,"x_min":4,"x_max":761,"o":"m 116 1029 q 60 978 116 1029 q 4 782 4 928 q 116 535 4 636 q 386 433 228 433 q 651 535 542 433 q 761 782 761 636 q 651 1029 761 928 q 386 1131 542 1131 q 116 1029 228 1131 m 92 782 q 115 885 92 836 q 177 968 138 933 q 272 1024 217 1003 q 386 1044 326 1044 q 590 968 506 1044 q 675 782 675 892 q 652 679 675 728 q 590 596 629 631 q 498 540 551 561 q 386 519 444 519 q 178 596 264 519 q 92 782 92 672 m 356 675 q 289 589 356 589 q 240 607 256 589 q 224 671 224 625 l 224 911 q 242 963 224 946 q 289 979 260 979 l 394 979 q 508 947 465 979 q 551 863 551 914 q 483 769 551 789 q 534 743 511 768 q 557 681 557 718 q 550 623 557 643 q 530 596 543 603 q 493 589 517 589 q 428 646 428 589 q 418 714 428 697 q 388 731 408 731 l 356 731 l 356 675 m 426 867 q 412 899 426 890 q 356 907 397 907 l 356 824 q 410 833 394 824 q 426 867 426 843 z "},"¯":{"ha":660,"x_min":47,"x_max":608,"o":"m 47 832 q 83 744 47 768 q 201 721 119 721 l 482 721 q 573 750 538 721 q 608 829 608 779 q 578 918 608 886 q 471 950 547 950 l 182 950 q 85 922 124 950 q 47 832 47 893 z "},"°":{"ha":508,"x_min":0,"x_max":504,"o":"m 253 561 q 72 617 144 561 q 0 771 0 674 q 71 928 0 871 q 253 986 142 986 q 434 928 364 986 q 504 771 504 871 q 485 682 504 722 q 431 616 465 642 q 351 576 397 590 q 253 561 306 561 m 306 772 q 292 815 306 797 q 254 833 279 833 q 215 815 229 833 q 200 773 200 796 q 214 733 200 750 q 254 715 228 715 q 283 724 271 715 q 301 745 296 732 q 306 772 306 758 z "},"±":{"ha":767,"x_min":94,"x_max":671,"o":"m 574 181 q 649 159 627 181 q 670 84 670 138 q 644 21 670 39 q 563 3 619 3 l 228 3 q 128 89 128 3 q 223 181 128 181 l 574 181 m 538 616 q 640 592 611 616 q 669 510 669 568 q 635 439 669 459 q 526 420 601 420 l 477 420 l 477 342 q 382 230 477 230 q 279 350 279 230 l 279 420 l 205 420 q 95 515 95 420 q 119 589 95 562 q 209 616 143 616 l 279 616 l 279 675 q 303 776 279 748 q 387 804 328 804 q 440 789 420 804 q 469 743 460 774 q 477 661 477 712 l 477 616 l 538 616 z "},"²":{"ha":808,"x_min":160,"x_max":660,"o":"m 469 561 l 577 561 q 659 470 659 561 q 633 397 659 418 q 541 375 607 375 l 277 375 q 185 393 209 375 q 160 470 160 411 q 164 504 160 489 q 178 531 168 518 q 207 557 189 545 q 290 614 260 592 q 349 659 320 635 q 391 700 378 683 q 416 738 405 717 q 431 781 427 760 q 434 832 434 802 q 400 886 434 886 q 363 822 363 886 q 340 775 363 786 q 271 765 316 765 q 187 792 208 765 q 165 882 165 819 q 225 988 165 945 q 391 1030 284 1030 q 656 829 656 1030 q 645 744 656 782 q 619 679 634 705 q 576 630 603 654 q 526 592 550 607 q 469 561 503 578 z "},"³":{"ha":814,"x_min":150,"x_max":658,"o":"m 430 819 q 342 867 430 867 q 291 863 323 867 q 245 860 260 860 q 175 943 175 860 q 377 1030 175 1030 q 574 987 509 1030 q 639 875 639 944 q 555 722 639 779 q 635 659 612 692 q 657 565 657 627 q 591 428 657 481 q 412 375 524 375 q 212 403 272 375 q 151 490 151 432 q 170 557 151 539 q 225 575 190 575 q 279 571 242 575 q 336 567 316 567 q 442 606 442 567 q 421 643 442 632 q 344 653 401 653 q 265 667 288 653 q 241 722 241 682 q 321 782 241 782 q 397 787 373 782 q 426 798 422 792 q 430 819 430 804 z "},"´":{"ha":515,"x_min":51,"x_max":464,"o":"m 289 1058 q 356 1076 319 1076 q 434 1033 404 1076 q 464 942 464 990 q 378 839 464 872 l 208 782 q 144 771 174 771 q 95 782 117 771 q 63 812 74 793 q 51 854 51 831 q 107 943 51 904 q 129 958 107 943 l 289 1058 z "},"µ":{"ha":868,"x_min":64,"x_max":797,"o":"m 368 293 q 429 214 368 214 q 479 243 460 214 q 499 318 499 272 l 499 504 q 537 618 499 575 q 639 661 575 661 q 756 628 714 661 q 797 508 797 596 l 797 147 q 763 31 797 63 q 640 -1 728 -1 q 510 69 535 -1 q 367 -1 443 19 l 367 -122 q 336 -248 367 -210 q 221 -286 306 -286 q 111 -224 144 -286 q 72 -22 78 -161 q 64 361 64 203 q 64 435 64 408 q 66 496 64 461 q 72 549 68 531 q 84 590 76 568 q 103 624 92 613 q 131 645 115 635 q 169 660 147 656 q 221 664 192 664 q 333 635 299 664 q 367 547 367 606 q 367 410 367 499 q 368 293 368 321 z "},"¶":{"ha":1389,"x_min":29,"x_max":1364,"o":"m 493 164 q 523 38 493 76 q 635 0 553 0 q 757 33 722 0 q 792 149 792 65 l 792 772 l 924 772 l 924 164 q 953 38 924 76 q 1065 0 983 0 q 1188 33 1153 0 q 1222 149 1222 65 l 1222 772 q 1331 788 1297 772 q 1364 853 1364 803 q 1354 910 1364 890 q 1321 940 1344 931 q 1253 950 1297 950 l 494 950 q 155 849 281 950 q 29 544 29 747 q 70 378 29 453 q 178 258 111 304 q 326 188 244 213 q 493 164 407 164 z "},"·":{"ha":438,"x_min":61,"x_max":364,"o":"m 61 325 q 84 263 61 288 q 139 228 107 238 q 213 219 171 219 q 293 228 261 219 q 344 260 325 236 q 364 325 364 285 q 213 431 364 431 q 101 401 140 431 q 61 325 61 372 z "},"¸":{"ha":832,"x_min":190,"x_max":565,"o":"m 507 -50 q 565 -153 565 -79 q 507 -290 565 -237 q 369 -342 449 -342 q 319 -336 347 -342 q 260 -320 290 -331 q 210 -290 231 -310 q 190 -243 190 -269 q 213 -181 190 -211 q 260 -151 236 -151 q 289 -160 269 -151 q 315 -168 308 -168 q 338 -157 328 -168 q 347 -131 347 -146 q 320 -98 347 -118 q 293 -62 293 -78 q 304 -28 293 -54 q 326 19 315 -1 l 338 42 l 518 42 q 489 -32 489 -15 q 507 -50 489 -42 z "},"¹":{"ha":603,"x_min":117,"x_max":451,"o":"m 451 529 q 422 416 451 450 q 337 383 394 383 q 276 395 299 383 q 240 437 252 406 q 227 521 228 468 l 225 884 q 148 901 178 884 q 118 957 118 918 q 146 1010 118 990 q 223 1031 173 1031 q 278 1031 242 1031 q 328 1030 313 1030 q 425 1007 400 1030 q 450 923 450 983 l 451 529 z "},"º":{"ha":876,"x_min":169,"x_max":710,"o":"m 440 474 q 304 501 364 474 q 206 583 243 528 q 170 710 170 637 q 246 886 170 821 q 440 951 322 951 q 634 886 559 951 q 708 710 708 821 q 632 537 708 600 q 440 474 556 474 m 491 711 q 478 800 491 762 q 441 838 465 838 q 412 819 425 838 q 393 771 399 799 q 388 711 388 743 q 401 624 388 661 q 440 587 415 587 q 478 623 465 587 q 491 711 491 660 z "},"»":{"ha":1158,"x_min":68,"x_max":1075,"o":"z "},"¼":{"ha":1435,"x_min":47,"x_max":1369,"o":"m 489 90 q 480 76 488 88 q 471 63 472 65 q 463 53 469 61 q 453 42 457 44 q 444 35 450 40 q 434 29 439 31 q 422 26 429 28 q 407 25 415 25 q 346 38 376 25 q 296 74 315 51 q 276 122 276 97 q 286 164 276 149 l 797 913 q 833 953 818 942 q 876 965 849 965 q 938 953 907 965 q 990 919 969 940 q 1011 874 1011 897 q 1003 839 1011 850 l 489 90 m 1083 294 l 960 294 l 1086 494 l 1083 294 m 1190 24 q 1273 56 1246 24 q 1300 163 1300 88 q 1353 179 1338 165 q 1369 228 1369 193 q 1364 265 1369 251 q 1342 288 1358 279 q 1300 299 1326 296 l 1300 547 q 1290 608 1300 586 q 1255 640 1281 629 q 1182 650 1229 650 q 1142 650 1167 650 q 1100 650 1118 650 q 965 579 1014 650 q 815 354 867 435 q 790 265 790 314 q 819 190 790 219 q 910 161 849 161 q 1085 161 942 161 q 1110 55 1085 86 q 1190 24 1135 24 m 369 546 q 342 437 369 469 q 258 404 315 404 q 200 416 222 404 q 165 458 178 428 q 153 539 153 488 l 151 889 q 47 960 47 889 q 74 1012 47 992 q 150 1032 101 1032 q 202 1031 168 1032 q 251 1031 236 1031 q 344 1008 319 1031 q 368 928 368 986 l 369 546 z "},"½":{"ha":1504,"x_min":47,"x_max":1364,"o":"m 489 90 q 480 76 488 88 q 471 63 472 65 q 463 53 469 61 q 453 42 457 44 q 444 35 450 40 q 434 29 439 31 q 422 26 429 28 q 407 25 415 25 q 346 38 376 25 q 296 74 315 51 q 276 122 276 97 q 286 164 276 149 l 797 913 q 833 953 818 942 q 876 965 849 965 q 938 953 907 965 q 990 919 969 940 q 1011 874 1011 897 q 1003 839 1011 850 l 489 90 m 369 546 q 342 437 369 469 q 258 404 315 404 q 200 416 222 404 q 165 458 178 428 q 153 539 153 488 l 151 889 q 47 960 47 889 q 74 1012 47 992 q 150 1032 101 1032 q 202 1031 168 1032 q 251 1031 236 1031 q 344 1008 319 1031 q 368 928 368 986 l 369 546 m 1179 183 l 1285 183 q 1364 94 1364 183 q 1339 24 1364 44 q 1250 3 1314 3 l 994 3 q 905 20 929 3 q 881 94 881 38 q 891 142 881 124 q 928 179 901 161 q 1107 319 1068 274 q 1146 444 1146 365 q 1114 497 1146 497 q 1078 436 1078 497 q 1065 399 1078 411 q 1034 383 1051 386 q 989 379 1017 379 q 907 406 928 379 q 886 494 886 432 q 944 596 886 556 q 1106 636 1001 636 q 1361 442 1361 636 q 1347 344 1361 386 q 1305 272 1333 301 q 1249 223 1276 242 q 1179 183 1222 204 z "},"¾":{"ha":1435,"x_min":18,"x_max":1403,"o":"m 561 90 q 552 76 560 88 q 542 63 544 65 q 534 53 540 61 q 525 42 528 44 q 516 35 522 40 q 505 29 510 31 q 493 26 500 28 q 479 25 486 25 q 390 55 432 25 q 347 122 347 85 q 358 164 347 149 l 869 913 q 892 942 883 932 q 915 958 900 951 q 949 965 929 965 q 1040 938 996 965 q 1083 874 1083 910 q 1075 839 1083 850 l 561 90 m 1117 265 l 993 265 l 1119 465 l 1117 265 m 1142 25 q 1155 10 1142 25 q 1223 -6 1168 -6 q 1305 26 1278 -6 q 1333 133 1332 58 q 1387 150 1371 136 q 1403 199 1403 164 q 1397 236 1403 222 q 1375 258 1390 250 q 1333 269 1360 267 l 1332 518 q 1322 578 1332 557 q 1288 610 1313 600 q 1215 621 1263 621 q 1176 621 1200 621 q 1133 621 1151 621 q 999 550 1047 621 q 849 325 900 406 q 822 236 822 285 q 852 161 822 190 q 943 132 882 132 q 1117 132 974 132 q 1142 25 1117 56 m 288 818 q 201 864 288 864 q 153 860 183 864 q 108 857 124 857 q 42 939 42 857 q 238 1022 42 1022 q 427 981 364 1022 q 490 872 490 939 q 408 724 490 779 q 485 663 464 694 q 507 572 507 632 q 443 439 507 490 q 271 388 379 388 q 76 416 135 388 q 18 500 18 444 q 37 565 18 547 q 89 582 56 582 q 142 578 106 582 q 196 575 178 575 q 299 613 299 575 q 279 647 299 638 q 206 657 260 657 q 128 671 150 657 q 106 724 106 685 q 182 782 106 782 q 256 787 232 782 q 284 798 281 792 q 288 818 288 804 z "},"¿":{"ha":810,"x_min":53,"x_max":750,"o":"m 750 240 q 654 53 750 115 q 378 -10 558 -10 q 131 36 210 -10 q 53 161 53 82 q 63 211 53 186 q 95 261 74 236 q 158 302 117 286 q 256 318 200 318 q 344 305 314 318 q 375 247 375 292 q 372 224 375 236 q 364 204 368 213 q 356 186 360 196 q 353 171 353 176 q 389 136 353 136 q 444 177 422 136 q 465 271 465 218 q 447 363 465 318 q 400 441 428 407 q 345 506 372 475 q 299 568 318 536 q 279 631 279 600 q 381 703 279 703 q 446 685 408 703 q 525 639 483 668 q 607 566 567 610 q 679 473 647 522 q 731 363 711 424 q 750 240 750 301 m 218 854 q 262 774 218 799 q 371 749 306 749 q 536 854 536 749 q 492 933 536 906 q 371 960 449 960 q 258 930 299 960 q 218 854 218 900 z "},"À":{"ha":989,"x_min":60,"x_max":932,"o":"m 396 1339 q 322 1358 363 1358 q 235 1311 268 1358 q 201 1211 201 1264 q 297 1097 201 1133 l 485 1035 q 554 1022 522 1022 q 609 1035 585 1022 q 646 1068 633 1047 q 658 1114 658 1089 q 645 1163 658 1140 q 619 1195 632 1185 q 579 1222 606 1206 q 571 1228 574 1226 l 396 1339 m 611 211 l 381 211 l 381 138 q 343 33 381 67 q 214 0 306 0 q 150 11 175 0 q 106 49 125 22 q 78 126 88 75 q 65 248 69 176 q 60 429 60 319 q 80 605 60 525 q 134 740 100 685 q 211 838 168 796 q 305 904 254 881 q 403 940 356 928 q 500 951 451 951 q 615 935 558 951 q 731 881 672 919 q 833 784 789 842 q 904 635 876 726 q 932 429 932 543 q 919 158 932 246 q 874 35 906 69 q 778 0 843 0 q 649 33 686 0 q 611 138 611 67 l 611 211 m 497 725 q 409 690 438 725 q 381 567 381 656 l 381 403 l 611 403 l 611 569 q 597 663 611 628 q 559 712 583 699 q 497 725 535 725 z "},"Á":{"ha":989,"x_min":60,"x_max":932,"o":"m 604 1357 q 678 1376 638 1376 q 765 1329 732 1376 q 799 1229 799 1282 q 703 1115 799 1151 l 515 1053 q 446 1040 478 1040 q 391 1053 415 1040 q 354 1086 367 1065 q 342 1132 342 1107 q 348 1166 342 1150 q 359 1190 354 1182 q 382 1212 364 1197 q 402 1228 400 1226 q 429 1246 404 1231 l 604 1357 m 611 211 l 381 211 l 381 138 q 343 33 381 67 q 214 0 306 0 q 150 11 175 0 q 106 49 125 22 q 78 126 88 75 q 65 248 69 176 q 60 429 60 319 q 80 605 60 525 q 134 740 100 685 q 211 838 168 796 q 305 904 254 881 q 403 940 356 928 q 500 951 451 951 q 615 935 558 951 q 731 881 672 919 q 833 784 789 842 q 904 635 876 726 q 932 429 932 543 q 919 158 932 246 q 874 35 906 69 q 778 0 843 0 q 649 33 686 0 q 611 138 611 67 l 611 211 m 497 725 q 409 690 438 725 q 381 567 381 656 l 381 403 l 611 403 l 611 569 q 597 663 611 628 q 559 712 583 699 q 497 725 535 725 z "},"Â":{"ha":989,"x_min":60,"x_max":932,"o":"m 703 1258 q 778 1136 778 1183 q 744 1066 778 1096 q 672 1036 711 1036 q 593 1081 636 1036 q 555 1124 576 1097 q 523 1160 533 1150 q 501 1169 513 1169 q 478 1158 490 1169 q 447 1122 465 1146 q 417 1085 429 1097 q 332 1039 372 1039 q 258 1067 289 1039 q 226 1136 226 1096 q 228 1155 226 1146 q 233 1172 229 1164 q 242 1188 238 1181 q 253 1203 246 1194 q 264 1217 260 1213 q 276 1231 268 1222 q 288 1244 283 1240 q 500 1363 389 1363 q 565 1353 535 1363 q 623 1326 596 1344 q 665 1294 650 1307 q 703 1258 679 1282 m 611 211 l 381 211 l 381 138 q 343 33 381 67 q 214 0 306 0 q 150 11 175 0 q 106 49 125 22 q 78 126 88 75 q 65 248 69 176 q 60 429 60 319 q 80 605 60 525 q 134 740 100 685 q 211 838 168 796 q 305 904 254 881 q 403 940 356 928 q 500 951 451 951 q 615 935 558 951 q 731 881 672 919 q 833 784 789 842 q 904 635 876 726 q 932 429 932 543 q 919 158 932 246 q 874 35 906 69 q 778 0 843 0 q 649 33 686 0 q 611 138 611 67 l 611 211 m 497 725 q 409 690 438 725 q 381 567 381 656 l 381 403 l 611 403 l 611 569 q 597 663 611 628 q 559 712 583 699 q 497 725 535 725 z "},"Ã":{"ha":989,"x_min":60,"x_max":932,"o":"m 422 1126 q 392 1065 422 1090 q 321 1040 363 1040 q 269 1049 290 1040 q 238 1074 249 1057 q 224 1109 228 1090 q 221 1156 221 1128 q 256 1265 221 1218 q 354 1311 292 1311 q 590 1226 468 1311 q 599 1258 590 1243 q 620 1285 607 1274 q 653 1304 633 1297 q 693 1311 672 1311 q 772 1283 751 1311 q 793 1197 793 1254 q 758 1088 793 1136 q 658 1040 722 1040 q 578 1053 617 1040 q 515 1083 539 1067 q 466 1113 492 1099 q 422 1126 440 1126 m 611 211 l 381 211 l 381 138 q 343 33 381 67 q 214 0 306 0 q 150 11 175 0 q 106 49 125 22 q 78 126 88 75 q 65 248 69 176 q 60 429 60 319 q 80 605 60 525 q 134 740 100 685 q 211 838 168 796 q 305 904 254 881 q 403 940 356 928 q 500 951 451 951 q 615 935 558 951 q 731 881 672 919 q 833 784 789 842 q 904 635 876 726 q 932 429 932 543 q 919 158 932 246 q 874 35 906 69 q 778 0 843 0 q 649 33 686 0 q 611 138 611 67 l 611 211 m 497 725 q 409 690 438 725 q 381 567 381 656 l 381 403 l 611 403 l 611 569 q 597 663 611 628 q 559 712 583 699 q 497 725 535 725 z "},"Ä":{"ha":989,"x_min":60,"x_max":932,"o":"m 196 1143 q 237 1066 196 1090 q 340 1042 278 1042 q 449 1064 413 1042 q 486 1143 486 1086 q 340 1244 486 1244 q 233 1216 271 1244 q 196 1143 196 1188 m 531 1143 q 572 1066 531 1090 q 675 1042 613 1042 q 752 1050 722 1042 q 801 1081 782 1058 q 821 1143 821 1104 q 675 1244 821 1244 q 596 1231 629 1244 q 547 1195 563 1218 q 531 1143 531 1172 m 611 211 l 381 211 l 381 138 q 343 33 381 67 q 214 0 306 0 q 150 11 175 0 q 106 49 125 22 q 78 126 88 75 q 65 248 69 176 q 60 429 60 319 q 80 605 60 525 q 134 740 100 685 q 211 838 168 796 q 305 904 254 881 q 403 940 356 928 q 500 951 451 951 q 615 935 558 951 q 731 881 672 919 q 833 784 789 842 q 904 635 876 726 q 932 429 932 543 q 919 158 932 246 q 874 35 906 69 q 778 0 843 0 q 649 33 686 0 q 611 138 611 67 l 611 211 m 497 725 q 409 690 438 725 q 381 567 381 656 l 381 403 l 611 403 l 611 569 q 597 663 611 628 q 559 712 583 699 q 497 725 535 725 z "},"Å":{"ha":989,"x_min":60,"x_max":932,"o":"m 672 1081 q 640 1056 672 1081 q 510 1031 608 1031 q 347 1081 413 1031 q 282 1219 282 1132 q 346 1360 282 1308 q 510 1413 410 1413 q 600 1399 558 1413 q 672 1362 642 1386 q 719 1301 703 1338 q 736 1219 736 1264 q 672 1081 736 1132 m 553 1221 q 549 1256 553 1239 q 535 1283 544 1272 q 511 1294 525 1294 q 478 1272 490 1294 q 465 1221 465 1250 q 470 1187 465 1203 q 485 1160 475 1171 q 511 1150 496 1150 q 542 1171 532 1150 q 553 1221 553 1192 m 611 211 l 381 211 l 381 138 q 343 33 381 67 q 214 0 306 0 q 150 11 175 0 q 106 49 125 22 q 78 126 88 75 q 65 248 69 176 q 60 429 60 319 q 80 605 60 525 q 134 740 100 685 q 211 838 168 796 q 305 904 254 881 q 403 940 356 928 q 500 951 451 951 q 615 935 558 951 q 731 881 672 919 q 833 784 789 842 q 904 635 876 726 q 932 429 932 543 q 919 158 932 246 q 874 35 906 69 q 778 0 843 0 q 649 33 686 0 q 611 138 611 67 l 611 211 m 497 725 q 409 690 438 725 q 381 567 381 656 l 381 403 l 611 403 l 611 569 q 597 663 611 628 q 559 712 583 699 q 497 725 535 725 z "},"Æ":{"ha":1308,"x_min":65,"x_max":1283,"o":"m 568 396 l 394 396 q 408 565 401 511 q 463 688 418 653 q 567 724 507 724 l 568 396 m 565 217 q 603 48 567 96 q 722 0 640 0 l 724 0 l 1124 0 q 1244 26 1204 0 q 1283 119 1283 53 q 1267 183 1283 160 q 1220 215 1251 206 q 1138 224 1189 224 l 885 225 l 885 372 l 1061 372 q 1172 392 1136 372 q 1207 460 1207 413 q 1177 540 1207 517 q 1074 564 1147 564 l 883 564 l 883 726 l 1138 726 q 1249 751 1215 726 q 1283 836 1283 775 q 1244 926 1283 900 q 1124 951 1204 951 l 588 951 q 438 935 507 951 q 306 880 369 918 q 194 783 242 842 q 116 633 147 724 q 75 429 85 543 q 65 217 65 299 q 99 44 65 89 q 219 0 133 0 q 337 25 300 0 q 376 103 374 50 l 376 218 l 565 217 z "},"Ç":{"ha":1088,"x_min":71,"x_max":1018,"o":"m 664 -89 q 722 -192 722 -118 q 664 -328 722 -276 q 526 -381 606 -381 q 476 -375 504 -381 q 417 -359 447 -369 q 367 -328 388 -349 q 347 -282 347 -308 q 370 -220 347 -250 q 417 -190 393 -190 q 446 -199 426 -190 q 472 -207 465 -207 q 494 -196 485 -207 q 504 -169 504 -185 q 477 -137 504 -157 q 450 -101 450 -117 q 461 -67 450 -93 q 483 -19 472 -40 l 494 3 l 675 3 q 646 -71 646 -54 q 664 -89 646 -81 m 657 690 q 633 740 657 719 q 575 761 608 761 q 465 685 508 761 q 422 514 422 610 q 450 381 422 440 q 531 288 478 322 q 653 253 583 253 q 751 273 704 253 q 828 317 799 293 q 888 362 857 342 q 943 382 919 382 q 996 358 974 382 q 1018 307 1018 333 q 1001 239 1018 278 q 946 156 983 200 q 858 76 908 113 q 734 15 808 39 q 578 -10 660 -10 q 377 23 469 -10 q 217 116 285 56 q 110 268 149 176 q 71 474 71 360 q 206 829 71 699 q 558 960 340 960 q 764 922 669 960 q 914 818 858 885 q 969 672 969 751 q 908 506 969 581 q 750 432 847 432 q 650 463 694 432 q 606 550 606 493 q 631 624 606 576 q 657 690 657 671 z "},"È":{"ha":933,"x_min":96,"x_max":864,"o":"m 381 1339 q 307 1358 347 1358 q 219 1311 253 1358 q 186 1211 186 1264 q 282 1097 186 1133 l 469 1035 q 539 1022 507 1022 q 594 1035 569 1022 q 631 1068 618 1047 q 643 1114 643 1089 q 630 1163 643 1140 q 603 1195 617 1185 q 564 1222 590 1206 q 556 1228 558 1226 l 381 1339 m 654 564 q 758 540 728 564 q 788 460 788 517 q 752 392 788 413 q 642 372 717 372 l 417 372 l 417 225 l 718 224 q 830 201 796 224 q 864 119 864 178 q 824 26 864 53 q 704 0 785 0 l 254 0 q 134 44 172 0 q 96 199 96 88 l 96 785 q 254 951 96 951 l 704 951 q 824 926 785 951 q 864 836 864 901 q 830 751 864 775 q 718 726 796 726 l 415 726 l 415 564 l 654 564 z "},"É":{"ha":933,"x_min":96,"x_max":864,"o":"m 536 1357 q 610 1376 569 1376 q 697 1329 664 1376 q 731 1229 731 1282 q 635 1115 731 1151 l 447 1053 q 378 1040 410 1040 q 323 1053 347 1040 q 286 1086 299 1065 q 274 1132 274 1107 q 280 1166 274 1150 q 291 1190 286 1182 q 314 1212 296 1197 q 334 1228 332 1226 q 361 1246 336 1231 l 536 1357 m 654 564 q 758 540 728 564 q 788 460 788 517 q 752 392 788 413 q 642 372 717 372 l 417 372 l 417 225 l 718 224 q 830 201 796 224 q 864 119 864 178 q 824 26 864 53 q 704 0 785 0 l 254 0 q 134 44 172 0 q 96 199 96 88 l 96 785 q 254 951 96 951 l 704 951 q 824 926 785 951 q 864 836 864 901 q 830 751 864 775 q 718 726 796 726 l 415 726 l 415 564 l 654 564 z "},"Ê":{"ha":933,"x_min":96,"x_max":864,"o":"m 678 1258 q 753 1136 753 1183 q 719 1066 753 1096 q 647 1036 686 1036 q 568 1081 611 1036 q 530 1124 551 1097 q 498 1160 508 1150 q 476 1169 488 1169 q 453 1158 465 1169 q 422 1122 440 1146 q 392 1085 404 1097 q 307 1039 347 1039 q 233 1067 264 1039 q 201 1136 201 1096 q 203 1155 201 1146 q 208 1172 204 1164 q 217 1188 213 1181 q 228 1203 221 1194 q 239 1217 235 1213 q 251 1231 243 1222 q 263 1244 258 1240 q 475 1363 364 1363 q 540 1353 510 1363 q 598 1326 571 1344 q 640 1294 625 1307 q 678 1258 654 1282 m 654 564 q 758 540 728 564 q 788 460 788 517 q 752 392 788 413 q 642 372 717 372 l 417 372 l 417 225 l 718 224 q 830 201 796 224 q 864 119 864 178 q 824 26 864 53 q 704 0 785 0 l 254 0 q 134 44 172 0 q 96 199 96 88 l 96 785 q 254 951 96 951 l 704 951 q 824 926 785 951 q 864 836 864 901 q 830 751 864 775 q 718 726 796 726 l 415 726 l 415 564 l 654 564 z "},"Ë":{"ha":933,"x_min":96,"x_max":864,"o":"m 158 1147 q 199 1070 158 1094 q 303 1046 240 1046 q 412 1068 375 1046 q 449 1147 449 1090 q 303 1249 449 1249 q 196 1220 233 1249 q 158 1147 158 1192 m 493 1147 q 534 1070 493 1094 q 638 1046 575 1046 q 715 1054 685 1046 q 764 1085 744 1063 q 783 1147 783 1108 q 638 1249 783 1249 q 558 1235 592 1249 q 509 1199 525 1222 q 493 1147 493 1176 m 654 564 q 758 540 728 564 q 788 460 788 517 q 752 392 788 413 q 642 372 717 372 l 417 372 l 417 225 l 718 224 q 830 201 796 224 q 864 119 864 178 q 824 26 864 53 q 704 0 785 0 l 254 0 q 134 44 172 0 q 96 199 96 88 l 96 785 q 254 951 96 951 l 704 951 q 824 926 785 951 q 864 836 864 901 q 830 751 864 775 q 718 726 796 726 l 415 726 l 415 564 l 654 564 z "},"Ì":{"ha":506,"x_min":-36,"x_max":421,"o":"m 158 1339 q 85 1358 125 1358 q -3 1311 31 1358 q -36 1211 -36 1264 q 60 1097 -36 1133 l 247 1035 q 317 1022 285 1022 q 372 1035 347 1022 q 408 1068 396 1047 q 421 1114 421 1089 q 408 1163 421 1140 q 381 1195 394 1185 q 342 1222 368 1206 q 333 1228 336 1226 l 158 1339 m 417 208 q 376 50 417 100 q 254 0 336 0 q 135 43 174 0 q 97 197 97 86 l 97 785 q 254 951 97 951 q 376 921 335 951 q 417 797 417 890 l 417 208 z "},"Í":{"ha":506,"x_min":86,"x_max":543,"o":"m 349 1357 q 422 1376 382 1376 q 510 1329 476 1376 q 543 1229 543 1282 q 447 1115 543 1151 l 260 1053 q 190 1040 222 1040 q 135 1053 160 1040 q 99 1086 111 1065 q 86 1132 86 1107 q 92 1166 86 1150 q 103 1190 99 1182 q 126 1212 108 1197 q 147 1228 144 1226 q 174 1246 149 1231 l 349 1357 m 417 208 q 376 50 417 100 q 254 0 336 0 q 135 43 174 0 q 97 197 97 86 l 97 785 q 254 951 97 951 q 376 921 335 951 q 417 797 417 890 l 417 208 z "},"Î":{"ha":506,"x_min":-8,"x_max":543,"o":"m 468 1258 q 543 1136 543 1183 q 510 1066 543 1096 q 438 1036 476 1036 q 358 1081 401 1036 q 320 1124 342 1097 q 288 1160 299 1150 q 267 1169 278 1169 q 243 1158 256 1169 q 213 1122 231 1146 q 182 1085 194 1097 q 97 1039 138 1039 q 23 1067 54 1039 q -8 1136 -8 1096 q -7 1155 -8 1146 q -1 1172 -6 1164 q 7 1188 3 1181 q 18 1203 11 1194 q 29 1217 25 1213 q 41 1231 33 1222 q 53 1244 49 1240 q 265 1363 154 1363 q 331 1353 300 1363 q 388 1326 361 1344 q 430 1294 415 1307 q 468 1258 444 1282 m 417 208 q 376 50 417 100 q 254 0 336 0 q 135 43 174 0 q 97 197 97 86 l 97 785 q 254 951 97 951 q 376 921 335 951 q 417 797 417 890 l 417 208 z "},"Ï":{"ha":506,"x_min":-40,"x_max":585,"o":"m -40 1146 q 1 1069 -40 1093 q 104 1044 42 1044 q 213 1067 176 1044 q 250 1146 250 1089 q 104 1247 250 1247 q -3 1219 35 1247 q -40 1146 -40 1190 m 294 1146 q 335 1069 294 1093 q 439 1044 376 1044 q 516 1053 486 1044 q 565 1084 546 1061 q 585 1146 585 1107 q 439 1247 585 1247 q 360 1234 393 1247 q 310 1198 326 1221 q 294 1146 294 1175 m 417 208 q 376 50 417 100 q 254 0 336 0 q 135 43 174 0 q 97 197 97 86 l 97 785 q 254 951 97 951 q 376 921 335 951 q 417 797 417 890 l 417 208 z "},"Ð":{"ha":1000,"x_min":-17,"x_max":936,"o":"m 415 189 q 478 197 451 189 q 530 224 506 204 q 569 278 554 244 q 594 363 585 311 q 603 486 603 415 q 589 620 603 565 q 549 703 575 675 q 491 744 522 732 q 415 757 460 756 l 415 551 q 479 538 456 549 q 513 505 503 526 q 524 449 524 483 q 517 413 524 428 q 497 388 511 399 q 463 372 483 378 q 415 365 443 367 l 415 189 m 457 950 q 805 825 674 950 q 936 481 936 700 q 923 343 936 410 q 879 213 910 276 q 803 103 849 150 q 686 28 757 57 q 526 0 615 0 l 253 0 q 131 43 168 0 q 94 199 94 86 l 94 364 q -17 454 -17 364 q 94 551 -17 547 l 94 785 q 253 950 94 950 l 457 950 z "},"Ñ":{"ha":1074,"x_min":93,"x_max":981,"o":"m 447 1126 q 417 1065 447 1090 q 346 1040 388 1040 q 294 1049 315 1040 q 263 1074 274 1057 q 249 1109 253 1090 q 246 1156 246 1128 q 281 1265 246 1218 q 379 1311 317 1311 q 615 1226 493 1311 q 624 1258 615 1243 q 645 1285 632 1274 q 678 1304 658 1297 q 718 1311 697 1311 q 797 1283 776 1311 q 818 1197 818 1254 q 783 1088 818 1136 q 683 1040 747 1040 q 603 1053 642 1040 q 540 1083 564 1067 q 491 1113 517 1099 q 447 1126 465 1126 m 981 132 q 944 35 981 71 q 839 0 908 0 q 803 4 821 0 q 765 19 785 8 q 729 40 744 31 q 691 70 714 50 q 655 102 668 90 q 614 140 642 114 q 574 179 586 167 l 319 419 l 319 118 q 294 25 319 50 q 213 0 268 0 q 122 28 151 0 q 93 121 93 56 l 93 792 q 133 911 93 871 q 249 951 174 951 q 331 935 300 951 q 406 878 363 919 l 757 528 l 757 831 q 787 920 757 890 q 868 950 817 950 q 954 922 928 950 q 981 832 981 894 l 981 132 z "},"Ò":{"ha":1118,"x_min":72,"x_max":1046,"o":"m 432 1339 q 358 1358 399 1358 q 271 1311 304 1358 q 238 1211 238 1264 q 333 1097 238 1133 l 521 1035 q 590 1022 558 1022 q 645 1035 621 1022 q 682 1068 669 1047 q 694 1114 694 1089 q 681 1163 694 1140 q 655 1195 668 1185 q 615 1222 642 1206 q 607 1228 610 1226 l 432 1339 m 804 47 q 749 19 804 47 q 558 -8 694 -8 q 312 47 421 -8 q 138 211 203 101 q 72 469 72 321 q 208 827 72 694 q 558 960 343 960 q 910 827 774 960 q 1046 469 1046 694 q 980 211 1046 321 q 804 47 914 101 m 558 194 q 640 236 606 194 q 688 339 674 278 q 703 469 703 400 q 688 603 703 540 q 638 711 672 667 q 558 756 604 756 q 481 711 514 756 q 431 603 447 667 q 414 469 414 539 q 430 339 414 400 q 480 236 446 278 q 558 194 514 194 z "},"Ó":{"ha":1118,"x_min":72,"x_max":1046,"o":"m 657 1357 q 731 1376 690 1376 q 818 1329 785 1376 q 851 1229 851 1282 q 756 1115 851 1151 l 568 1053 q 499 1040 531 1040 q 444 1053 468 1040 q 407 1086 419 1065 q 394 1132 394 1107 q 401 1166 394 1150 q 412 1190 407 1182 q 435 1212 417 1197 q 455 1228 453 1226 q 482 1246 457 1231 l 657 1357 m 804 47 q 749 19 804 47 q 558 -8 694 -8 q 312 47 421 -8 q 138 211 203 101 q 72 469 72 321 q 208 827 72 694 q 558 960 343 960 q 910 827 774 960 q 1046 469 1046 694 q 980 211 1046 321 q 804 47 914 101 m 558 194 q 640 236 606 194 q 688 339 674 278 q 703 469 703 400 q 688 603 703 540 q 638 711 672 667 q 558 756 604 756 q 481 711 514 756 q 431 603 447 667 q 414 469 414 539 q 430 339 414 400 q 480 236 446 278 q 558 194 514 194 z "},"Ô":{"ha":1118,"x_min":72,"x_max":1046,"o":"m 765 1258 q 840 1136 840 1183 q 807 1066 840 1096 q 735 1036 774 1036 q 656 1081 699 1036 q 617 1124 639 1097 q 585 1160 596 1150 q 564 1169 575 1169 q 540 1158 553 1169 q 510 1122 528 1146 q 479 1085 492 1097 q 394 1039 435 1039 q 320 1067 351 1039 q 289 1136 289 1096 q 290 1155 289 1146 q 296 1172 292 1164 q 304 1188 300 1181 q 315 1203 308 1194 q 326 1217 322 1213 q 338 1231 331 1222 q 350 1244 346 1240 q 563 1363 451 1363 q 628 1353 597 1363 q 685 1326 658 1344 q 727 1294 713 1307 q 765 1258 742 1282 m 804 47 q 749 19 804 47 q 558 -8 694 -8 q 312 47 421 -8 q 138 211 203 101 q 72 469 72 321 q 208 827 72 694 q 558 960 343 960 q 910 827 774 960 q 1046 469 1046 694 q 980 211 1046 321 q 804 47 914 101 m 558 194 q 640 236 606 194 q 688 339 674 278 q 703 469 703 400 q 688 603 703 540 q 638 711 672 667 q 558 756 604 756 q 481 711 514 756 q 431 603 447 667 q 414 469 414 539 q 430 339 414 400 q 480 236 446 278 q 558 194 514 194 z "},"Õ":{"ha":1118,"x_min":72,"x_max":1046,"o":"m 483 1126 q 453 1065 483 1090 q 382 1040 424 1040 q 331 1049 351 1040 q 299 1074 310 1057 q 285 1109 289 1090 q 282 1156 282 1128 q 317 1265 282 1218 q 415 1311 353 1311 q 651 1226 529 1311 q 660 1258 651 1243 q 681 1285 668 1274 q 714 1304 694 1297 q 754 1311 733 1311 q 833 1283 813 1311 q 854 1197 854 1254 q 819 1088 854 1136 q 719 1040 783 1040 q 639 1053 678 1040 q 576 1083 600 1067 q 527 1113 553 1099 q 483 1126 501 1126 m 804 47 q 749 19 804 47 q 558 -8 694 -8 q 312 47 421 -8 q 138 211 203 101 q 72 469 72 321 q 208 827 72 694 q 558 960 343 960 q 910 827 774 960 q 1046 469 1046 694 q 980 211 1046 321 q 804 47 914 101 m 558 194 q 640 236 606 194 q 688 339 674 278 q 703 469 703 400 q 688 603 703 540 q 638 711 672 667 q 558 756 604 756 q 481 711 514 756 q 431 603 447 667 q 414 469 414 539 q 430 339 414 400 q 480 236 446 278 q 558 194 514 194 z "},"Ö":{"ha":1118,"x_min":72,"x_max":1046,"o":"m 254 1147 q 295 1070 254 1094 q 399 1046 336 1046 q 508 1068 471 1046 q 544 1147 544 1090 q 399 1249 544 1249 q 292 1220 329 1249 q 254 1147 254 1192 m 589 1147 q 630 1070 589 1094 q 733 1046 671 1046 q 810 1054 781 1046 q 860 1085 840 1063 q 879 1147 879 1108 q 733 1249 879 1249 q 654 1235 688 1249 q 605 1199 621 1222 q 589 1147 589 1176 m 804 47 q 749 19 804 47 q 558 -8 694 -8 q 312 47 421 -8 q 138 211 203 101 q 72 469 72 321 q 208 827 72 694 q 558 960 343 960 q 910 827 774 960 q 1046 469 1046 694 q 980 211 1046 321 q 804 47 914 101 m 558 194 q 640 236 606 194 q 688 339 674 278 q 703 469 703 400 q 688 603 703 540 q 638 711 672 667 q 558 756 604 756 q 481 711 514 756 q 431 603 447 667 q 414 469 414 539 q 430 339 414 400 q 480 236 446 278 q 558 194 514 194 z "},"×":{"ha":836,"x_min":85,"x_max":753,"o":"m 419 157 q 403 140 417 153 q 385 121 389 126 q 367 103 380 116 q 347 84 354 90 q 328 68 340 78 q 306 54 315 58 q 285 44 297 50 q 263 36 274 38 q 240 33 252 33 q 135 78 185 33 q 85 175 85 123 q 96 203 85 187 q 127 237 107 218 q 164 270 148 256 q 204 302 179 283 q 233 326 228 321 q 204 349 223 333 q 173 376 185 365 q 144 404 160 387 q 119 436 128 421 q 102 472 109 452 q 94 513 94 492 q 135 592 94 556 q 220 628 177 628 q 267 618 244 628 q 310 590 289 608 q 347 554 330 572 q 385 511 364 536 q 419 475 405 487 q 462 521 433 487 q 509 574 490 555 q 558 611 528 593 q 617 628 588 628 q 653 621 634 628 q 687 603 672 615 q 716 576 703 591 q 736 545 729 562 q 743 512 743 528 q 735 470 743 491 q 707 425 728 450 q 676 390 685 401 q 636 353 667 380 q 605 326 605 326 q 634 302 609 321 q 675 270 659 283 q 710 237 690 256 q 741 203 730 218 q 752 175 752 187 q 702 78 752 123 q 597 33 652 33 q 571 37 584 33 q 547 45 558 41 q 523 60 537 50 q 501 76 509 70 q 479 96 493 82 q 459 115 464 110 q 438 137 453 121 q 419 157 423 153 z "},"Ø":{"ha":1118,"x_min":19,"x_max":1056,"o":"m 863 915 q 957 969 919 969 q 1022 942 989 969 q 1056 881 1056 914 q 994 776 1056 835 l 196 19 q 111 -25 149 -25 q 49 8 78 -25 q 19 75 19 40 q 60 154 19 115 l 863 915 m 558 -8 q 368 24 457 -8 q 213 115 279 56 q 110 267 147 175 q 72 469 72 358 q 208 827 72 694 q 558 960 343 960 q 910 827 774 960 q 1046 469 1046 694 q 980 211 1046 321 q 804 47 914 101 q 558 -8 694 -8 m 558 194 q 623 219 594 194 q 668 283 651 243 q 694 370 685 322 q 703 469 703 418 q 688 603 703 540 q 638 711 672 667 q 558 756 604 756 q 481 711 514 756 q 431 603 447 667 q 414 469 414 539 q 430 339 414 400 q 480 236 446 278 q 558 194 514 194 z "},"Ù":{"ha":1024,"x_min":81,"x_max":936,"o":"m 411 1339 q 338 1358 378 1358 q 250 1311 283 1358 q 217 1211 217 1264 q 313 1097 217 1133 l 500 1035 q 569 1022 538 1022 q 624 1035 600 1022 q 661 1068 649 1047 q 674 1114 674 1089 q 660 1163 674 1140 q 634 1195 647 1185 q 594 1222 621 1206 q 586 1228 589 1226 l 411 1339 m 936 785 l 936 371 q 838 80 936 168 q 508 -8 740 -8 q 184 86 288 -8 q 81 371 81 181 l 81 785 q 124 905 81 858 q 235 951 168 951 q 359 921 317 951 q 401 797 401 890 l 401 344 q 416 274 403 300 q 451 237 429 247 q 508 226 474 226 q 565 235 543 226 q 598 261 588 243 q 612 297 608 279 q 615 344 615 315 l 615 799 q 627 878 615 846 q 663 925 639 910 q 713 946 688 940 q 775 951 739 951 q 896 913 856 951 q 936 785 936 874 z "},"Ú":{"ha":1024,"x_min":81,"x_max":936,"o":"m 632 1357 q 706 1376 665 1376 q 793 1329 760 1376 q 826 1229 826 1282 q 731 1115 826 1151 l 543 1053 q 474 1040 506 1040 q 419 1053 443 1040 q 382 1086 394 1065 q 369 1132 369 1107 q 376 1166 369 1150 q 387 1190 382 1182 q 410 1212 392 1197 q 430 1228 428 1226 q 457 1246 432 1231 l 632 1357 m 936 785 l 936 371 q 838 80 936 168 q 508 -8 740 -8 q 184 86 288 -8 q 81 371 81 181 l 81 785 q 124 905 81 858 q 235 951 168 951 q 359 921 317 951 q 401 797 401 890 l 401 344 q 416 274 403 300 q 451 237 429 247 q 508 226 474 226 q 565 235 543 226 q 598 261 588 243 q 612 297 608 279 q 615 344 615 315 l 615 799 q 627 878 615 846 q 663 925 639 910 q 713 946 688 940 q 775 951 739 951 q 896 913 856 951 q 936 785 936 874 z "},"Û":{"ha":1024,"x_min":81,"x_max":936,"o":"m 714 1258 q 789 1136 789 1183 q 756 1066 789 1096 q 683 1036 722 1036 q 604 1081 647 1036 q 566 1124 588 1097 q 534 1160 544 1150 q 513 1169 524 1169 q 489 1158 501 1169 q 458 1122 476 1146 q 428 1085 440 1097 q 343 1039 383 1039 q 269 1067 300 1039 q 238 1136 238 1096 q 239 1155 238 1146 q 244 1172 240 1164 q 253 1188 249 1181 q 264 1203 257 1194 q 275 1217 271 1213 q 287 1231 279 1222 q 299 1244 294 1240 q 511 1363 400 1363 q 576 1353 546 1363 q 634 1326 607 1344 q 676 1294 661 1307 q 714 1258 690 1282 m 936 785 l 936 371 q 838 80 936 168 q 508 -8 740 -8 q 184 86 288 -8 q 81 371 81 181 l 81 785 q 124 905 81 858 q 235 951 168 951 q 359 921 317 951 q 401 797 401 890 l 401 344 q 416 274 403 300 q 451 237 429 247 q 508 226 474 226 q 565 235 543 226 q 598 261 588 243 q 612 297 608 279 q 615 344 615 315 l 615 799 q 627 878 615 846 q 663 925 639 910 q 713 946 688 940 q 775 951 739 951 q 896 913 856 951 q 936 785 936 874 z "},"Ü":{"ha":1024,"x_min":81,"x_max":936,"o":"m 193 1146 q 234 1069 193 1093 q 338 1044 275 1044 q 447 1067 410 1044 q 483 1146 483 1089 q 338 1247 483 1247 q 231 1219 268 1247 q 193 1146 193 1190 m 528 1146 q 569 1069 528 1093 q 672 1044 610 1044 q 749 1053 719 1044 q 799 1084 779 1061 q 818 1146 818 1107 q 672 1247 818 1247 q 593 1234 626 1247 q 544 1198 560 1221 q 528 1146 528 1175 m 936 785 l 936 371 q 838 80 936 168 q 508 -8 740 -8 q 184 86 288 -8 q 81 371 81 181 l 81 785 q 124 905 81 858 q 235 951 168 951 q 359 921 317 951 q 401 797 401 890 l 401 344 q 416 274 403 300 q 451 237 429 247 q 508 226 474 226 q 565 235 543 226 q 598 261 588 243 q 612 297 608 279 q 615 344 615 315 l 615 799 q 627 878 615 846 q 663 925 639 910 q 713 946 688 940 q 775 951 739 951 q 896 913 856 951 q 936 785 936 874 z "},"Ý":{"ha":988,"x_min":58,"x_max":935,"o":"m 583 1357 q 657 1376 617 1376 q 744 1329 711 1376 q 778 1229 778 1282 q 682 1115 778 1151 l 494 1053 q 425 1040 457 1040 q 370 1053 394 1040 q 333 1086 346 1065 q 321 1132 321 1107 q 327 1166 321 1150 q 338 1190 333 1182 q 361 1212 343 1197 q 381 1228 379 1226 q 408 1246 383 1231 l 583 1357 m 653 208 q 613 48 653 96 q 489 0 572 0 q 371 44 408 0 q 332 199 333 88 l 331 424 l 117 674 q 58 789 58 740 q 117 910 58 865 q 215 951 172 951 q 322 897 275 951 l 492 700 l 633 865 q 785 950 704 950 q 878 917 844 950 q 935 807 935 860 q 915 745 935 778 q 853 661 896 713 l 653 417 l 653 208 z "},"Þ":{"ha":903,"x_min":97,"x_max":814,"o":"m 417 374 q 508 404 471 379 q 546 471 546 429 q 508 540 546 514 q 417 572 471 567 l 417 374 m 415 824 q 707 719 600 817 q 814 472 814 622 q 706 230 814 325 q 410 131 597 135 q 254 0 385 0 q 135 43 174 0 q 97 197 97 86 l 97 785 q 254 951 97 951 q 369 926 329 951 q 415 824 410 900 z "},"ß":{"ha":972,"x_min":65,"x_max":935,"o":"m 489 976 q 333 956 407 976 q 197 894 258 935 q 101 785 136 853 q 65 631 65 717 l 65 199 q 83 79 65 124 q 133 17 101 35 q 217 0 165 0 q 332 42 294 0 q 369 181 369 83 l 369 594 q 383 663 369 633 q 421 707 397 692 q 470 729 444 722 q 522 736 496 736 q 600 719 565 736 q 635 667 635 703 q 614 621 635 633 q 539 608 593 608 q 474 583 499 608 q 450 515 450 557 q 463 456 450 479 q 503 422 475 433 q 574 410 531 410 q 633 394 617 410 q 650 349 650 378 q 635 310 650 324 q 603 294 619 297 q 561 292 586 292 q 520 290 536 292 q 486 281 504 289 q 458 260 468 274 q 442 223 449 247 q 435 164 435 199 q 481 40 435 81 q 636 -1 528 -1 q 853 74 772 -1 q 935 271 935 150 q 908 417 935 367 q 814 515 881 468 q 842 551 829 532 q 863 594 854 571 q 878 642 872 617 q 883 696 883 668 q 860 808 883 758 q 797 888 836 857 q 706 940 758 919 q 599 968 653 960 q 489 976 546 976 z "},"à":{"ha":867,"x_min":58,"x_max":800,"o":"m 390 1046 q 324 1064 360 1064 q 245 1021 275 1064 q 215 929 215 978 q 301 826 215 860 l 471 769 q 535 758 506 758 q 602 783 576 758 q 628 842 628 807 q 616 885 628 865 q 592 915 604 906 q 557 940 581 925 q 550 946 553 943 l 390 1046 m 501 460 q 440 500 478 500 q 382 447 404 500 q 360 326 360 394 q 381 213 360 263 q 439 163 401 163 q 501 200 478 163 l 501 460 m 313 -8 q 131 81 203 -8 q 58 326 58 171 q 130 578 58 485 q 313 672 201 672 q 521 593 425 672 q 642 663 558 663 q 758 630 717 663 q 800 510 800 597 l 800 149 q 765 33 800 65 q 643 0 731 0 q 522 51 551 0 q 313 -8 433 -8 z "},"á":{"ha":867,"x_min":58,"x_max":800,"o":"m 522 1046 q 589 1064 553 1064 q 667 1021 638 1064 q 697 929 697 978 q 611 826 697 860 l 442 769 q 378 758 407 758 q 328 769 350 758 q 296 799 307 781 q 285 842 285 818 q 340 931 285 892 q 363 946 340 931 l 522 1046 m 501 460 q 440 500 478 500 q 382 447 404 500 q 360 326 360 394 q 381 213 360 263 q 439 163 401 163 q 501 200 478 163 l 501 460 m 313 -8 q 131 81 203 -8 q 58 326 58 171 q 130 578 58 485 q 313 672 201 672 q 521 593 425 672 q 642 663 558 663 q 758 630 717 663 q 800 510 800 597 l 800 149 q 765 33 800 65 q 643 0 731 0 q 522 51 551 0 q 313 -8 433 -8 z "},"â":{"ha":867,"x_min":58,"x_max":800,"o":"m 653 975 q 724 860 724 904 q 692 792 724 821 q 624 764 661 764 q 549 806 590 764 q 536 820 543 813 q 524 833 529 828 q 514 843 519 838 q 505 853 508 849 q 497 861 501 857 q 488 867 492 865 q 481 872 485 869 q 475 876 478 875 q 469 878 472 878 q 461 879 465 879 q 442 872 453 879 q 425 858 432 865 q 403 835 418 851 q 381 810 389 819 q 300 767 339 767 q 230 794 260 767 q 200 860 200 821 q 201 876 200 868 q 207 893 203 885 q 215 908 211 901 q 225 922 218 914 q 235 935 232 931 q 247 949 239 940 q 258 963 256 958 q 460 1074 354 1074 q 544 1056 504 1074 q 603 1022 585 1038 q 653 975 622 1006 m 501 460 q 440 500 478 500 q 382 447 404 500 q 360 326 360 394 q 381 213 360 263 q 439 163 401 163 q 501 200 478 163 l 501 460 m 313 -8 q 131 81 203 -8 q 58 326 58 171 q 130 578 58 485 q 313 672 201 672 q 521 593 425 672 q 642 663 558 663 q 758 630 717 663 q 800 510 800 597 l 800 149 q 765 33 800 65 q 643 0 731 0 q 522 51 551 0 q 313 -8 433 -8 z "},"ã":{"ha":867,"x_min":58,"x_max":800,"o":"m 381 851 q 352 793 381 817 q 283 769 324 769 q 208 797 228 769 q 189 881 189 825 q 223 983 189 939 q 317 1028 257 1028 q 424 1008 368 1028 q 511 967 481 988 l 542 946 q 569 1004 542 981 q 639 1028 597 1028 q 714 1001 694 1028 q 733 919 733 974 q 699 815 733 861 q 606 769 665 769 q 511 790 556 769 q 434 831 467 811 q 381 851 401 851 m 501 460 q 440 500 478 500 q 382 447 404 500 q 360 326 360 394 q 381 213 360 263 q 439 163 401 163 q 501 200 478 163 l 501 460 m 313 -8 q 131 81 203 -8 q 58 326 58 171 q 130 578 58 485 q 313 672 201 672 q 521 593 425 672 q 642 663 558 663 q 758 630 717 663 q 800 510 800 597 l 800 149 q 765 33 800 65 q 643 0 731 0 q 522 51 551 0 q 313 -8 433 -8 z "},"ä":{"ha":867,"x_min":58,"x_max":800,"o":"m 155 841 q 197 763 155 787 q 301 739 238 739 q 409 762 371 739 q 446 841 446 785 q 301 942 446 942 q 193 914 231 942 q 155 841 155 886 m 490 841 q 531 763 490 787 q 635 739 573 739 q 743 762 706 739 q 781 841 781 785 q 635 942 781 942 q 528 914 566 942 q 490 841 490 886 m 501 460 q 440 500 478 500 q 382 447 404 500 q 360 326 360 394 q 381 213 360 263 q 439 163 401 163 q 501 200 478 163 l 501 460 m 313 -8 q 131 81 203 -8 q 58 326 58 171 q 130 578 58 485 q 313 672 201 672 q 521 593 425 672 q 642 663 558 663 q 758 630 717 663 q 800 510 800 597 l 800 149 q 765 33 800 65 q 643 0 731 0 q 522 51 551 0 q 313 -8 433 -8 z "},"å":{"ha":867,"x_min":58,"x_max":800,"o":"m 450 778 q 288 828 353 778 q 222 965 222 879 q 286 1108 222 1056 q 450 1160 350 1160 q 567 1137 515 1160 q 647 1069 618 1114 q 676 965 676 1025 q 646 864 676 907 q 565 799 615 821 q 450 778 514 778 m 483 917 q 488 928 483 917 q 493 967 493 939 q 482 1018 493 996 q 451 1040 471 1040 q 418 1018 431 1040 q 406 967 406 996 q 417 917 406 939 q 451 896 429 896 q 483 917 472 896 m 501 460 q 440 500 478 500 q 382 447 404 500 q 360 326 360 394 q 381 213 360 263 q 439 163 401 163 q 501 200 478 163 l 501 460 m 313 -8 q 131 81 203 -8 q 58 326 58 171 q 130 578 58 485 q 313 672 201 672 q 521 593 425 672 q 642 663 558 663 q 758 630 717 663 q 800 510 800 597 l 800 149 q 765 33 800 65 q 643 0 731 0 q 522 51 551 0 q 313 -8 433 -8 z "},"æ":{"ha":1258,"x_min":56,"x_max":1206,"o":"m 588 571 q 449 648 511 624 q 310 672 386 672 q 127 578 199 672 q 56 326 56 485 q 129 81 56 171 q 310 -8 203 -8 q 583 93 504 -8 q 665 35 625 57 q 757 3 706 14 q 876 -8 808 -8 q 1017 17 951 -8 q 1122 77 1082 42 q 1183 148 1161 113 q 1206 208 1206 183 q 1192 243 1206 229 q 1156 257 1179 257 q 1110 242 1142 257 q 1053 219 1079 226 q 931 204 990 204 q 839 230 875 204 q 789 300 803 256 l 985 301 q 1138 349 1086 303 q 1190 457 1190 394 q 1160 569 1190 522 q 1058 644 1129 615 q 876 672 986 672 q 714 646 781 672 q 588 571 647 619 m 510 194 q 450 163 486 163 q 406 188 425 163 q 379 250 388 214 q 371 326 371 286 q 393 447 371 394 q 451 500 415 500 q 513 461 489 500 q 486 318 486 396 q 510 194 486 251 m 782 389 q 815 506 788 458 q 871 553 842 553 q 924 465 924 553 q 917 415 924 433 q 886 390 906 390 q 782 389 878 390 z "},"ç":{"ha":832,"x_min":57,"x_max":775,"o":"m 536 -83 q 594 -186 594 -112 q 536 -323 594 -271 q 399 -375 478 -375 q 348 -369 376 -375 q 290 -353 319 -364 q 240 -323 260 -343 q 219 -276 219 -303 q 242 -215 219 -244 q 289 -185 265 -185 q 318 -193 299 -185 q 344 -201 338 -201 q 367 -190 357 -201 q 376 -164 376 -179 q 349 -131 376 -151 q 322 -96 322 -111 q 333 -61 322 -87 q 356 -14 344 -35 l 367 8 l 547 8 q 518 -65 518 -49 q 536 -83 518 -75 m 475 519 q 439 551 475 551 q 392 522 413 551 q 360 449 371 493 q 349 358 349 406 q 391 246 349 289 q 506 203 433 203 q 628 219 576 203 q 678 240 649 225 q 721 256 708 256 q 753 249 740 256 q 770 232 765 242 q 775 211 775 222 q 762 164 775 192 q 721 106 749 136 q 656 49 693 75 q 565 7 619 24 q 451 -10 511 -10 q 168 83 279 -10 q 57 336 57 175 q 108 516 57 439 q 247 633 158 593 q 451 672 336 672 q 633 647 561 672 q 735 578 704 621 q 765 475 765 535 q 755 421 765 449 q 723 365 744 393 q 660 320 701 338 q 563 303 618 303 q 522 306 538 303 q 488 317 506 308 q 463 347 471 326 q 454 400 454 368 q 465 467 454 428 q 475 519 475 507 z "},"è":{"ha":826,"x_min":56,"x_max":775,"o":"m 371 1046 q 304 1064 340 1064 q 226 1021 256 1064 q 196 929 196 978 q 282 826 196 860 l 451 769 q 515 758 486 758 q 583 783 557 758 q 608 842 608 807 q 597 885 608 865 q 573 915 585 906 q 538 940 561 925 q 531 946 533 943 l 371 1046 m 351 389 q 456 390 447 390 q 486 415 476 390 q 493 465 493 433 q 440 553 493 553 q 402 532 421 553 q 369 473 383 511 q 351 389 356 435 m 446 -8 q 166 79 276 -8 q 56 318 56 167 q 165 577 56 482 q 446 672 274 672 q 684 615 608 672 q 760 457 760 557 q 755 419 760 438 q 740 384 750 401 q 712 352 729 367 q 672 326 694 338 q 619 308 650 314 q 554 301 589 301 l 358 300 q 408 230 372 256 q 500 204 444 204 q 622 219 560 204 q 680 242 649 226 q 725 257 711 257 q 762 243 749 257 q 775 208 775 229 q 753 148 775 183 q 691 77 731 113 q 586 17 651 42 q 446 -8 521 -8 z "},"é":{"ha":826,"x_min":56,"x_max":775,"o":"m 513 1046 q 579 1064 543 1064 q 658 1021 628 1064 q 688 929 688 978 q 601 826 688 860 l 432 769 q 368 758 397 758 q 319 769 340 758 q 286 799 297 781 q 275 842 275 818 q 331 931 275 892 q 353 946 331 931 l 513 1046 m 351 389 q 456 390 447 390 q 486 415 476 390 q 493 465 493 433 q 440 553 493 553 q 402 532 421 553 q 369 473 383 511 q 351 389 356 435 m 446 -8 q 166 79 276 -8 q 56 318 56 167 q 165 577 56 482 q 446 672 274 672 q 684 615 608 672 q 760 457 760 557 q 755 419 760 438 q 740 384 750 401 q 712 352 729 367 q 672 326 694 338 q 619 308 650 314 q 554 301 589 301 l 358 300 q 408 230 372 256 q 500 204 444 204 q 622 219 560 204 q 680 242 649 226 q 725 257 711 257 q 762 243 749 257 q 775 208 775 229 q 753 148 775 183 q 691 77 731 113 q 586 17 651 42 q 446 -8 521 -8 z "},"ê":{"ha":826,"x_min":56,"x_max":775,"o":"m 618 975 q 689 860 689 904 q 658 792 689 821 q 589 764 626 764 q 514 806 556 764 q 501 820 508 813 q 490 833 494 828 q 479 843 485 838 q 470 853 474 849 q 462 861 467 857 q 453 867 457 865 q 447 872 450 869 q 440 876 443 875 q 434 878 438 878 q 426 879 431 879 q 408 872 418 879 q 390 858 397 865 q 369 835 383 851 q 346 810 354 819 q 265 767 304 767 q 195 794 225 767 q 165 860 165 821 q 167 876 165 868 q 172 893 168 885 q 180 908 176 901 q 190 922 183 914 q 201 935 197 931 q 213 949 204 940 q 224 963 221 958 q 425 1074 319 1074 q 510 1056 469 1074 q 569 1022 550 1038 q 618 975 588 1006 m 351 389 q 456 390 447 390 q 486 415 476 390 q 493 465 493 433 q 440 553 493 553 q 402 532 421 553 q 369 473 383 511 q 351 389 356 435 m 446 -8 q 166 79 276 -8 q 56 318 56 167 q 165 577 56 482 q 446 672 274 672 q 684 615 608 672 q 760 457 760 557 q 755 419 760 438 q 740 384 750 401 q 712 352 729 367 q 672 326 694 338 q 619 308 650 314 q 554 301 589 301 l 358 300 q 408 230 372 256 q 500 204 444 204 q 622 219 560 204 q 680 242 649 226 q 725 257 711 257 q 762 243 749 257 q 775 208 775 229 q 753 148 775 183 q 691 77 731 113 q 586 17 651 42 q 446 -8 521 -8 z "},"ë":{"ha":826,"x_min":56,"x_max":775,"o":"m 122 841 q 163 763 122 787 q 267 739 205 739 q 375 762 338 739 q 413 841 413 785 q 267 942 413 942 q 160 914 198 942 q 122 841 122 886 m 457 841 q 498 763 457 787 q 602 739 539 739 q 710 762 673 739 q 747 841 747 785 q 602 942 747 942 q 495 914 533 942 q 457 841 457 886 m 351 389 q 456 390 447 390 q 486 415 476 390 q 493 465 493 433 q 440 553 493 553 q 402 532 421 553 q 369 473 383 511 q 351 389 356 435 m 446 -8 q 166 79 276 -8 q 56 318 56 167 q 165 577 56 482 q 446 672 274 672 q 684 615 608 672 q 760 457 760 557 q 755 419 760 438 q 740 384 750 401 q 712 352 729 367 q 672 326 694 338 q 619 308 650 314 q 554 301 589 301 l 358 300 q 408 230 372 256 q 500 204 444 204 q 622 219 560 204 q 680 242 649 226 q 725 257 711 257 q 762 243 749 257 q 775 208 775 229 q 753 148 775 183 q 691 77 731 113 q 586 17 651 42 q 446 -8 521 -8 z "},"ì":{"ha":393,"x_min":-57,"x_max":356,"o":"m 118 1046 q 51 1064 88 1064 q -27 1021 3 1064 q -57 929 -57 978 q 29 826 -57 860 l 199 769 q 263 758 233 758 q 330 783 304 758 q 356 842 356 807 q 344 885 356 865 q 320 915 332 906 q 285 940 308 925 q 278 946 281 943 l 118 1046 m 346 149 q 311 33 346 65 q 189 0 276 0 q 101 19 132 0 q 58 72 69 38 q 47 164 47 106 l 47 506 q 85 619 47 576 q 188 663 124 663 q 304 630 263 663 q 346 510 346 597 l 346 149 z "},"í":{"ha":393,"x_min":38,"x_max":450,"o":"m 275 1046 q 342 1064 306 1064 q 420 1021 390 1064 q 450 929 450 978 q 364 826 450 860 l 194 769 q 131 758 160 758 q 81 769 103 758 q 49 799 60 781 q 38 842 38 818 q 93 931 38 892 q 115 946 93 931 l 275 1046 m 346 149 q 311 33 346 65 q 189 0 276 0 q 101 19 132 0 q 58 72 69 38 q 47 164 47 106 l 47 506 q 85 619 47 576 q 188 663 124 663 q 304 630 263 663 q 346 510 346 597 l 346 149 z "},"î":{"ha":393,"x_min":-57,"x_max":467,"o":"m 396 975 q 467 860 467 904 q 435 792 467 821 q 367 764 404 764 q 292 806 333 764 q 279 820 286 813 q 267 833 272 828 q 257 843 263 838 q 248 853 251 849 q 240 861 244 857 q 231 867 235 865 q 224 872 228 869 q 218 876 221 875 q 212 878 215 878 q 204 879 208 879 q 185 872 196 879 q 168 858 175 865 q 147 835 161 851 q 124 810 132 819 q 43 767 82 767 q -27 794 3 767 q -57 860 -57 821 q -56 876 -57 868 q -50 893 -54 885 q -42 908 -46 901 q -32 922 -39 914 q -22 935 -25 931 q -10 949 -18 940 q 1 963 -1 958 q 203 1074 97 1074 q 288 1056 247 1074 q 347 1022 328 1038 q 396 975 365 1006 m 346 149 q 311 33 346 65 q 189 0 276 0 q 101 19 132 0 q 58 72 69 38 q 47 164 47 106 l 47 506 q 85 619 47 576 q 188 663 124 663 q 304 630 263 663 q 346 510 346 597 l 346 149 z "},"ï":{"ha":393,"x_min":-111,"x_max":517,"o":"m -110 845 q -69 767 -110 791 q 35 743 -27 743 q 143 766 106 743 q 181 845 181 789 q 35 946 181 946 q -72 918 -34 946 q -110 845 -110 890 m 225 845 q 266 767 225 791 q 370 743 307 743 q 478 766 441 743 q 515 845 515 789 q 370 946 515 946 q 263 918 301 946 q 225 845 225 890 m 346 149 q 311 33 346 65 q 189 0 276 0 q 101 19 132 0 q 58 72 69 38 q 47 164 47 106 l 47 506 q 85 619 47 576 q 188 663 124 663 q 304 630 263 663 q 346 510 346 597 l 346 149 z "},"ð":{"ha":878,"x_min":61,"x_max":832,"o":"m 513 329 q 494 456 513 401 q 442 511 476 511 q 400 483 418 511 q 374 415 382 456 q 365 329 365 375 q 385 205 365 258 q 440 151 404 151 q 482 178 465 151 q 506 244 499 206 q 513 329 513 283 m 657 1042 q 739 985 739 1042 q 715 936 739 957 q 628 894 692 915 q 775 663 718 799 q 832 404 832 528 q 718 90 832 203 q 447 -10 617 -10 q 171 81 281 -10 q 61 328 61 171 q 115 518 61 439 q 261 635 169 597 q 472 674 353 674 q 367 786 429 758 q 194 725 250 725 q 129 778 129 725 q 257 865 129 842 q 190 915 217 886 q 163 969 163 943 q 272 1054 163 1054 q 385 1032 332 1054 q 504 969 438 1010 q 543 994 517 976 q 583 1019 569 1011 q 618 1034 597 1026 q 657 1042 639 1042 z "},"ñ":{"ha":856,"x_min":61,"x_max":794,"o":"m 333 851 q 305 793 333 817 q 236 769 276 769 q 161 797 181 769 q 142 881 142 825 q 176 983 142 939 q 269 1028 210 1028 q 377 1008 321 1028 q 464 967 433 988 l 494 946 q 522 1004 494 981 q 592 1028 550 1028 q 667 1001 647 1028 q 686 919 686 974 q 652 815 686 861 q 558 769 618 769 q 464 790 508 769 q 387 831 419 811 q 333 851 354 851 m 490 374 q 429 451 490 451 q 381 427 400 451 q 360 363 363 403 l 360 149 q 325 32 360 64 q 203 0 290 0 q 91 38 121 0 q 61 164 61 76 l 61 506 q 99 619 61 576 q 201 663 138 663 q 290 647 254 663 q 344 594 326 632 q 608 665 453 665 q 751 588 707 665 q 794 332 794 510 q 790 190 794 244 q 777 95 786 135 q 749 36 768 56 q 703 8 729 17 q 638 0 678 0 q 526 29 560 0 q 492 115 492 58 l 490 374 z "},"ò":{"ha":876,"x_min":54,"x_max":824,"o":"m 376 1046 q 310 1064 346 1064 q 231 1021 261 1064 q 201 929 201 978 q 288 826 201 860 l 457 769 q 521 758 492 758 q 588 783 563 758 q 614 842 614 807 q 602 885 614 865 q 578 915 590 906 q 543 940 567 925 q 536 946 539 943 l 376 1046 m 440 -10 q 245 29 332 -10 q 106 146 158 68 q 54 328 54 224 q 163 579 54 486 q 440 672 271 672 q 717 579 610 672 q 824 328 824 486 q 715 81 824 171 q 440 -10 606 -10 m 513 329 q 494 456 513 401 q 442 511 476 511 q 400 483 418 511 q 374 415 382 456 q 365 329 365 375 q 385 205 365 258 q 440 151 404 151 q 494 204 476 151 q 513 329 513 257 z "},"ó":{"ha":876,"x_min":54,"x_max":824,"o":"m 553 1046 q 619 1064 583 1064 q 698 1021 668 1064 q 728 929 728 978 q 642 826 728 860 l 472 769 q 408 758 438 758 q 359 769 381 758 q 326 799 338 781 q 315 842 315 818 q 371 931 315 892 q 393 946 371 931 l 553 1046 m 440 -10 q 245 29 332 -10 q 106 146 158 68 q 54 328 54 224 q 163 579 54 486 q 440 672 271 672 q 717 579 610 672 q 824 328 824 486 q 715 81 824 171 q 440 -10 606 -10 m 513 329 q 494 456 513 401 q 442 511 476 511 q 400 483 418 511 q 374 415 382 456 q 365 329 365 375 q 385 205 365 258 q 440 151 404 151 q 494 204 476 151 q 513 329 513 257 z "},"ô":{"ha":876,"x_min":54,"x_max":824,"o":"m 628 975 q 699 860 699 904 q 667 792 699 821 q 599 764 636 764 q 524 806 565 764 q 511 820 518 813 q 499 833 504 828 q 489 843 494 838 q 480 853 483 849 q 472 861 476 857 q 463 867 467 865 q 456 872 460 869 q 450 876 453 875 q 444 878 447 878 q 436 879 440 879 q 417 872 428 879 q 400 858 407 865 q 378 835 393 851 q 356 810 364 819 q 275 767 314 767 q 205 794 235 767 q 175 860 175 821 q 176 876 175 868 q 182 893 178 885 q 190 908 186 901 q 200 922 193 914 q 210 935 207 931 q 222 949 214 940 q 233 963 231 958 q 435 1074 329 1074 q 519 1056 479 1074 q 578 1022 560 1038 q 628 975 597 1006 m 440 -10 q 245 29 332 -10 q 106 146 158 68 q 54 328 54 224 q 163 579 54 486 q 440 672 271 672 q 717 579 610 672 q 824 328 824 486 q 715 81 824 171 q 440 -10 606 -10 m 513 329 q 494 456 513 401 q 442 511 476 511 q 400 483 418 511 q 374 415 382 456 q 365 329 365 375 q 385 205 365 258 q 440 151 404 151 q 494 204 476 151 q 513 329 513 257 z "},"õ":{"ha":876,"x_min":54,"x_max":824,"o":"m 356 851 q 327 793 356 817 q 258 769 299 769 q 183 797 203 769 q 164 881 164 825 q 198 983 164 939 q 292 1028 232 1028 q 399 1008 343 1028 q 486 967 456 988 l 517 946 q 544 1004 517 981 q 614 1028 572 1028 q 689 1001 669 1028 q 708 919 708 974 q 674 815 708 861 q 581 769 640 769 q 486 790 531 769 q 409 831 442 811 q 356 851 376 851 m 440 -10 q 245 29 332 -10 q 106 146 158 68 q 54 328 54 224 q 163 579 54 486 q 440 672 271 672 q 717 579 610 672 q 824 328 824 486 q 715 81 824 171 q 440 -10 606 -10 m 513 329 q 494 456 513 401 q 442 511 476 511 q 400 483 418 511 q 374 415 382 456 q 365 329 365 375 q 385 205 365 258 q 440 151 404 151 q 494 204 476 151 q 513 329 513 257 z "},"ö":{"ha":876,"x_min":54,"x_max":824,"o":"m 140 839 q 181 762 140 786 q 285 738 223 738 q 393 761 356 738 q 431 839 431 783 q 285 941 431 941 q 178 913 216 941 q 140 839 140 885 m 475 839 q 516 762 475 786 q 620 738 557 738 q 728 761 691 738 q 765 839 765 783 q 620 941 765 941 q 513 913 551 941 q 475 839 475 885 m 440 -10 q 245 29 332 -10 q 106 146 158 68 q 54 328 54 224 q 163 579 54 486 q 440 672 271 672 q 717 579 610 672 q 824 328 824 486 q 715 81 824 171 q 440 -10 606 -10 m 513 329 q 494 456 513 401 q 442 511 476 511 q 400 483 418 511 q 374 415 382 456 q 365 329 365 375 q 385 205 365 258 q 440 151 404 151 q 494 204 476 151 q 513 329 513 257 z "},"÷":{"ha":619,"x_min":6,"x_max":614,"o":"m 178 86 q 217 14 178 36 q 315 -9 256 -9 q 416 13 381 -9 q 451 86 451 34 q 315 182 451 182 q 214 155 249 182 q 178 86 178 129 m 178 580 q 217 507 178 529 q 315 484 256 484 q 416 506 381 484 q 451 580 451 527 q 315 675 451 675 q 214 648 249 675 q 178 580 178 622 m 507 431 q 590 406 567 431 q 614 322 614 382 q 585 251 614 271 q 494 231 557 231 l 118 231 q 6 328 6 231 q 113 431 6 431 l 507 431 z "},"ø":{"ha":876,"x_min":54,"x_max":824,"o":"m 693 646 q 757 681 728 681 q 799 666 782 681 q 817 629 817 651 q 772 560 817 600 l 510 329 l 399 222 l 189 8 q 128 -25 158 -25 q 89 -6 107 -25 q 71 32 71 13 q 78 60 71 49 q 101 86 85 71 l 376 332 l 493 446 l 693 646 m 440 -10 q 245 29 332 -10 q 106 146 158 68 q 54 328 54 224 q 163 579 54 486 q 440 672 271 672 q 717 579 610 672 q 824 328 824 486 q 715 81 824 171 q 440 -10 606 -10 m 513 329 q 494 456 513 401 q 442 511 476 511 q 385 456 406 511 q 365 329 365 400 q 385 205 365 258 q 440 151 404 151 q 474 167 460 151 q 496 208 488 182 q 508 265 504 233 q 513 329 513 296 z "},"ù":{"ha":868,"x_min":64,"x_max":797,"o":"m 365 1046 q 299 1064 335 1064 q 220 1021 250 1064 q 190 929 190 978 q 276 826 190 860 l 446 769 q 510 758 481 758 q 577 783 551 758 q 603 842 603 807 q 591 885 603 865 q 567 915 579 906 q 532 940 556 925 q 525 946 528 943 l 365 1046 m 368 293 q 429 214 368 214 q 466 227 450 214 q 490 264 482 240 q 499 318 499 288 l 499 504 q 515 587 499 551 q 564 642 532 622 q 639 661 596 661 q 756 628 714 661 q 797 508 797 596 l 797 147 q 763 31 797 63 q 640 -1 728 -1 q 576 6 603 -1 q 534 29 550 14 q 510 69 518 44 q 390 17 453 32 q 249 1 326 1 q 107 78 150 1 q 64 332 64 156 q 68 474 64 419 q 81 569 72 529 q 109 628 90 608 q 153 656 128 647 q 221 664 179 664 q 333 635 299 664 q 367 547 367 606 l 368 293 z "},"ú":{"ha":868,"x_min":64,"x_max":797,"o":"m 508 1046 q 575 1064 539 1064 q 653 1021 624 1064 q 683 929 683 978 q 597 826 683 860 l 428 769 q 364 758 393 758 q 315 769 336 758 q 282 799 293 781 q 271 842 271 818 q 326 931 271 892 q 349 946 326 931 l 508 1046 m 368 293 q 429 214 368 214 q 466 227 450 214 q 490 264 482 240 q 499 318 499 288 l 499 504 q 515 587 499 551 q 564 642 532 622 q 639 661 596 661 q 756 628 714 661 q 797 508 797 596 l 797 147 q 763 31 797 63 q 640 -1 728 -1 q 576 6 603 -1 q 534 29 550 14 q 510 69 518 44 q 390 17 453 32 q 249 1 326 1 q 107 78 150 1 q 64 332 64 156 q 68 474 64 419 q 81 569 72 529 q 109 628 90 608 q 153 656 128 647 q 221 664 179 664 q 333 635 299 664 q 367 547 367 606 l 368 293 z "},"û":{"ha":868,"x_min":64,"x_max":797,"o":"m 633 975 q 704 860 704 904 q 673 792 704 821 q 604 764 642 764 q 529 806 571 764 q 517 820 524 813 q 505 833 510 828 q 494 843 500 838 q 485 853 489 849 q 477 861 482 857 q 469 867 472 865 q 462 872 465 869 q 456 876 458 875 q 449 878 453 878 q 442 879 446 879 q 423 872 433 879 q 406 858 413 865 q 384 835 399 851 q 361 810 369 819 q 281 767 319 767 q 210 794 240 767 q 181 860 181 821 q 182 876 181 868 q 188 893 183 885 q 195 908 192 901 q 206 922 199 914 q 216 935 213 931 q 228 949 219 940 q 239 963 236 958 q 440 1074 335 1074 q 525 1056 485 1074 q 584 1022 565 1038 q 633 975 603 1006 m 368 293 q 429 214 368 214 q 466 227 450 214 q 490 264 482 240 q 499 318 499 288 l 499 504 q 515 587 499 551 q 564 642 532 622 q 639 661 596 661 q 756 628 714 661 q 797 508 797 596 l 797 147 q 763 31 797 63 q 640 -1 728 -1 q 576 6 603 -1 q 534 29 550 14 q 510 69 518 44 q 390 17 453 32 q 249 1 326 1 q 107 78 150 1 q 64 332 64 156 q 68 474 64 419 q 81 569 72 529 q 109 628 90 608 q 153 656 128 647 q 221 664 179 664 q 333 635 299 664 q 367 547 367 606 l 368 293 z "},"ü":{"ha":868,"x_min":64,"x_max":797,"o":"m 132 839 q 173 762 132 786 q 277 738 214 738 q 385 761 348 738 q 422 839 422 783 q 277 941 422 941 q 170 913 208 941 q 132 839 132 885 m 466 839 q 508 762 466 786 q 612 738 549 738 q 720 761 682 738 q 757 839 757 783 q 612 941 757 941 q 504 913 542 941 q 466 839 466 885 m 368 293 q 429 214 368 214 q 466 227 450 214 q 490 264 482 240 q 499 318 499 288 l 499 504 q 515 587 499 551 q 564 642 532 622 q 639 661 596 661 q 756 628 714 661 q 797 508 797 596 l 797 147 q 763 31 797 63 q 640 -1 728 -1 q 576 6 603 -1 q 534 29 550 14 q 510 69 518 44 q 390 17 453 32 q 249 1 326 1 q 107 78 150 1 q 64 332 64 156 q 68 474 64 419 q 81 569 72 529 q 109 628 90 608 q 153 656 128 647 q 221 664 179 664 q 333 635 299 664 q 367 547 367 606 l 368 293 z "},"ý":{"ha":843,"x_min":63,"x_max":783,"o":"m 519 1046 q 586 1064 550 1064 q 665 1021 635 1064 q 694 929 694 978 q 608 826 694 860 l 439 769 q 375 758 404 758 q 326 769 347 758 q 293 799 304 781 q 282 842 282 818 q 338 931 282 892 q 360 946 338 931 l 519 1046 m 783 392 q 769 60 783 154 q 735 -87 758 -25 q 668 -197 711 -149 q 558 -268 625 -244 q 400 -292 492 -292 q 263 -270 326 -292 q 163 -217 200 -249 q 106 -156 126 -186 q 85 -103 85 -125 q 99 -62 85 -81 q 139 -43 114 -43 q 181 -54 157 -43 q 228 -79 206 -65 q 281 -104 250 -93 q 340 -115 311 -115 q 447 -78 415 -115 q 478 29 478 -40 q 432 13 454 19 q 389 1 410 6 q 349 -4 368 -3 q 313 -6 331 -6 q 172 40 231 -6 q 88 153 114 86 q 63 299 63 221 q 65 431 63 376 q 74 527 67 485 q 90 594 81 569 q 115 635 99 619 q 153 657 132 651 q 203 663 174 663 q 326 633 290 663 q 361 539 361 603 l 363 315 q 363 283 363 293 q 365 257 363 272 q 370 235 367 242 q 380 220 374 228 q 397 210 386 213 q 422 207 407 207 q 474 230 464 207 q 485 314 485 253 l 486 539 q 501 608 486 582 q 550 649 515 635 q 644 663 585 663 q 706 651 681 663 q 747 620 732 639 q 770 565 763 601 q 781 490 778 528 q 783 392 783 453 z "},"þ":{"ha":903,"x_min":83,"x_max":838,"o":"m 403 -67 q 363 -225 403 -175 q 240 -275 322 -275 q 122 -231 160 -275 q 83 -78 83 -187 l 83 824 q 240 990 83 990 q 362 960 321 990 q 403 836 403 929 l 403 -67 m 365 326 q 388 211 365 260 q 457 163 411 163 q 515 213 494 163 q 536 326 536 263 q 514 447 536 394 q 456 500 492 500 q 388 449 411 500 q 365 326 365 397 m 583 -8 q 333 84 432 -8 q 235 339 235 176 q 261 445 235 388 q 333 553 288 503 q 444 638 378 604 q 583 672 511 672 q 766 578 694 672 q 838 326 838 485 q 765 81 838 171 q 583 -8 693 -8 z "},"ÿ":{"ha":843,"x_min":63,"x_max":783,"o":"m 119 839 q 160 762 119 786 q 264 738 202 738 q 372 761 335 738 q 410 839 410 783 q 264 941 410 941 q 157 913 195 941 q 119 839 119 885 m 454 839 q 495 762 454 786 q 599 738 537 738 q 707 761 670 738 q 745 839 745 783 q 599 941 745 941 q 492 913 530 941 q 454 839 454 885 m 783 392 q 769 60 783 154 q 735 -87 758 -25 q 668 -197 711 -149 q 558 -268 625 -244 q 400 -292 492 -292 q 263 -270 326 -292 q 163 -217 200 -249 q 106 -156 126 -186 q 85 -103 85 -125 q 99 -62 85 -81 q 139 -43 114 -43 q 181 -54 157 -43 q 228 -79 206 -65 q 281 -104 250 -93 q 340 -115 311 -115 q 447 -78 415 -115 q 478 29 478 -40 q 432 13 454 19 q 389 1 410 6 q 349 -4 368 -3 q 313 -6 331 -6 q 172 40 231 -6 q 88 153 114 86 q 63 299 63 221 q 65 431 63 376 q 74 527 67 485 q 90 594 81 569 q 115 635 99 619 q 153 657 132 651 q 203 663 174 663 q 326 633 290 663 q 361 539 361 603 l 363 315 q 363 283 363 293 q 365 257 363 272 q 370 235 367 242 q 380 220 374 228 q 397 210 386 213 q 422 207 407 207 q 474 230 464 207 q 485 314 485 253 l 486 539 q 501 608 486 582 q 550 649 515 635 q 644 663 585 663 q 706 651 681 663 q 747 620 732 639 q 770 565 763 601 q 781 490 778 528 q 783 392 783 453 z "},"Ā":{"ha":989,"x_min":60,"x_max":932,"o":"m 221 1165 q 257 1078 221 1101 q 375 1054 293 1054 l 656 1054 q 747 1083 711 1054 q 782 1163 782 1111 q 751 1251 782 1219 q 644 1283 721 1283 l 356 1283 q 259 1255 297 1283 q 221 1165 221 1226 m 611 211 l 381 211 l 381 138 q 343 33 381 67 q 214 0 306 0 q 150 11 175 0 q 106 49 125 22 q 78 126 88 75 q 65 248 69 176 q 60 429 60 319 q 80 605 60 525 q 134 740 100 685 q 211 838 168 796 q 305 904 254 881 q 403 940 356 928 q 500 951 451 951 q 615 935 558 951 q 731 881 672 919 q 833 784 789 842 q 904 635 876 726 q 932 429 932 543 q 919 158 932 246 q 874 35 906 69 q 778 0 843 0 q 649 33 686 0 q 611 138 611 67 l 611 211 m 497 725 q 409 690 438 725 q 381 567 381 656 l 381 403 l 611 403 l 611 569 q 597 663 611 628 q 559 712 583 699 q 497 725 535 725 z "},"ā":{"ha":867,"x_min":58,"x_max":800,"o":"m 203 867 q 235 789 203 810 q 342 768 268 768 q 469 767 393 768 q 594 767 544 767 q 652 778 626 767 q 693 813 678 790 q 708 864 708 835 q 681 944 708 915 q 585 974 653 974 q 325 974 444 974 q 238 948 272 974 q 203 867 203 922 m 501 460 q 440 500 478 500 q 382 447 404 500 q 360 326 360 394 q 381 213 360 263 q 439 163 401 163 q 501 200 478 163 l 501 460 m 313 -8 q 131 81 203 -8 q 58 326 58 171 q 130 578 58 485 q 313 672 201 672 q 521 593 425 672 q 642 663 558 663 q 758 630 717 663 q 800 510 800 597 l 800 149 q 765 33 800 65 q 643 0 731 0 q 522 51 551 0 q 313 -8 433 -8 z "},"Ă":{"ha":989,"x_min":60,"x_max":932,"o":"m 497 1225 q 458 1242 469 1225 q 447 1297 447 1260 q 336 1371 447 1371 q 211 1268 211 1371 q 233 1160 211 1206 q 294 1091 254 1115 q 384 1056 335 1067 q 497 1044 433 1044 q 786 1268 786 1044 q 660 1371 786 1371 q 550 1297 550 1371 q 497 1225 550 1225 m 611 211 l 381 211 l 381 138 q 343 33 381 67 q 214 0 306 0 q 150 11 175 0 q 106 49 125 22 q 78 126 88 75 q 65 248 69 176 q 60 429 60 319 q 80 605 60 525 q 134 740 100 685 q 211 838 168 796 q 305 904 254 881 q 403 940 356 928 q 500 951 451 951 q 615 935 558 951 q 731 881 672 919 q 833 784 789 842 q 904 635 876 726 q 932 429 932 543 q 919 158 932 246 q 874 35 906 69 q 778 0 843 0 q 649 33 686 0 q 611 138 611 67 l 611 211 m 497 725 q 409 690 438 725 q 381 567 381 656 l 381 403 l 611 403 l 611 569 q 597 663 611 628 q 559 712 583 699 q 497 725 535 725 z "},"ă":{"ha":867,"x_min":58,"x_max":800,"o":"m 460 921 q 425 937 435 921 q 415 986 415 953 q 315 1053 415 1053 q 201 960 201 1053 q 221 863 201 903 q 276 800 240 822 q 358 768 313 778 q 460 758 403 758 q 719 960 719 758 q 607 1053 719 1053 q 507 986 507 1053 q 460 921 507 921 m 501 460 q 440 500 478 500 q 382 447 404 500 q 360 326 360 394 q 381 213 360 263 q 439 163 401 163 q 501 200 478 163 l 501 460 m 313 -8 q 131 81 203 -8 q 58 326 58 171 q 130 578 58 485 q 313 672 201 672 q 521 593 425 672 q 642 663 558 663 q 758 630 717 663 q 800 510 800 597 l 800 149 q 765 33 800 65 q 643 0 731 0 q 522 51 551 0 q 313 -8 433 -8 z "},"Ą":{"ha":989,"x_min":60,"x_max":1031,"o":"m 726 68 l 871 68 q 841 -5 854 36 q 822 -76 828 -46 q 815 -124 815 -107 q 827 -161 815 -146 q 856 -176 839 -176 q 900 -155 874 -176 q 949 -133 926 -133 q 1003 -162 976 -133 q 1031 -222 1031 -192 q 1015 -274 1031 -249 q 925 -347 988 -322 q 808 -371 863 -371 q 664 -321 725 -371 q 603 -190 603 -271 q 637 -58 603 -128 q 726 68 671 11 m 611 211 l 381 211 l 381 138 q 343 33 381 67 q 214 0 306 0 q 150 11 175 0 q 106 49 125 22 q 78 126 88 75 q 65 248 69 176 q 60 429 60 319 q 80 605 60 525 q 134 740 100 685 q 211 838 168 796 q 305 904 254 881 q 403 940 356 928 q 500 951 451 951 q 615 935 558 951 q 731 881 672 919 q 833 784 789 842 q 904 635 876 726 q 932 429 932 543 q 919 158 932 246 q 874 35 906 69 q 778 0 843 0 q 649 33 686 0 q 611 138 611 67 l 611 211 m 497 725 q 409 690 438 725 q 381 567 381 656 l 381 403 l 611 403 l 611 569 q 597 663 611 628 q 559 712 583 699 q 497 725 535 725 z "},"ą":{"ha":867,"x_min":58,"x_max":888,"o":"m 583 17 l 728 17 q 698 -56 711 -15 q 678 -128 685 -97 q 672 -175 672 -158 q 684 -212 672 -197 q 713 -228 696 -228 q 757 -206 731 -228 q 806 -185 783 -185 q 860 -214 833 -185 q 888 -274 888 -243 q 872 -325 888 -300 q 782 -398 844 -374 q 665 -422 719 -422 q 521 -372 582 -422 q 460 -242 460 -322 q 494 -110 460 -179 q 583 17 528 -40 m 501 460 q 440 500 478 500 q 382 447 404 500 q 360 326 360 394 q 381 213 360 263 q 439 163 401 163 q 501 200 478 163 l 501 460 m 313 -8 q 131 81 203 -8 q 58 326 58 171 q 130 578 58 485 q 313 672 201 672 q 521 593 425 672 q 642 663 558 663 q 758 630 717 663 q 800 510 800 597 l 800 149 q 765 33 800 65 q 643 0 731 0 q 522 51 551 0 q 313 -8 433 -8 z "},"Ć":{"ha":1088,"x_min":71,"x_max":1018,"o":"m 594 1357 q 668 1376 628 1376 q 756 1329 722 1376 q 789 1229 789 1282 q 693 1115 789 1151 l 506 1053 q 436 1040 468 1040 q 381 1053 406 1040 q 344 1086 357 1065 q 332 1132 332 1107 q 338 1166 332 1150 q 349 1190 344 1182 q 372 1212 354 1197 q 392 1228 390 1226 q 419 1246 394 1231 l 594 1357 m 657 690 q 633 740 657 719 q 575 761 608 761 q 465 685 508 761 q 422 514 422 610 q 450 381 422 440 q 531 288 478 322 q 653 253 583 253 q 751 273 704 253 q 828 317 799 293 q 888 362 857 342 q 943 382 919 382 q 996 358 974 382 q 1018 307 1018 333 q 1001 239 1018 278 q 946 156 983 200 q 858 76 908 113 q 734 15 808 39 q 578 -10 660 -10 q 377 23 469 -10 q 217 116 285 56 q 110 268 149 176 q 71 474 71 360 q 206 829 71 699 q 558 960 340 960 q 764 922 669 960 q 914 818 858 885 q 969 672 969 751 q 908 506 969 581 q 750 432 847 432 q 650 463 694 432 q 606 550 606 493 q 631 624 606 576 q 657 690 657 671 z "},"ć":{"ha":832,"x_min":57,"x_max":775,"o":"m 503 1058 q 569 1076 533 1076 q 648 1033 618 1076 q 678 942 678 990 q 592 839 678 872 l 422 782 q 358 771 388 771 q 309 782 331 771 q 276 812 288 793 q 265 854 265 831 q 321 943 265 904 q 343 958 321 943 l 503 1058 m 475 519 q 439 551 475 551 q 392 522 413 551 q 360 449 371 493 q 349 358 349 406 q 391 246 349 289 q 506 203 433 203 q 628 219 576 203 q 678 240 649 225 q 721 256 708 256 q 753 249 740 256 q 770 232 765 242 q 775 211 775 222 q 762 164 775 192 q 721 106 749 136 q 656 49 693 75 q 565 7 619 24 q 451 -10 511 -10 q 168 83 279 -10 q 57 336 57 175 q 108 516 57 439 q 247 633 158 593 q 451 672 336 672 q 633 647 561 672 q 735 578 704 621 q 765 475 765 535 q 755 421 765 449 q 723 365 744 393 q 660 320 701 338 q 563 303 618 303 q 522 306 538 303 q 488 317 506 308 q 463 347 471 326 q 454 400 454 368 q 465 467 454 428 q 475 519 475 507 z "},"Ĉ":{"ha":1088,"x_min":71,"x_max":1018,"o":"m 768 1258 q 843 1136 843 1183 q 810 1066 843 1096 q 738 1036 776 1036 q 658 1081 701 1036 q 620 1124 642 1097 q 588 1160 599 1150 q 567 1169 578 1169 q 543 1158 556 1169 q 513 1122 531 1146 q 482 1085 494 1097 q 397 1039 438 1039 q 323 1067 354 1039 q 292 1136 292 1096 q 293 1155 292 1146 q 299 1172 294 1164 q 307 1188 303 1181 q 318 1203 311 1194 q 329 1217 325 1213 q 341 1231 333 1222 q 353 1244 349 1240 q 565 1363 454 1363 q 631 1353 600 1363 q 688 1326 661 1344 q 730 1294 715 1307 q 768 1258 744 1282 m 657 690 q 633 740 657 719 q 575 761 608 761 q 465 685 508 761 q 422 514 422 610 q 450 381 422 440 q 531 288 478 322 q 653 253 583 253 q 751 273 704 253 q 828 317 799 293 q 888 362 857 342 q 943 382 919 382 q 996 358 974 382 q 1018 307 1018 333 q 1001 239 1018 278 q 946 156 983 200 q 858 76 908 113 q 734 15 808 39 q 578 -10 660 -10 q 377 23 469 -10 q 217 116 285 56 q 110 268 149 176 q 71 474 71 360 q 206 829 71 699 q 558 960 340 960 q 764 922 669 960 q 914 818 858 885 q 969 672 969 751 q 908 506 969 581 q 750 432 847 432 q 650 463 694 432 q 606 550 606 493 q 631 624 606 576 q 657 690 657 671 z "},"ĉ":{"ha":832,"x_min":57,"x_max":775,"o":"m 625 975 q 696 860 696 904 q 665 792 696 821 q 596 764 633 764 q 521 806 563 764 q 508 820 515 813 q 497 833 501 828 q 486 843 492 838 q 477 853 481 849 q 469 861 474 857 q 460 867 464 865 q 453 872 457 869 q 447 876 450 875 q 441 878 444 878 q 433 879 438 879 q 415 872 425 879 q 397 858 404 865 q 376 835 390 851 q 353 810 361 819 q 272 767 311 767 q 202 794 232 767 q 172 860 172 821 q 174 876 172 868 q 179 893 175 885 q 187 908 183 901 q 197 922 190 914 q 208 935 204 931 q 219 949 211 940 q 231 963 228 958 q 432 1074 326 1074 q 517 1056 476 1074 q 576 1022 557 1038 q 625 975 594 1006 m 475 519 q 439 551 475 551 q 392 522 413 551 q 360 449 371 493 q 349 358 349 406 q 391 246 349 289 q 506 203 433 203 q 628 219 576 203 q 678 240 649 225 q 721 256 708 256 q 753 249 740 256 q 770 232 765 242 q 775 211 775 222 q 762 164 775 192 q 721 106 749 136 q 656 49 693 75 q 565 7 619 24 q 451 -10 511 -10 q 168 83 279 -10 q 57 336 57 175 q 108 516 57 439 q 247 633 158 593 q 451 672 336 672 q 633 647 561 672 q 735 578 704 621 q 765 475 765 535 q 755 421 765 449 q 723 365 744 393 q 660 320 701 338 q 563 303 618 303 q 522 306 538 303 q 488 317 506 308 q 463 347 471 326 q 454 400 454 368 q 465 467 454 428 q 475 519 475 507 z "},"Č":{"ha":1088,"x_min":71,"x_max":1018,"o":"m 765 1153 q 849 1289 849 1236 q 812 1367 849 1333 q 732 1401 775 1401 q 644 1351 692 1401 q 624 1328 636 1342 q 605 1309 611 1315 q 590 1294 599 1303 q 576 1281 581 1285 q 565 1273 571 1278 q 553 1267 558 1268 q 542 1265 547 1265 q 520 1273 532 1265 q 500 1289 508 1281 q 474 1317 492 1297 q 447 1346 457 1336 q 354 1397 399 1397 q 271 1365 306 1397 q 236 1289 236 1333 q 240 1264 236 1276 q 247 1243 243 1251 q 259 1222 250 1235 q 273 1204 268 1210 q 290 1185 278 1199 q 304 1168 301 1172 q 540 1038 417 1038 q 613 1047 579 1038 q 677 1078 647 1057 q 724 1113 707 1099 q 765 1153 740 1128 m 657 690 q 633 740 657 719 q 575 761 608 761 q 465 685 508 761 q 422 514 422 610 q 450 381 422 440 q 531 288 478 322 q 653 253 583 253 q 751 273 704 253 q 828 317 799 293 q 888 362 857 342 q 943 382 919 382 q 996 358 974 382 q 1018 307 1018 333 q 1001 239 1018 278 q 946 156 983 200 q 858 76 908 113 q 734 15 808 39 q 578 -10 660 -10 q 377 23 469 -10 q 217 116 285 56 q 110 268 149 176 q 71 474 71 360 q 206 829 71 699 q 558 960 340 960 q 764 922 669 960 q 914 818 858 885 q 969 672 969 751 q 908 506 969 581 q 750 432 847 432 q 650 463 694 432 q 606 550 606 493 q 631 624 606 576 q 657 690 657 671 z "},"č":{"ha":832,"x_min":57,"x_max":775,"o":"m 647 879 q 722 1000 722 953 q 690 1072 722 1042 q 617 1101 657 1101 q 538 1057 582 1101 q 519 1037 531 1049 q 503 1019 508 1025 q 490 1005 497 1013 q 477 994 482 997 q 467 986 472 990 q 456 981 461 982 q 446 981 451 981 q 433 983 440 981 q 421 990 426 986 q 408 1002 415 994 q 394 1017 400 1010 q 378 1034 388 1024 q 361 1053 368 1044 q 276 1099 317 1099 q 202 1069 233 1099 q 171 1000 171 1040 q 173 983 171 992 q 179 965 175 974 q 187 949 183 956 q 197 934 190 943 q 208 920 204 925 q 221 906 213 915 q 232 893 229 896 q 444 775 333 775 q 501 782 474 775 q 546 798 528 789 q 586 824 564 807 q 619 850 608 840 q 647 879 629 860 m 475 519 q 439 551 475 551 q 392 522 413 551 q 360 449 371 493 q 349 358 349 406 q 391 246 349 289 q 506 203 433 203 q 628 219 576 203 q 678 240 649 225 q 721 256 708 256 q 753 249 740 256 q 770 232 765 242 q 775 211 775 222 q 762 164 775 192 q 721 106 749 136 q 656 49 693 75 q 565 7 619 24 q 451 -10 511 -10 q 168 83 279 -10 q 57 336 57 175 q 108 516 57 439 q 247 633 158 593 q 451 672 336 672 q 633 647 561 672 q 735 578 704 621 q 765 475 765 535 q 755 421 765 449 q 723 365 744 393 q 660 320 701 338 q 563 303 618 303 q 522 306 538 303 q 488 317 506 308 q 463 347 471 326 q 454 400 454 368 q 465 467 454 428 q 475 519 475 507 z "},"Ď":{"ha":1000,"x_min":94,"x_max":936,"o":"m 692 1153 q 775 1289 775 1236 q 738 1367 775 1333 q 658 1401 701 1401 q 571 1351 618 1401 q 550 1328 563 1342 q 531 1309 538 1315 q 516 1294 525 1303 q 502 1281 507 1285 q 491 1273 497 1278 q 479 1267 485 1268 q 468 1265 474 1265 q 447 1273 458 1265 q 426 1289 435 1281 q 401 1317 418 1297 q 374 1346 383 1336 q 281 1397 325 1397 q 197 1365 232 1397 q 163 1289 163 1333 q 166 1264 163 1276 q 173 1243 169 1251 q 185 1222 176 1235 q 199 1204 194 1210 q 216 1185 204 1199 q 231 1168 228 1172 q 467 1038 343 1038 q 540 1047 506 1038 q 603 1078 574 1057 q 650 1113 633 1099 q 692 1153 667 1128 m 457 950 q 805 825 674 950 q 936 481 936 700 q 923 343 936 410 q 879 213 910 276 q 803 103 849 150 q 686 28 757 57 q 526 0 615 0 l 253 0 q 131 43 168 0 q 94 199 94 86 l 94 785 q 253 950 94 950 l 457 950 m 415 189 q 478 197 451 189 q 530 224 506 204 q 569 278 554 244 q 594 363 585 311 q 603 486 603 415 q 589 620 603 565 q 549 703 575 675 q 491 744 522 732 q 415 757 460 756 l 415 189 z "},"ď":{"ha":1243,"x_min":58,"x_max":1193,"o":"m 874 840 q 916 760 874 786 q 1024 735 958 735 q 972 677 1001 699 q 881 625 943 656 q 860 585 860 615 q 874 548 860 563 q 914 533 889 533 q 975 544 940 533 q 1048 579 1010 556 q 1119 635 1086 603 q 1172 714 1151 667 q 1193 814 1193 761 q 1146 915 1193 885 q 1024 946 1099 946 q 913 917 951 946 q 874 840 874 888 m 501 200 l 500 460 q 439 499 476 499 q 397 472 415 499 q 368 407 378 446 q 358 325 358 368 q 379 211 358 261 q 438 161 400 161 q 451 163 444 161 q 464 166 458 164 q 475 172 469 168 q 485 179 481 175 q 493 189 489 183 q 501 200 497 194 m 804 208 q 767 48 804 96 q 651 0 729 0 q 529 56 563 0 q 311 -10 439 -10 q 131 80 203 -10 q 58 325 58 169 q 129 577 58 483 q 311 671 200 671 q 499 607 411 671 l 499 785 q 540 910 499 869 q 651 951 582 951 q 766 921 728 951 q 804 797 804 890 l 804 208 z "},"Đ":{"ha":1000,"x_min":-17,"x_max":936,"o":"m 415 189 q 478 197 451 189 q 530 224 506 204 q 569 278 554 244 q 594 363 585 311 q 603 486 603 415 q 589 620 603 565 q 549 703 575 675 q 491 744 522 732 q 415 757 460 756 l 415 558 q 499 529 475 554 q 524 449 524 504 q 512 400 524 419 q 476 371 500 381 q 415 358 453 361 l 415 189 m 457 950 q 805 825 674 950 q 936 481 936 700 q 923 343 936 410 q 879 213 910 276 q 803 103 849 150 q 686 28 757 57 q 526 0 615 0 l 253 0 q 131 43 168 0 q 94 199 94 86 l 94 357 q -17 454 -17 358 q 94 558 -17 554 l 94 785 q 253 950 94 950 l 457 950 z "},"đ":{"ha":868,"x_min":58,"x_max":860,"o":"m 860 807 q 790 736 860 736 q 716 747 786 736 q 592 757 646 757 q 496 752 550 757 q 404 742 442 747 q 365 738 367 738 q 317 756 336 738 q 299 804 299 775 q 383 886 299 886 l 776 886 q 839 868 818 886 q 860 807 860 850 m 501 200 l 500 460 q 439 499 476 499 q 381 446 403 499 q 358 325 358 393 q 379 211 358 261 q 438 161 400 161 q 501 200 478 161 m 804 208 q 767 48 804 96 q 651 0 729 0 q 529 56 563 0 q 311 -10 439 -10 q 131 80 203 -10 q 58 325 58 169 q 129 577 58 483 q 311 671 200 671 q 499 607 411 671 l 499 785 q 540 910 499 869 q 651 951 582 951 q 766 921 728 951 q 804 797 804 890 l 804 208 z "},"Ē":{"ha":933,"x_min":96,"x_max":864,"o":"m 192 1165 q 228 1078 192 1101 q 346 1054 264 1054 l 626 1054 q 717 1083 682 1054 q 753 1163 753 1111 q 722 1251 753 1219 q 615 1283 692 1283 l 326 1283 q 230 1255 268 1283 q 192 1165 192 1226 m 654 564 q 758 540 728 564 q 788 460 788 517 q 752 392 788 413 q 642 372 717 372 l 417 372 l 417 225 l 718 224 q 830 201 796 224 q 864 119 864 178 q 824 26 864 53 q 704 0 785 0 l 254 0 q 134 44 172 0 q 96 199 96 88 l 96 785 q 254 951 96 951 l 704 951 q 824 926 785 951 q 864 836 864 901 q 830 751 864 775 q 718 726 796 726 l 415 726 l 415 564 l 654 564 z "},"ē":{"ha":826,"x_min":56,"x_max":775,"o":"m 185 867 q 217 789 185 810 q 324 768 250 768 q 451 767 375 768 q 576 767 526 767 q 634 778 608 767 q 675 813 660 790 q 690 864 690 835 q 663 944 690 915 q 567 974 635 974 q 307 974 426 974 q 219 948 254 974 q 185 867 185 922 m 351 389 q 456 390 447 390 q 486 415 476 390 q 493 465 493 433 q 440 553 493 553 q 402 532 421 553 q 369 473 383 511 q 351 389 356 435 m 446 -8 q 166 79 276 -8 q 56 318 56 167 q 165 577 56 482 q 446 672 274 672 q 684 615 608 672 q 760 457 760 557 q 755 419 760 438 q 740 384 750 401 q 712 352 729 367 q 672 326 694 338 q 619 308 650 314 q 554 301 589 301 l 358 300 q 408 230 372 256 q 500 204 444 204 q 622 219 560 204 q 680 242 649 226 q 725 257 711 257 q 762 243 749 257 q 775 208 775 229 q 753 148 775 183 q 691 77 731 113 q 586 17 651 42 q 446 -8 521 -8 z "},"Ĕ":{"ha":933,"x_min":96,"x_max":864,"o":"m 475 1225 q 436 1242 447 1225 q 425 1297 425 1260 q 314 1371 425 1371 q 189 1268 189 1371 q 210 1160 189 1206 q 272 1091 232 1115 q 362 1056 313 1067 q 475 1044 411 1044 q 764 1268 764 1044 q 638 1371 764 1371 q 528 1297 528 1371 q 475 1225 528 1225 m 654 564 q 758 540 728 564 q 788 460 788 517 q 752 392 788 413 q 642 372 717 372 l 417 372 l 417 225 l 718 224 q 830 201 796 224 q 864 119 864 178 q 824 26 864 53 q 704 0 785 0 l 254 0 q 134 44 172 0 q 96 199 96 88 l 96 785 q 254 951 96 951 l 704 951 q 824 926 785 951 q 864 836 864 901 q 830 751 864 775 q 718 726 796 726 l 415 726 l 415 564 l 654 564 z "},"ĕ":{"ha":826,"x_min":56,"x_max":775,"o":"m 444 921 q 410 937 419 921 q 400 986 400 953 q 300 1053 400 1053 q 186 960 186 1053 q 206 863 186 903 q 261 800 225 822 q 342 768 297 778 q 444 758 388 758 q 704 960 704 758 q 592 1053 704 1053 q 492 986 492 1053 q 444 921 492 921 m 351 389 q 456 390 447 390 q 486 415 476 390 q 493 465 493 433 q 440 553 493 553 q 402 532 421 553 q 369 473 383 511 q 351 389 356 435 m 446 -8 q 166 79 276 -8 q 56 318 56 167 q 165 577 56 482 q 446 672 274 672 q 684 615 608 672 q 760 457 760 557 q 755 419 760 438 q 740 384 750 401 q 712 352 729 367 q 672 326 694 338 q 619 308 650 314 q 554 301 589 301 l 358 300 q 408 230 372 256 q 500 204 444 204 q 622 219 560 204 q 680 242 649 226 q 725 257 711 257 q 762 243 749 257 q 775 208 775 229 q 753 148 775 183 q 691 77 731 113 q 586 17 651 42 q 446 -8 521 -8 z "},"Ė":{"ha":933,"x_min":96,"x_max":864,"o":"m 306 1146 q 328 1084 306 1108 q 383 1050 351 1060 q 457 1040 415 1040 q 569 1064 531 1040 q 608 1146 608 1088 q 457 1251 608 1251 q 345 1222 385 1251 q 306 1146 306 1193 m 654 564 q 758 540 728 564 q 788 460 788 517 q 752 392 788 413 q 642 372 717 372 l 417 372 l 417 225 l 718 224 q 830 201 796 224 q 864 119 864 178 q 824 26 864 53 q 704 0 785 0 l 254 0 q 134 44 172 0 q 96 199 96 88 l 96 785 q 254 951 96 951 l 704 951 q 824 926 785 951 q 864 836 864 901 q 830 751 864 775 q 718 726 796 726 l 415 726 l 415 564 l 654 564 z "},"ė":{"ha":826,"x_min":56,"x_max":775,"o":"m 351 389 q 456 390 447 390 q 486 415 476 390 q 493 465 493 433 q 440 553 493 553 q 402 532 421 553 q 369 473 383 511 q 351 389 356 435 m 446 -8 q 166 79 276 -8 q 56 318 56 167 q 165 577 56 482 q 446 672 274 672 q 684 615 608 672 q 760 457 760 557 q 755 419 760 438 q 740 384 750 401 q 712 352 729 367 q 672 326 694 338 q 619 308 650 314 q 554 301 589 301 l 358 300 q 408 230 372 256 q 500 204 444 204 q 622 219 560 204 q 680 242 649 226 q 725 257 711 257 q 762 243 749 257 q 775 208 775 229 q 753 148 775 183 q 691 77 731 113 q 586 17 651 42 q 446 -8 521 -8 z "},"Ę":{"ha":933,"x_min":96,"x_max":1024,"o":"m 719 97 l 864 97 q 834 24 847 65 q 815 -47 821 -17 q 808 -94 808 -78 q 820 -132 808 -117 q 849 -147 832 -147 q 893 -126 867 -147 q 942 -104 919 -104 q 997 -133 969 -104 q 1024 -193 1024 -162 q 1008 -244 1024 -219 q 918 -317 981 -293 q 801 -342 856 -342 q 657 -292 718 -342 q 596 -161 596 -242 q 630 -29 596 -99 q 719 97 664 40 m 654 564 q 758 540 728 564 q 788 460 788 517 q 752 392 788 413 q 642 372 717 372 l 417 372 l 417 225 l 718 224 q 830 201 796 224 q 864 119 864 178 q 824 26 864 53 q 704 0 785 0 l 254 0 q 134 44 172 0 q 96 199 96 88 l 96 785 q 254 951 96 951 l 704 951 q 824 926 785 951 q 864 836 864 901 q 830 751 864 775 q 718 726 796 726 l 415 726 l 415 564 l 654 564 z "},"ę":{"ha":826,"x_min":56,"x_max":815,"o":"m 511 97 l 656 97 q 626 24 639 65 q 606 -47 613 -17 q 600 -94 600 -78 q 612 -132 600 -117 q 640 -147 624 -147 q 685 -126 658 -147 q 733 -104 711 -104 q 788 -133 761 -104 q 815 -193 815 -162 q 800 -244 815 -219 q 710 -317 772 -293 q 593 -342 647 -342 q 449 -292 510 -342 q 388 -161 388 -242 q 422 -29 388 -99 q 511 97 456 40 m 351 389 q 456 390 447 390 q 486 415 476 390 q 493 465 493 433 q 440 553 493 553 q 402 532 421 553 q 369 473 383 511 q 351 389 356 435 m 446 -8 q 166 79 276 -8 q 56 318 56 167 q 165 577 56 482 q 446 672 274 672 q 684 615 608 672 q 760 457 760 557 q 755 419 760 438 q 740 384 750 401 q 712 352 729 367 q 672 326 694 338 q 619 308 650 314 q 554 301 589 301 l 358 300 q 408 230 372 256 q 500 204 444 204 q 622 219 560 204 q 680 242 649 226 q 725 257 711 257 q 762 243 749 257 q 775 208 775 229 q 753 148 775 183 q 691 77 731 113 q 586 17 651 42 q 446 -8 521 -8 z "},"Ě":{"ha":933,"x_min":96,"x_max":864,"o":"m 683 1153 q 767 1289 767 1236 q 730 1367 767 1333 q 650 1401 693 1401 q 563 1351 610 1401 q 542 1328 554 1342 q 523 1309 529 1315 q 508 1294 517 1303 q 494 1281 499 1285 q 483 1273 489 1278 q 471 1267 476 1268 q 460 1265 465 1265 q 438 1273 450 1265 q 418 1289 426 1281 q 392 1317 410 1297 q 365 1346 375 1336 q 272 1397 317 1397 q 189 1365 224 1397 q 154 1289 154 1333 q 158 1264 154 1276 q 165 1243 161 1251 q 177 1222 168 1235 q 191 1204 186 1210 q 208 1185 196 1199 q 222 1168 219 1172 q 458 1038 335 1038 q 531 1047 497 1038 q 595 1078 565 1057 q 642 1113 625 1099 q 683 1153 658 1128 m 654 564 q 758 540 728 564 q 788 460 788 517 q 752 392 788 413 q 642 372 717 372 l 417 372 l 417 225 l 718 224 q 830 201 796 224 q 864 119 864 178 q 824 26 864 53 q 704 0 785 0 l 254 0 q 134 44 172 0 q 96 199 96 88 l 96 785 q 254 951 96 951 l 704 951 q 824 926 785 951 q 864 836 864 901 q 830 751 864 775 q 718 726 796 726 l 415 726 l 415 564 l 654 564 z "},"ě":{"ha":826,"x_min":56,"x_max":775,"o":"m 619 878 q 694 999 694 951 q 662 1070 694 1040 q 589 1100 629 1100 q 510 1056 554 1100 q 492 1035 503 1047 q 475 1017 481 1024 q 462 1003 469 1011 q 449 992 454 996 q 439 985 444 989 q 428 980 433 981 q 418 979 424 979 q 406 982 413 979 q 393 989 399 985 q 380 1001 388 993 q 366 1015 372 1008 q 350 1033 360 1022 q 333 1051 340 1043 q 249 1097 289 1097 q 174 1068 206 1097 q 143 999 143 1039 q 145 981 143 990 q 151 963 147 972 q 159 948 156 954 q 169 933 163 942 q 181 919 176 924 q 193 904 185 914 q 204 892 201 894 q 417 774 306 774 q 473 781 446 774 q 518 797 500 788 q 558 822 536 806 q 591 849 581 839 q 619 878 601 858 m 351 389 q 456 390 447 390 q 486 415 476 390 q 493 465 493 433 q 440 553 493 553 q 402 532 421 553 q 369 473 383 511 q 351 389 356 435 m 446 -8 q 166 79 276 -8 q 56 318 56 167 q 165 577 56 482 q 446 672 274 672 q 684 615 608 672 q 760 457 760 557 q 755 419 760 438 q 740 384 750 401 q 712 352 729 367 q 672 326 694 338 q 619 308 650 314 q 554 301 589 301 l 358 300 q 408 230 372 256 q 500 204 444 204 q 622 219 560 204 q 680 242 649 226 q 725 257 711 257 q 762 243 749 257 q 775 208 775 229 q 753 148 775 183 q 691 77 731 113 q 586 17 651 42 q 446 -8 521 -8 z "},"Ğ":{"ha":1086,"x_min":71,"x_max":1018,"o":"m 544 1225 q 506 1242 517 1225 q 494 1297 494 1260 q 383 1371 494 1371 q 258 1268 258 1371 q 280 1160 258 1206 q 342 1091 301 1115 q 431 1056 382 1067 q 544 1044 481 1044 q 833 1268 833 1044 q 707 1371 833 1371 q 597 1297 597 1371 q 544 1225 597 1225 m 628 718 q 571 761 628 761 q 471 696 513 761 q 429 478 429 631 q 477 272 429 336 q 590 207 525 207 q 628 215 611 207 q 657 240 646 224 q 668 281 668 257 q 610 293 635 281 q 575 324 586 306 q 564 365 564 343 q 590 440 564 415 q 681 465 617 465 l 849 465 q 974 431 929 465 q 1018 308 1018 396 q 896 85 1018 181 q 606 -10 774 -10 q 331 46 451 -10 q 141 212 211 101 q 71 474 71 322 q 207 829 71 699 q 568 960 343 960 q 728 947 657 960 q 845 911 799 933 q 923 858 892 889 q 967 792 954 826 q 981 719 981 757 q 972 669 981 693 q 942 620 964 644 q 876 581 921 596 q 769 565 832 565 q 653 592 678 565 q 628 718 628 619 z "},"ğ":{"ha":867,"x_min":63,"x_max":803,"o":"m 453 922 q 418 938 428 922 q 408 988 408 954 q 308 1054 408 1054 q 194 961 194 1054 q 214 864 194 904 q 269 801 233 824 q 351 769 306 779 q 453 760 396 760 q 713 961 713 760 q 600 1054 713 1054 q 500 988 500 1054 q 453 922 500 922 m 506 200 l 504 463 q 444 501 481 501 q 401 475 419 501 q 373 410 382 449 q 364 328 364 371 q 385 213 364 263 q 443 164 406 164 q 506 200 481 164 m 317 -8 q 135 81 207 -8 q 63 328 63 171 q 133 579 63 486 q 315 672 204 672 q 524 594 428 672 q 643 663 560 663 q 760 629 718 663 q 803 510 803 596 l 803 256 q 785 24 803 121 q 726 -146 768 -72 q 609 -256 683 -219 q 426 -292 535 -292 q 288 -271 351 -292 q 186 -219 224 -250 q 128 -158 149 -189 q 107 -106 107 -128 q 122 -61 107 -79 q 165 -43 138 -43 q 249 -79 182 -43 q 358 -115 317 -115 q 500 31 500 -115 q 317 -8 419 -8 z "},"Ġ":{"ha":1086,"x_min":71,"x_max":1018,"o":"m 628 718 q 571 761 628 761 q 471 696 513 761 q 429 478 429 631 q 477 272 429 336 q 590 207 525 207 q 628 215 611 207 q 657 240 646 224 q 668 281 668 257 q 610 293 635 281 q 575 324 586 306 q 564 365 564 343 q 590 440 564 415 q 681 465 617 465 l 849 465 q 974 431 929 465 q 1018 308 1018 396 q 896 85 1018 181 q 606 -10 774 -10 q 331 46 451 -10 q 141 212 211 101 q 71 474 71 322 q 207 829 71 699 q 568 960 343 960 q 728 947 657 960 q 845 911 799 933 q 923 858 892 889 q 967 792 954 826 q 981 719 981 757 q 972 669 981 693 q 942 620 964 644 q 876 581 921 596 q 769 565 832 565 q 653 592 678 565 q 628 718 628 619 z "},"ġ":{"ha":867,"x_min":63,"x_max":803,"o":"m 506 200 l 504 463 q 444 501 481 501 q 401 475 419 501 q 373 410 382 449 q 364 328 364 371 q 385 213 364 263 q 443 164 406 164 q 506 200 481 164 m 317 -8 q 135 81 207 -8 q 63 328 63 171 q 133 579 63 486 q 315 672 204 672 q 524 594 428 672 q 643 663 560 663 q 760 629 718 663 q 803 510 803 596 l 803 256 q 785 24 803 121 q 726 -146 768 -72 q 609 -256 683 -219 q 426 -292 535 -292 q 288 -271 351 -292 q 186 -219 224 -250 q 128 -158 149 -189 q 107 -106 107 -128 q 122 -61 107 -79 q 165 -43 138 -43 q 249 -79 182 -43 q 358 -115 317 -115 q 500 31 500 -115 q 317 -8 419 -8 z "},"Ģ":{"ha":1086,"x_min":71,"x_max":1018,"o":"m 435 -199 q 451 -144 435 -168 q 502 -107 468 -121 q 585 -93 536 -93 q 707 -124 660 -93 q 754 -226 754 -154 q 733 -326 754 -279 q 680 -406 713 -374 q 609 -460 647 -437 q 536 -494 571 -483 q 475 -506 501 -506 q 435 -491 450 -506 q 421 -454 421 -476 q 442 -415 421 -425 q 533 -362 504 -385 q 585 -304 563 -340 q 477 -279 519 -304 q 435 -199 435 -254 m 628 718 q 571 761 628 761 q 471 696 513 761 q 429 478 429 631 q 477 272 429 336 q 590 207 525 207 q 628 215 611 207 q 657 240 646 224 q 668 281 668 257 q 610 293 635 281 q 575 324 586 306 q 564 365 564 343 q 590 440 564 415 q 681 465 617 465 l 849 465 q 974 431 929 465 q 1018 308 1018 396 q 896 85 1018 181 q 606 -10 774 -10 q 331 46 451 -10 q 141 212 211 101 q 71 474 71 322 q 207 829 71 699 q 568 960 343 960 q 728 947 657 960 q 845 911 799 933 q 923 858 892 889 q 967 792 954 826 q 981 719 981 757 q 972 669 981 693 q 942 620 964 644 q 876 581 921 596 q 769 565 832 565 q 653 592 678 565 q 628 718 628 619 z "},"ģ":{"ha":867,"x_min":63,"x_max":803,"o":"m 610 835 q 567 915 610 889 q 460 940 525 940 q 511 998 482 976 q 603 1050 540 1019 q 624 1090 624 1060 q 609 1127 624 1113 q 569 1142 594 1142 q 508 1131 543 1142 q 435 1096 474 1119 q 365 1040 397 1072 q 311 961 332 1008 q 290 861 290 914 q 338 760 290 790 q 460 729 385 729 q 571 758 532 729 q 610 835 610 788 m 506 200 l 504 463 q 444 501 481 501 q 401 475 419 501 q 373 410 382 449 q 364 328 364 371 q 385 213 364 263 q 443 164 406 164 q 506 200 481 164 m 317 -8 q 135 81 207 -8 q 63 328 63 171 q 133 579 63 486 q 315 672 204 672 q 524 594 428 672 q 643 663 560 663 q 760 629 718 663 q 803 510 803 596 l 803 256 q 785 24 803 121 q 726 -146 768 -72 q 609 -256 683 -219 q 426 -292 535 -292 q 288 -271 351 -292 q 186 -219 224 -250 q 128 -158 149 -189 q 107 -106 107 -128 q 122 -61 107 -79 q 165 -43 138 -43 q 249 -79 182 -43 q 358 -115 317 -115 q 500 31 500 -115 q 317 -8 419 -8 z "},"Ĩ":{"ha":506,"x_min":-24,"x_max":549,"o":"m 178 1126 q 148 1065 178 1090 q 76 1040 118 1040 q 25 1049 46 1040 q -6 1074 4 1057 q -20 1109 -17 1090 q -24 1156 -24 1128 q 12 1265 -24 1218 q 110 1311 47 1311 q 346 1226 224 1311 q 354 1258 346 1243 q 376 1285 363 1274 q 408 1304 389 1297 q 449 1311 428 1311 q 528 1283 507 1311 q 549 1197 549 1254 q 513 1088 549 1136 q 414 1040 478 1040 q 333 1053 372 1040 q 271 1083 294 1067 q 222 1113 247 1099 q 178 1126 196 1126 m 417 208 q 376 50 417 100 q 254 0 336 0 q 135 43 174 0 q 97 197 97 86 l 97 785 q 254 951 97 951 q 376 921 335 951 q 417 797 417 890 l 417 208 z "},"ĩ":{"ha":393,"x_min":-83,"x_max":461,"o":"m 108 851 q 80 793 108 817 q 11 769 51 769 q -64 797 -44 769 q -83 881 -83 825 q -49 983 -83 939 q 44 1028 -15 1028 q 152 1008 96 1028 q 239 967 208 988 l 269 946 q 297 1004 269 981 q 367 1028 325 1028 q 442 1001 422 1028 q 461 919 461 974 q 427 815 461 861 q 333 769 393 769 q 239 790 283 769 q 162 831 194 811 q 108 851 129 851 m 346 149 q 311 33 346 65 q 189 0 276 0 q 101 19 132 0 q 58 72 69 38 q 47 164 47 106 l 47 506 q 85 619 47 576 q 188 663 124 663 q 304 630 263 663 q 346 510 346 597 l 346 149 z "},"Ī":{"ha":506,"x_min":-24,"x_max":538,"o":"m -24 1165 q 13 1078 -24 1101 q 131 1054 49 1054 l 411 1054 q 502 1083 467 1054 q 538 1163 538 1111 q 507 1251 538 1219 q 400 1283 476 1283 l 111 1283 q 15 1255 53 1283 q -24 1165 -24 1226 m 417 208 q 376 50 417 100 q 254 0 336 0 q 135 43 174 0 q 97 197 97 86 l 97 785 q 254 951 97 951 q 376 921 335 951 q 417 797 417 890 l 417 208 z "},"ī":{"ha":393,"x_min":-61,"x_max":444,"o":"m -61 867 q -28 789 -61 810 q 78 768 4 768 q 205 767 129 768 q 331 767 281 767 q 388 778 363 767 q 429 813 414 790 q 444 864 444 835 q 417 944 444 915 q 321 974 389 974 q 61 974 181 974 q -26 948 8 974 q -61 867 -61 922 m 346 149 q 311 33 346 65 q 189 0 276 0 q 101 19 132 0 q 58 72 69 38 q 47 164 47 106 l 47 506 q 85 619 47 576 q 188 663 124 663 q 304 630 263 663 q 346 510 346 597 l 346 149 z "},"Į":{"ha":506,"x_min":97,"x_max":560,"o":"m 256 97 l 400 97 q 370 24 383 65 q 351 -47 357 -17 q 344 -94 344 -78 q 356 -132 344 -117 q 385 -147 368 -147 q 429 -126 403 -147 q 478 -104 456 -104 q 533 -133 506 -104 q 560 -193 560 -162 q 544 -244 560 -219 q 454 -317 517 -293 q 338 -342 392 -342 q 193 -292 254 -342 q 132 -161 132 -242 q 166 -29 132 -99 q 256 97 200 40 m 417 208 q 376 50 417 100 q 254 0 336 0 q 135 43 174 0 q 97 197 97 86 l 97 785 q 254 951 97 951 q 376 921 335 951 q 417 797 417 890 l 417 208 z "},"į":{"ha":424,"x_min":60,"x_max":519,"o":"m 215 97 l 360 97 q 330 24 343 65 q 310 -47 317 -17 q 304 -94 304 -78 q 316 -132 304 -117 q 344 -147 328 -147 q 389 -126 363 -147 q 438 -104 415 -104 q 492 -133 465 -104 q 519 -193 519 -162 q 504 -244 519 -219 q 414 -317 476 -293 q 297 -342 351 -342 q 153 -292 214 -342 q 92 -161 92 -242 q 126 -29 92 -99 q 215 97 160 40 m 361 149 q 326 33 361 65 q 204 0 292 0 q 92 38 122 0 q 63 164 63 76 l 63 506 q 101 619 63 576 q 203 663 139 663 q 319 630 278 663 q 361 510 361 597 l 361 149 m 60 856 q 103 775 60 800 q 211 750 146 750 q 324 774 285 750 q 363 856 363 797 q 211 961 363 961 q 99 932 139 961 q 60 856 60 903 z "},"İ":{"ha":475,"x_min":97,"x_max":417,"o":"m 417 208 q 376 50 417 100 q 254 0 336 0 q 135 43 174 0 q 97 197 97 86 l 97 785 q 254 951 97 951 q 376 921 335 951 q 417 797 417 890 l 417 208 m 103 1146 q 126 1084 103 1108 q 181 1050 149 1060 q 254 1040 213 1040 q 367 1064 328 1040 q 406 1146 406 1088 q 254 1251 406 1251 q 142 1222 182 1251 q 103 1146 103 1193 z "},"ı":{"ha":393,"x_min":47,"x_max":346,"o":"m 346 149 q 311 33 346 65 q 189 0 276 0 q 101 19 132 0 q 58 72 69 38 q 47 164 47 106 l 47 506 q 85 619 47 576 q 188 663 124 663 q 304 630 263 663 q 346 510 346 597 l 346 149 z "},"Ķ":{"ha":1001,"x_min":92,"x_max":922,"o":"m 331 -189 q 347 -135 331 -158 q 398 -97 364 -111 q 481 -83 432 -83 q 603 -114 556 -83 q 650 -217 650 -144 q 629 -317 650 -269 q 576 -396 608 -364 q 505 -451 543 -428 q 432 -485 467 -474 q 371 -496 397 -496 q 331 -481 346 -496 q 317 -444 317 -467 q 338 -406 317 -415 q 429 -353 400 -375 q 481 -294 458 -331 q 373 -269 415 -294 q 331 -189 331 -244 m 735 457 q 864 385 806 449 q 922 224 922 322 q 908 81 922 128 q 861 17 894 35 q 760 0 828 0 q 670 15 706 0 q 618 60 635 31 q 601 138 601 90 q 597 240 601 199 q 584 305 592 281 q 561 342 576 329 q 531 358 546 354 q 492 361 517 361 l 418 361 l 418 207 q 375 48 418 96 q 249 0 332 0 q 130 45 168 0 q 92 197 92 90 l 92 776 q 124 908 92 864 q 231 951 157 951 q 302 946 274 951 q 358 926 331 940 q 398 880 385 911 q 411 800 411 849 q 410 703 411 757 q 410 628 410 650 q 419 597 410 610 q 447 577 428 585 q 493 569 465 569 q 573 617 553 569 q 593 810 593 664 q 632 917 593 882 q 757 951 671 951 q 882 915 850 951 q 914 786 914 879 q 860 549 914 633 q 735 457 807 465 z "},"ķ":{"ha":810,"x_min":65,"x_max":764,"o":"m 233 -189 q 250 -135 233 -158 q 301 -97 267 -111 q 383 -83 335 -83 q 506 -114 458 -83 q 553 -217 553 -144 q 532 -317 553 -269 q 478 -396 511 -364 q 408 -451 446 -428 q 335 -485 369 -474 q 274 -496 300 -496 q 234 -481 249 -496 q 219 -444 219 -467 q 240 -406 219 -415 q 332 -353 303 -375 q 383 -294 361 -331 q 276 -269 318 -294 q 233 -189 233 -244 m 419 197 l 369 197 q 328 63 369 125 q 217 0 286 0 q 102 44 139 0 q 65 199 65 88 l 65 769 q 85 866 65 829 q 135 918 104 903 q 217 936 167 933 q 332 878 303 936 q 361 679 361 821 q 349 486 361 569 q 411 456 358 456 q 456 470 444 456 q 468 529 468 485 q 502 624 468 594 q 618 653 536 653 q 734 622 704 653 q 764 508 764 590 q 713 375 764 422 q 597 328 661 328 q 713 288 663 328 q 764 169 764 249 q 735 32 764 64 q 618 0 707 0 q 502 30 536 0 q 468 124 468 60 q 463 172 468 156 q 448 192 457 188 q 419 197 439 197 z "},"Ĺ":{"ha":844,"x_min":86,"x_max":789,"o":"m 388 1357 q 461 1376 421 1376 q 549 1329 515 1376 q 582 1229 582 1282 q 486 1115 582 1151 l 299 1053 q 229 1040 261 1040 q 174 1053 199 1040 q 138 1086 150 1065 q 125 1132 125 1107 q 131 1166 125 1150 q 142 1190 138 1182 q 165 1212 147 1197 q 185 1228 183 1226 q 213 1246 188 1231 l 388 1357 m 267 0 q 164 20 203 1 q 106 82 125 39 q 86 197 86 125 l 86 785 q 129 905 86 858 q 243 951 172 951 q 366 921 326 951 q 406 797 406 890 l 406 240 l 643 240 q 756 217 724 240 q 789 119 789 193 q 751 22 789 44 q 629 0 714 0 l 267 0 z "},"ĺ":{"ha":433,"x_min":60,"x_max":517,"o":"m 322 1357 q 396 1376 356 1376 q 483 1329 450 1376 q 517 1229 517 1282 q 421 1115 517 1151 l 233 1053 q 164 1040 196 1040 q 109 1053 133 1040 q 72 1086 85 1065 q 60 1132 60 1107 q 66 1166 60 1150 q 77 1190 72 1182 q 100 1212 82 1197 q 120 1228 118 1226 q 147 1246 122 1231 l 322 1357 m 369 210 q 332 49 369 97 q 217 0 294 0 q 103 44 139 0 q 67 199 67 88 l 64 785 q 72 849 64 821 q 92 896 79 876 q 125 928 106 915 q 167 946 144 940 q 217 951 190 951 q 331 921 293 951 q 369 797 369 890 l 369 210 z "},"Ļ":{"ha":844,"x_min":86,"x_max":789,"o":"m 276 -189 q 293 -135 276 -158 q 344 -97 310 -111 q 426 -83 378 -83 q 549 -114 501 -83 q 596 -217 596 -144 q 575 -317 596 -269 q 522 -396 554 -364 q 451 -451 489 -428 q 378 -485 413 -474 q 317 -496 343 -496 q 277 -481 292 -496 q 263 -444 263 -467 q 283 -406 263 -415 q 375 -353 346 -375 q 426 -294 404 -331 q 319 -269 361 -294 q 276 -189 276 -244 m 267 0 q 164 20 203 1 q 106 82 125 39 q 86 197 86 125 l 86 785 q 129 905 86 858 q 243 951 172 951 q 366 921 326 951 q 406 797 406 890 l 406 240 l 643 240 q 756 217 724 240 q 789 119 789 193 q 751 22 789 44 q 629 0 714 0 l 267 0 z "},"ļ":{"ha":433,"x_min":50,"x_max":383,"o":"m 64 -189 q 81 -135 64 -158 q 131 -97 97 -111 q 214 -83 165 -83 q 336 -114 289 -83 q 383 -217 383 -144 q 363 -317 383 -269 q 309 -396 342 -364 q 238 -451 276 -428 q 165 -485 200 -474 q 104 -496 131 -496 q 65 -481 79 -496 q 50 -444 50 -467 q 71 -406 50 -415 q 163 -353 133 -375 q 214 -294 192 -331 q 106 -269 149 -294 q 64 -189 64 -244 m 369 210 q 332 49 369 97 q 217 0 294 0 q 103 44 139 0 q 67 199 67 88 l 64 785 q 72 849 64 821 q 92 896 79 876 q 125 928 106 915 q 167 946 144 940 q 217 951 190 951 q 331 921 293 951 q 369 797 369 890 l 369 210 z "},"Ľ":{"ha":844,"x_min":86,"x_max":819,"o":"m 500 840 q 542 760 500 786 q 650 735 585 735 q 599 677 628 699 q 507 625 569 656 q 486 585 486 615 q 501 548 486 563 q 540 533 515 533 q 601 544 567 533 q 674 579 636 556 q 745 635 713 603 q 799 714 778 667 q 819 814 819 761 q 772 915 819 885 q 650 946 725 946 q 539 917 578 946 q 500 840 500 888 m 267 0 q 164 20 203 1 q 106 82 125 39 q 86 197 86 125 l 86 785 q 129 905 86 858 q 243 951 172 951 q 366 921 326 951 q 406 797 406 890 l 406 240 l 643 240 q 756 217 724 240 q 789 119 789 193 q 751 22 789 44 q 629 0 714 0 l 267 0 z "},"ľ":{"ha":811,"x_min":64,"x_max":768,"o":"m 449 840 q 491 760 449 786 q 599 735 533 735 q 547 677 576 699 q 456 625 518 656 q 435 585 435 615 q 449 548 435 563 q 489 533 464 533 q 550 544 515 533 q 623 579 585 556 q 694 635 661 603 q 747 714 726 667 q 768 814 768 761 q 721 915 768 885 q 599 946 674 946 q 488 917 526 946 q 449 840 449 888 m 369 210 q 332 49 369 97 q 217 0 294 0 q 103 44 139 0 q 67 199 67 88 l 64 785 q 72 849 64 821 q 92 896 79 876 q 125 928 106 915 q 167 946 144 940 q 217 951 190 951 q 331 921 293 951 q 369 797 369 890 l 369 210 z "},"Ł":{"ha":885,"x_min":-24,"x_max":846,"o":"m 146 342 q 68 317 100 317 q 3 345 31 317 q -24 413 -24 374 q -11 463 -24 442 q 21 497 1 483 q 79 532 40 511 l 508 765 q 574 786 546 786 q 644 751 614 786 q 674 674 674 717 q 617 594 674 625 l 146 342 m 324 0 q 185 47 228 3 q 143 197 143 90 l 143 785 q 186 905 143 858 q 300 951 229 951 q 368 946 342 951 q 417 925 394 940 q 451 878 440 910 q 463 797 463 846 l 463 240 l 700 240 q 813 217 781 240 q 846 119 846 193 q 808 22 846 44 q 686 0 771 0 l 324 0 z "},"ł":{"ha":674,"x_min":35,"x_max":676,"o":"m 215 265 q 122 228 167 228 q 60 256 86 228 q 35 324 35 285 q 53 383 35 358 q 117 442 72 407 l 499 746 q 585 778 538 778 q 648 745 619 778 q 676 674 676 713 q 614 582 676 632 l 215 265 m 504 210 q 467 49 504 97 q 351 0 429 0 q 238 44 274 0 q 201 199 201 88 l 199 785 q 240 911 199 871 q 351 951 282 951 q 413 946 388 951 q 460 925 438 940 q 492 878 482 910 q 503 797 503 846 l 504 210 z "},"Ń":{"ha":1074,"x_min":93,"x_max":981,"o":"m 633 1357 q 707 1376 667 1376 q 794 1329 761 1376 q 828 1229 828 1282 q 732 1115 828 1151 l 544 1053 q 475 1040 507 1040 q 420 1053 444 1040 q 383 1086 396 1065 q 371 1132 371 1107 q 377 1166 371 1150 q 388 1190 383 1182 q 411 1212 393 1197 q 431 1228 429 1226 q 458 1246 433 1231 l 633 1357 m 981 132 q 944 35 981 71 q 839 0 908 0 q 803 4 821 0 q 765 19 785 8 q 729 40 744 31 q 691 70 714 50 q 655 102 668 90 q 614 140 642 114 q 574 179 586 167 l 319 419 l 319 118 q 294 25 319 50 q 213 0 268 0 q 122 28 151 0 q 93 121 93 56 l 93 792 q 133 911 93 871 q 249 951 174 951 q 331 935 300 951 q 406 878 363 919 l 757 528 l 757 831 q 787 920 757 890 q 868 950 817 950 q 954 922 928 950 q 981 832 981 894 l 981 132 z "},"ń":{"ha":856,"x_min":61,"x_max":794,"o":"m 519 1058 q 586 1076 550 1076 q 665 1033 635 1076 q 694 942 694 990 q 608 839 694 872 l 439 782 q 375 771 404 771 q 326 782 347 771 q 293 812 304 793 q 282 854 282 831 q 338 943 282 904 q 360 958 338 943 l 519 1058 m 490 374 q 429 451 490 451 q 381 427 400 451 q 360 363 363 403 l 360 149 q 325 32 360 64 q 203 0 290 0 q 91 38 121 0 q 61 164 61 76 l 61 506 q 99 619 61 576 q 201 663 138 663 q 290 647 254 663 q 344 594 326 632 q 608 665 453 665 q 751 588 707 665 q 794 332 794 510 q 790 190 794 244 q 777 95 786 135 q 749 36 768 56 q 703 8 729 17 q 638 0 678 0 q 526 29 560 0 q 492 115 492 58 l 490 374 z "},"Ņ":{"ha":1074,"x_min":93,"x_max":981,"o":"m 372 -189 q 389 -135 372 -158 q 440 -97 406 -111 q 522 -83 474 -83 q 644 -114 597 -83 q 692 -217 692 -144 q 671 -317 692 -269 q 617 -396 650 -364 q 547 -451 585 -428 q 474 -485 508 -474 q 413 -496 439 -496 q 373 -481 388 -496 q 358 -444 358 -467 q 379 -406 358 -415 q 471 -353 442 -375 q 522 -294 500 -331 q 415 -269 457 -294 q 372 -189 372 -244 m 981 132 q 944 35 981 71 q 839 0 908 0 q 803 4 821 0 q 765 19 785 8 q 729 40 744 31 q 691 70 714 50 q 655 102 668 90 q 614 140 642 114 q 574 179 586 167 l 319 419 l 319 118 q 294 25 319 50 q 213 0 268 0 q 122 28 151 0 q 93 121 93 56 l 93 792 q 133 911 93 871 q 249 951 174 951 q 331 935 300 951 q 406 878 363 919 l 757 528 l 757 831 q 787 920 757 890 q 868 950 817 950 q 954 922 928 950 q 981 832 981 894 l 981 132 z "},"ņ":{"ha":856,"x_min":61,"x_max":794,"o":"m 253 -189 q 269 -135 253 -158 q 320 -97 286 -111 q 403 -83 354 -83 q 525 -114 478 -83 q 572 -217 572 -144 q 551 -317 572 -269 q 498 -396 531 -364 q 427 -451 465 -428 q 354 -485 389 -474 q 293 -496 319 -496 q 253 -481 268 -496 q 239 -444 239 -467 q 260 -406 239 -415 q 351 -353 322 -375 q 403 -294 381 -331 q 295 -269 338 -294 q 253 -189 253 -244 m 490 374 q 429 451 490 451 q 381 427 400 451 q 360 363 363 403 l 360 149 q 325 32 360 64 q 203 0 290 0 q 91 38 121 0 q 61 164 61 76 l 61 506 q 99 619 61 576 q 201 663 138 663 q 290 647 254 663 q 344 594 326 632 q 608 665 453 665 q 751 588 707 665 q 794 332 794 510 q 790 190 794 244 q 777 95 786 135 q 749 36 768 56 q 703 8 729 17 q 638 0 678 0 q 526 29 560 0 q 492 115 492 58 l 490 374 z "},"Ň":{"ha":1074,"x_min":93,"x_max":981,"o":"m 767 1153 q 850 1289 850 1236 q 813 1367 850 1333 q 733 1401 776 1401 q 646 1351 693 1401 q 625 1328 638 1342 q 606 1309 613 1315 q 591 1294 600 1303 q 577 1281 582 1285 q 566 1273 572 1278 q 554 1267 560 1268 q 543 1265 549 1265 q 522 1273 533 1265 q 501 1289 510 1281 q 476 1317 493 1297 q 449 1346 458 1336 q 356 1397 400 1397 q 272 1365 307 1397 q 238 1289 238 1333 q 241 1264 238 1276 q 248 1243 244 1251 q 260 1222 251 1235 q 274 1204 269 1210 q 291 1185 279 1199 q 306 1168 303 1172 q 542 1038 418 1038 q 615 1047 581 1038 q 678 1078 649 1057 q 725 1113 708 1099 q 767 1153 742 1128 m 981 132 q 944 35 981 71 q 839 0 908 0 q 803 4 821 0 q 765 19 785 8 q 729 40 744 31 q 691 70 714 50 q 655 102 668 90 q 614 140 642 114 q 574 179 586 167 l 319 419 l 319 118 q 294 25 319 50 q 213 0 268 0 q 122 28 151 0 q 93 121 93 56 l 93 792 q 133 911 93 871 q 249 951 174 951 q 331 935 300 951 q 406 878 363 919 l 757 528 l 757 831 q 787 920 757 890 q 868 950 817 950 q 954 922 928 950 q 981 832 981 894 l 981 132 z "},"ň":{"ha":856,"x_min":61,"x_max":794,"o":"m 629 878 q 704 999 704 951 q 672 1070 704 1040 q 599 1100 639 1100 q 519 1056 564 1100 q 501 1035 513 1047 q 485 1017 490 1024 q 472 1003 479 1011 q 459 992 464 996 q 449 985 454 989 q 438 980 443 981 q 428 979 433 979 q 415 982 422 979 q 403 989 408 985 q 390 1001 397 993 q 376 1015 382 1008 q 360 1033 369 1022 q 343 1051 350 1043 q 258 1097 299 1097 q 184 1068 215 1097 q 153 999 153 1039 q 155 981 153 990 q 161 963 157 972 q 169 948 165 954 q 179 933 172 942 q 190 919 186 924 q 203 904 194 914 q 214 892 211 894 q 426 774 315 774 q 483 781 456 774 q 528 797 510 788 q 568 822 546 806 q 601 849 590 839 q 629 878 611 858 m 490 374 q 429 451 490 451 q 381 427 400 451 q 360 363 363 403 l 360 149 q 325 32 360 64 q 203 0 290 0 q 91 38 121 0 q 61 164 61 76 l 61 506 q 99 619 61 576 q 201 663 138 663 q 290 647 254 663 q 344 594 326 632 q 608 665 453 665 q 751 588 707 665 q 794 332 794 510 q 790 190 794 244 q 777 95 786 135 q 749 36 768 56 q 703 8 729 17 q 638 0 678 0 q 526 29 560 0 q 492 115 492 58 l 490 374 z "},"Ō":{"ha":1118,"x_min":72,"x_max":1046,"o":"m 276 1165 q 313 1078 276 1101 q 431 1054 349 1054 l 711 1054 q 802 1083 767 1054 q 838 1163 838 1111 q 807 1251 838 1219 q 700 1283 776 1283 l 411 1283 q 315 1255 353 1283 q 276 1165 276 1226 m 804 47 q 749 19 804 47 q 558 -8 694 -8 q 312 47 421 -8 q 138 211 203 101 q 72 469 72 321 q 208 827 72 694 q 558 960 343 960 q 910 827 774 960 q 1046 469 1046 694 q 980 211 1046 321 q 804 47 914 101 m 558 194 q 640 236 606 194 q 688 339 674 278 q 703 469 703 400 q 688 603 703 540 q 638 711 672 667 q 558 756 604 756 q 481 711 514 756 q 431 603 447 667 q 414 469 414 539 q 430 339 414 400 q 480 236 446 278 q 558 194 514 194 z "},"ō":{"ha":876,"x_min":54,"x_max":824,"o":"m 196 864 q 228 786 196 807 q 335 765 261 765 q 462 765 386 765 q 588 764 538 764 q 645 776 619 764 q 686 810 671 788 q 701 861 701 832 q 674 942 701 913 q 578 971 646 971 q 318 971 438 971 q 231 945 265 971 q 196 864 196 919 m 440 -10 q 245 29 332 -10 q 106 146 158 68 q 54 328 54 224 q 163 579 54 486 q 440 672 271 672 q 717 579 610 672 q 824 328 824 486 q 715 81 824 171 q 440 -10 606 -10 m 513 329 q 494 456 513 401 q 442 511 476 511 q 400 483 418 511 q 374 415 382 456 q 365 329 365 375 q 385 205 365 258 q 440 151 404 151 q 494 204 476 151 q 513 329 513 257 z "},"Ŏ":{"ha":1118,"x_min":72,"x_max":1046,"o":"m 556 1225 q 517 1242 528 1225 q 506 1297 506 1260 q 394 1371 506 1371 q 269 1268 269 1371 q 291 1160 269 1206 q 353 1091 313 1115 q 442 1056 393 1067 q 556 1044 492 1044 q 844 1268 844 1044 q 718 1371 844 1371 q 608 1297 608 1371 q 556 1225 608 1225 m 804 47 q 749 19 804 47 q 558 -8 694 -8 q 312 47 421 -8 q 138 211 203 101 q 72 469 72 321 q 208 827 72 694 q 558 960 343 960 q 910 827 774 960 q 1046 469 1046 694 q 980 211 1046 321 q 804 47 914 101 m 558 194 q 640 236 606 194 q 688 339 674 278 q 703 469 703 400 q 688 603 703 540 q 638 711 672 667 q 558 756 604 756 q 481 711 514 756 q 431 603 447 667 q 414 469 414 539 q 430 339 414 400 q 480 236 446 278 q 558 194 514 194 z "},"ŏ":{"ha":876,"x_min":54,"x_max":824,"o":"m 439 921 q 404 937 414 921 q 394 986 394 953 q 294 1053 394 1053 q 181 960 181 1053 q 200 863 181 903 q 256 800 219 822 q 337 768 292 778 q 439 758 382 758 q 699 960 699 758 q 586 1053 699 1053 q 486 986 486 1053 q 439 921 486 921 m 440 -10 q 245 29 332 -10 q 106 146 158 68 q 54 328 54 224 q 163 579 54 486 q 440 672 271 672 q 717 579 610 672 q 824 328 824 486 q 715 81 824 171 q 440 -10 606 -10 m 513 329 q 494 456 513 401 q 442 511 476 511 q 400 483 418 511 q 374 415 382 456 q 365 329 365 375 q 385 205 365 258 q 440 151 404 151 q 494 204 476 151 q 513 329 513 257 z "},"Ő":{"ha":1118,"x_min":72,"x_max":1046,"o":"m 831 1347 q 910 1314 869 1347 q 951 1238 951 1281 q 911 1156 951 1197 l 794 1044 q 783 1035 793 1043 q 770 1025 774 1028 q 758 1017 767 1022 q 743 1008 749 1011 q 728 1003 738 1006 q 710 1001 719 1001 q 656 1024 681 1001 q 631 1076 631 1047 q 633 1091 631 1083 q 638 1108 635 1099 q 645 1123 642 1117 q 655 1141 649 1129 q 664 1158 661 1153 q 726 1269 700 1229 q 779 1329 751 1310 q 831 1347 804 1347 m 464 1347 q 516 1333 489 1347 q 564 1293 543 1319 q 585 1238 585 1267 q 544 1156 585 1197 l 428 1044 q 418 1036 425 1042 q 408 1028 411 1031 q 397 1020 404 1025 q 385 1013 390 1015 q 372 1007 379 1010 q 358 1003 365 1004 q 343 1001 351 1001 q 289 1024 314 1001 q 264 1076 264 1047 q 266 1091 264 1083 q 272 1108 268 1099 q 278 1123 275 1117 q 288 1141 282 1129 q 297 1158 294 1153 q 359 1269 333 1229 q 413 1329 385 1310 q 464 1347 438 1347 m 804 47 q 749 19 804 47 q 558 -8 694 -8 q 312 47 421 -8 q 138 211 203 101 q 72 469 72 321 q 208 827 72 694 q 558 960 343 960 q 910 827 774 960 q 1046 469 1046 694 q 980 211 1046 321 q 804 47 914 101 m 558 194 q 640 236 606 194 q 688 339 674 278 q 703 469 703 400 q 688 603 703 540 q 638 711 672 667 q 558 756 604 756 q 481 711 514 756 q 431 603 447 667 q 414 469 414 539 q 430 339 414 400 q 480 236 446 278 q 558 194 514 194 z "},"ő":{"ha":876,"x_min":54,"x_max":831,"o":"m 710 1061 q 790 1028 749 1061 q 831 951 831 994 q 790 869 831 911 l 674 758 q 663 749 672 757 q 649 739 653 742 q 637 731 646 736 q 622 722 628 725 q 608 717 617 719 q 589 715 599 715 q 535 738 560 715 q 510 790 510 761 q 512 805 510 797 q 517 822 514 813 q 524 837 521 831 q 534 855 528 843 q 543 872 540 867 q 605 983 579 943 q 658 1043 631 1024 q 710 1061 683 1061 m 343 1061 q 395 1047 368 1061 q 443 1007 422 1033 q 464 951 464 981 q 424 869 464 911 l 307 758 q 297 750 304 756 q 287 742 290 744 q 276 734 283 739 q 264 726 269 729 q 251 721 258 724 q 238 717 244 718 q 222 715 231 715 q 168 738 193 715 q 143 790 143 761 q 145 805 143 797 q 151 822 147 813 q 158 837 154 831 q 167 855 161 843 q 176 872 174 867 q 238 983 213 943 q 292 1043 264 1024 q 343 1061 317 1061 m 440 -10 q 245 29 332 -10 q 106 146 158 68 q 54 328 54 224 q 163 579 54 486 q 440 672 271 672 q 717 579 610 672 q 824 328 824 486 q 715 81 824 171 q 440 -10 606 -10 m 513 329 q 494 456 513 401 q 442 511 476 511 q 400 483 418 511 q 374 415 382 456 q 365 329 365 375 q 385 205 365 258 q 440 151 404 151 q 494 204 476 151 q 513 329 513 257 z "},"Œ":{"ha":1836,"x_min":139,"x_max":1731,"o":"m 1521 564 q 1624 540 1594 564 q 1654 460 1654 517 q 1619 392 1654 413 q 1508 372 1583 372 l 1283 372 l 1283 225 l 1585 224 q 1697 201 1663 224 q 1731 119 1731 178 q 1691 26 1731 53 q 1571 0 1651 0 l 1121 0 q 1001 44 1039 0 q 963 199 963 88 l 963 785 q 1121 951 963 951 l 1571 951 q 1691 926 1651 951 q 1731 836 1731 901 q 1697 751 1731 775 q 1585 726 1663 726 l 1282 726 l 1282 564 l 1521 564 m 871 47 q 816 19 871 47 q 624 -8 761 -8 q 378 47 488 -8 q 204 211 269 101 q 139 469 139 321 q 274 827 139 694 q 625 960 410 960 q 976 827 840 960 q 1113 469 1113 694 q 1047 211 1113 321 q 871 47 981 101 m 625 194 q 706 236 672 194 q 755 339 740 278 q 769 469 769 400 q 754 603 769 540 q 705 711 739 667 q 625 756 671 756 q 547 711 581 756 q 497 603 514 667 q 481 469 481 539 q 497 339 481 400 q 547 236 513 278 q 625 194 581 194 z "},"œ":{"ha":1371,"x_min":49,"x_max":1325,"o":"m 901 389 q 1006 390 997 390 q 1036 415 1026 390 q 1043 465 1043 433 q 990 553 1043 553 q 952 532 971 553 q 919 473 933 511 q 901 389 906 435 m 996 -8 q 716 79 826 -8 q 606 318 606 167 q 715 577 606 482 q 996 672 824 672 q 1234 615 1158 672 q 1310 457 1310 557 q 1305 419 1310 438 q 1290 384 1300 401 q 1262 352 1279 367 q 1222 326 1244 338 q 1169 308 1200 314 q 1104 301 1139 301 l 908 300 q 958 230 922 256 q 1050 204 994 204 q 1172 219 1110 204 q 1230 242 1199 226 q 1275 257 1261 257 q 1312 243 1299 257 q 1325 208 1325 229 q 1303 148 1325 183 q 1241 77 1281 113 q 1136 17 1201 42 q 996 -8 1071 -8 m 435 -10 q 240 29 326 -10 q 101 146 153 68 q 49 328 49 224 q 157 579 49 486 q 435 672 265 672 q 711 579 604 672 q 818 328 818 486 q 709 81 818 171 q 435 -10 600 -10 m 507 329 q 489 456 507 401 q 436 511 471 511 q 394 483 413 511 q 368 415 376 456 q 360 329 360 375 q 379 205 360 258 q 435 151 399 151 q 489 204 471 151 q 507 329 507 257 z "},"Ŕ":{"ha":1000,"x_min":83,"x_max":929,"o":"m 567 1357 q 640 1376 600 1376 q 728 1329 694 1376 q 761 1229 761 1282 q 665 1115 761 1151 l 478 1053 q 408 1040 440 1040 q 353 1053 378 1040 q 317 1086 329 1065 q 304 1132 304 1107 q 310 1166 304 1150 q 322 1190 317 1182 q 344 1212 326 1197 q 365 1228 363 1226 q 392 1246 367 1231 l 567 1357 m 404 208 q 242 0 404 0 q 122 44 160 0 q 83 199 83 88 l 83 785 q 127 908 83 865 q 242 950 171 950 l 533 950 q 810 870 704 950 q 915 665 915 790 q 876 517 915 571 q 749 439 836 464 q 872 374 815 435 q 929 224 929 314 q 912 83 929 132 q 863 17 894 33 q 772 0 831 0 q 652 34 690 0 q 614 138 614 68 q 597 270 614 224 q 554 331 581 317 q 481 344 528 344 l 404 343 l 404 208 m 617 675 q 568 767 617 742 q 404 792 519 792 l 404 551 q 565 578 513 551 q 617 675 617 606 z "},"ŕ":{"ha":656,"x_min":64,"x_max":644,"o":"m 392 1058 q 458 1076 422 1076 q 537 1033 507 1076 q 567 942 567 990 q 481 839 567 872 l 311 782 q 247 771 276 771 q 198 782 219 771 q 165 812 176 793 q 154 854 154 831 q 210 943 154 904 q 232 958 210 943 l 392 1058 m 363 149 q 328 33 363 65 q 204 0 293 0 q 93 38 122 0 q 64 164 64 76 l 64 506 q 81 588 64 553 q 129 643 97 624 q 204 663 161 663 q 343 601 310 663 q 499 663 424 663 q 644 524 644 663 q 613 433 644 468 q 529 399 581 399 q 480 411 499 399 q 445 436 461 424 q 408 449 429 449 q 363 428 378 449 l 363 149 z "},"Ŗ":{"ha":1000,"x_min":83,"x_max":929,"o":"m 336 -189 q 353 -135 336 -158 q 403 -97 369 -111 q 486 -83 438 -83 q 608 -114 561 -83 q 656 -217 656 -144 q 635 -317 656 -269 q 581 -396 614 -364 q 510 -451 549 -428 q 438 -485 472 -474 q 376 -496 403 -496 q 337 -481 351 -496 q 322 -444 322 -467 q 343 -406 322 -415 q 435 -353 406 -375 q 486 -294 464 -331 q 378 -269 421 -294 q 336 -189 336 -244 m 404 208 q 242 0 404 0 q 122 44 160 0 q 83 199 83 88 l 83 785 q 127 908 83 865 q 242 950 171 950 l 533 950 q 810 870 704 950 q 915 665 915 790 q 876 517 915 571 q 749 439 836 464 q 872 374 815 435 q 929 224 929 314 q 912 83 929 132 q 863 17 894 33 q 772 0 831 0 q 652 34 690 0 q 614 138 614 68 q 597 270 614 224 q 554 331 581 317 q 481 344 528 344 l 404 343 l 404 208 m 617 675 q 568 767 617 742 q 404 792 519 792 l 404 551 q 565 578 513 551 q 617 675 617 606 z "},"ŗ":{"ha":656,"x_min":44,"x_max":644,"o":"m 58 -189 q 75 -135 58 -158 q 126 -97 92 -111 q 208 -83 160 -83 q 331 -114 283 -83 q 378 -217 378 -144 q 357 -317 378 -269 q 303 -396 336 -364 q 233 -451 271 -428 q 160 -485 194 -474 q 99 -496 125 -496 q 59 -481 74 -496 q 44 -444 44 -467 q 65 -406 44 -415 q 157 -353 128 -375 q 208 -294 186 -331 q 101 -269 143 -294 q 58 -189 58 -244 m 363 149 q 328 33 363 65 q 204 0 293 0 q 93 38 122 0 q 64 164 64 76 l 64 506 q 81 588 64 553 q 129 643 97 624 q 204 663 161 663 q 343 601 310 663 q 499 663 424 663 q 644 524 644 663 q 613 433 644 468 q 529 399 581 399 q 480 411 499 399 q 445 436 461 424 q 408 449 429 449 q 363 428 378 449 l 363 149 z "},"Ř":{"ha":1000,"x_min":83,"x_max":929,"o":"m 699 1157 q 782 1293 782 1240 q 745 1372 782 1338 q 665 1406 708 1406 q 578 1356 625 1406 q 557 1333 569 1346 q 538 1313 544 1319 q 523 1298 532 1307 q 509 1285 514 1289 q 498 1277 504 1282 q 486 1271 492 1272 q 475 1269 481 1269 q 453 1277 465 1269 q 433 1293 442 1285 q 408 1321 425 1301 q 381 1350 390 1340 q 288 1401 332 1401 q 204 1369 239 1401 q 169 1293 169 1338 q 173 1268 169 1281 q 180 1247 176 1256 q 192 1226 183 1239 q 206 1208 201 1214 q 223 1190 211 1203 q 238 1172 235 1176 q 474 1042 350 1042 q 547 1051 513 1042 q 610 1082 581 1061 q 657 1117 640 1103 q 699 1157 674 1132 m 404 208 q 242 0 404 0 q 122 44 160 0 q 83 199 83 88 l 83 785 q 127 908 83 865 q 242 950 171 950 l 533 950 q 810 870 704 950 q 915 665 915 790 q 876 517 915 571 q 749 439 836 464 q 872 374 815 435 q 929 224 929 314 q 912 83 929 132 q 863 17 894 33 q 772 0 831 0 q 652 34 690 0 q 614 138 614 68 q 597 270 614 224 q 554 331 581 317 q 481 344 528 344 l 404 343 l 404 208 m 617 675 q 568 767 617 742 q 404 792 519 792 l 404 551 q 565 578 513 551 q 617 675 617 606 z "},"ř":{"ha":656,"x_min":64,"x_max":644,"o":"m 546 878 q 621 999 621 951 q 588 1070 621 1040 q 515 1100 556 1100 q 436 1056 481 1100 q 418 1035 429 1047 q 401 1017 407 1024 q 388 1003 396 1011 q 376 992 381 996 q 365 985 371 989 q 355 980 360 981 q 344 979 350 979 q 332 982 339 979 q 319 989 325 985 q 306 1001 314 993 q 292 1015 299 1008 q 276 1033 286 1022 q 260 1051 267 1043 q 175 1097 215 1097 q 101 1068 132 1097 q 69 999 69 1039 q 72 981 69 990 q 78 963 74 972 q 85 948 82 954 q 96 933 89 942 q 107 919 103 924 q 119 904 111 914 q 131 892 128 894 q 343 774 232 774 q 399 781 372 774 q 444 797 426 788 q 485 822 463 806 q 517 849 507 839 q 546 878 528 858 m 363 149 q 328 33 363 65 q 204 0 293 0 q 93 38 122 0 q 64 164 64 76 l 64 506 q 81 588 64 553 q 129 643 97 624 q 204 663 161 663 q 343 601 310 663 q 499 663 424 663 q 644 524 644 663 q 613 433 644 468 q 529 399 581 399 q 480 411 499 399 q 445 436 461 424 q 408 449 429 449 q 363 428 378 449 l 363 149 z "},"Ś":{"ha":964,"x_min":60,"x_max":897,"o":"m 539 1357 q 613 1376 572 1376 q 700 1329 667 1376 q 733 1229 733 1282 q 638 1115 733 1151 l 450 1053 q 381 1040 413 1040 q 326 1053 350 1040 q 289 1086 301 1065 q 276 1132 276 1107 q 283 1166 276 1150 q 294 1190 289 1182 q 317 1212 299 1197 q 337 1228 335 1226 q 364 1246 339 1231 l 539 1357 m 475 961 q 757 893 640 961 q 874 749 874 825 q 865 713 874 728 q 842 692 856 699 q 814 686 829 686 q 739 712 789 686 q 628 763 689 738 q 515 789 567 789 q 433 722 433 789 q 447 683 433 701 q 489 644 460 664 q 546 608 518 624 q 622 567 574 593 q 704 522 671 542 q 854 406 811 461 q 897 278 897 350 q 510 -10 897 -10 q 362 6 433 -10 q 237 46 290 21 q 142 101 183 71 q 81 164 101 132 q 60 224 60 196 q 80 276 60 254 q 139 297 100 297 q 279 260 168 297 q 458 224 390 224 q 521 267 521 224 q 516 290 521 279 q 499 310 511 300 q 473 330 488 321 q 433 353 458 339 q 381 381 407 367 q 314 417 356 394 q 233 461 272 439 q 145 533 182 490 q 92 619 108 576 q 75 697 75 661 q 179 888 75 814 q 475 961 283 961 z "},"ś":{"ha":781,"x_min":57,"x_max":728,"o":"m 444 1046 q 511 1064 475 1064 q 590 1021 560 1064 q 619 929 619 978 q 533 826 619 860 l 364 769 q 300 758 329 758 q 251 769 272 758 q 218 799 229 781 q 207 842 207 818 q 263 931 207 892 q 285 946 263 931 l 444 1046 m 390 672 q 606 619 519 672 q 692 504 692 567 q 676 471 692 486 q 638 456 661 456 q 592 470 617 456 q 544 501 567 485 q 486 532 522 518 q 410 546 450 546 q 356 513 356 546 q 383 475 356 489 q 465 446 411 461 q 546 417 518 431 q 689 330 650 376 q 728 207 728 283 q 707 133 728 169 q 644 63 686 96 q 531 10 603 31 q 368 -10 460 -10 q 100 72 189 -10 q 57 156 57 113 q 74 197 57 182 q 124 213 92 213 q 221 181 156 213 q 342 150 286 150 q 418 188 418 150 q 378 219 418 207 q 272 247 338 231 q 168 289 207 264 q 83 355 107 315 q 58 451 58 394 q 151 610 58 549 q 390 672 243 672 z "},"Ş":{"ha":964,"x_min":60,"x_max":897,"o":"m 582 -50 q 640 -153 640 -79 q 582 -290 640 -237 q 444 -342 524 -342 q 394 -336 422 -342 q 335 -320 365 -331 q 285 -290 306 -310 q 265 -243 265 -269 q 288 -181 265 -211 q 335 -151 311 -151 q 364 -160 344 -151 q 390 -168 383 -168 q 413 -157 403 -168 q 422 -131 422 -146 q 395 -98 422 -118 q 368 -62 368 -78 q 379 -28 368 -54 q 401 19 390 -1 l 413 42 l 593 42 q 564 -32 564 -15 q 582 -50 564 -42 m 475 961 q 757 893 640 961 q 874 749 874 825 q 865 713 874 728 q 842 692 856 699 q 814 686 829 686 q 739 712 789 686 q 628 763 689 738 q 515 789 567 789 q 433 722 433 789 q 447 683 433 701 q 489 644 460 664 q 546 608 518 624 q 622 567 574 593 q 704 522 671 542 q 854 406 811 461 q 897 278 897 350 q 510 -10 897 -10 q 362 6 433 -10 q 237 46 290 21 q 142 101 183 71 q 81 164 101 132 q 60 224 60 196 q 80 276 60 254 q 139 297 100 297 q 279 260 168 297 q 458 224 390 224 q 521 267 521 224 q 516 290 521 279 q 499 310 511 300 q 473 330 488 321 q 433 353 458 339 q 381 381 407 367 q 314 417 356 394 q 233 461 272 439 q 145 533 182 490 q 92 619 108 576 q 75 697 75 661 q 179 888 75 814 q 475 961 283 961 z "},"ş":{"ha":781,"x_min":57,"x_max":728,"o":"m 507 -50 q 565 -153 565 -79 q 507 -290 565 -237 q 369 -342 449 -342 q 319 -336 347 -342 q 260 -320 290 -331 q 210 -290 231 -310 q 190 -243 190 -269 q 213 -181 190 -211 q 260 -151 236 -151 q 289 -160 269 -151 q 315 -168 308 -168 q 338 -157 328 -168 q 347 -131 347 -146 q 320 -98 347 -118 q 293 -62 293 -78 q 304 -28 293 -54 q 326 19 315 -1 l 338 42 l 518 42 q 489 -32 489 -15 q 507 -50 489 -42 m 390 672 q 606 619 519 672 q 692 504 692 567 q 676 471 692 486 q 638 456 661 456 q 592 470 617 456 q 544 501 567 485 q 486 532 522 518 q 410 546 450 546 q 356 513 356 546 q 383 475 356 489 q 465 446 411 461 q 546 417 518 431 q 689 330 650 376 q 728 207 728 283 q 707 133 728 169 q 644 63 686 96 q 531 10 603 31 q 368 -10 460 -10 q 100 72 189 -10 q 57 156 57 113 q 74 197 57 182 q 124 213 92 213 q 221 181 156 213 q 342 150 286 150 q 418 188 418 150 q 378 219 418 207 q 272 247 338 231 q 168 289 207 264 q 83 355 107 315 q 58 451 58 394 q 151 610 58 549 q 390 672 243 672 z "},"Š":{"ha":964,"x_min":60,"x_max":897,"o":"m 715 1153 q 799 1289 799 1236 q 762 1367 799 1333 q 682 1401 725 1401 q 594 1351 642 1401 q 574 1328 586 1342 q 555 1309 561 1315 q 540 1294 549 1303 q 526 1281 531 1285 q 515 1273 521 1278 q 503 1267 508 1268 q 492 1265 497 1265 q 470 1273 482 1265 q 450 1289 458 1281 q 424 1317 442 1297 q 397 1346 407 1336 q 304 1397 349 1397 q 221 1365 256 1397 q 186 1289 186 1333 q 190 1264 186 1276 q 197 1243 193 1251 q 209 1222 200 1235 q 223 1204 218 1210 q 240 1185 228 1199 q 254 1168 251 1172 q 490 1038 367 1038 q 563 1047 529 1038 q 627 1078 597 1057 q 674 1113 657 1099 q 715 1153 690 1128 m 475 961 q 757 893 640 961 q 874 749 874 825 q 865 713 874 728 q 842 692 856 699 q 814 686 829 686 q 739 712 789 686 q 628 763 689 738 q 515 789 567 789 q 433 722 433 789 q 447 683 433 701 q 489 644 460 664 q 546 608 518 624 q 622 567 574 593 q 704 522 671 542 q 854 406 811 461 q 897 278 897 350 q 510 -10 897 -10 q 362 6 433 -10 q 237 46 290 21 q 142 101 183 71 q 81 164 101 132 q 60 224 60 196 q 80 276 60 254 q 139 297 100 297 q 279 260 168 297 q 458 224 390 224 q 521 267 521 224 q 516 290 521 279 q 499 310 511 300 q 473 330 488 321 q 433 353 458 339 q 381 381 407 367 q 314 417 356 394 q 233 461 272 439 q 145 533 182 490 q 92 619 108 576 q 75 697 75 661 q 179 888 75 814 q 475 961 283 961 z "},"š":{"ha":781,"x_min":57,"x_max":728,"o":"m 590 879 q 665 1000 665 953 q 633 1072 665 1042 q 560 1101 600 1101 q 481 1057 525 1101 q 463 1037 474 1049 q 446 1019 451 1025 q 433 1005 440 1013 q 420 994 425 997 q 410 986 415 990 q 399 981 404 982 q 389 981 394 981 q 376 983 383 981 q 364 990 369 986 q 351 1002 358 994 q 337 1017 343 1010 q 321 1034 331 1024 q 304 1053 311 1044 q 219 1099 260 1099 q 145 1069 176 1099 q 114 1000 114 1040 q 116 983 114 992 q 122 965 118 974 q 130 949 126 956 q 140 934 133 943 q 151 920 147 925 q 164 906 156 915 q 175 893 172 896 q 388 775 276 775 q 444 782 417 775 q 489 798 471 789 q 529 824 507 807 q 562 850 551 840 q 590 879 572 860 m 390 672 q 606 619 519 672 q 692 504 692 567 q 676 471 692 486 q 638 456 661 456 q 592 470 617 456 q 544 501 567 485 q 486 532 522 518 q 410 546 450 546 q 356 513 356 546 q 383 475 356 489 q 465 446 411 461 q 546 417 518 431 q 689 330 650 376 q 728 207 728 283 q 707 133 728 169 q 644 63 686 96 q 531 10 603 31 q 368 -10 460 -10 q 100 72 189 -10 q 57 156 57 113 q 74 197 57 182 q 124 213 92 213 q 221 181 156 213 q 342 150 286 150 q 418 188 418 150 q 378 219 418 207 q 272 247 338 231 q 168 289 207 264 q 83 355 107 315 q 58 451 58 394 q 151 610 58 549 q 390 672 243 672 z "},"Ţ":{"ha":1024,"x_min":68,"x_max":972,"o":"m 613 -50 q 671 -153 671 -79 q 613 -290 671 -237 q 475 -342 554 -342 q 424 -336 453 -342 q 366 -320 396 -331 q 316 -290 336 -310 q 296 -243 296 -269 q 319 -181 296 -211 q 365 -151 342 -151 q 394 -160 375 -151 q 421 -168 414 -168 q 443 -157 433 -168 q 453 -131 453 -146 q 426 -98 453 -118 q 399 -62 399 -78 q 410 -28 399 -54 q 432 19 421 -1 l 443 42 l 624 42 q 594 -32 594 -15 q 613 -50 594 -42 m 683 208 q 664 83 683 129 q 610 18 644 36 q 521 0 576 0 q 402 44 439 0 q 364 199 365 88 l 361 711 l 243 711 q 112 739 156 711 q 68 838 68 767 q 85 906 68 881 q 138 941 103 931 q 231 951 172 951 l 825 951 q 938 924 903 951 q 972 828 972 896 q 952 756 972 782 q 899 721 932 731 q 813 711 865 711 l 683 711 l 683 208 z "},"ţ":{"ha":696,"x_min":39,"x_max":629,"o":"m 458 -50 q 517 -153 517 -79 q 458 -290 517 -237 q 321 -342 400 -342 q 270 -336 299 -342 q 212 -320 242 -331 q 162 -290 182 -310 q 142 -243 142 -269 q 165 -181 142 -211 q 211 -151 188 -151 q 240 -160 221 -151 q 267 -168 260 -168 q 289 -157 279 -168 q 299 -131 299 -146 q 272 -98 299 -118 q 244 -62 244 -78 q 256 -28 244 -54 q 278 19 267 -1 l 289 42 l 469 42 q 440 -32 440 -15 q 458 -50 440 -42 m 133 297 l 133 461 q 78 473 99 463 q 48 500 57 483 q 39 542 39 517 q 135 628 39 621 l 135 757 q 211 852 135 810 q 363 894 288 894 q 422 868 408 894 q 436 789 436 842 l 438 629 l 475 629 q 580 609 551 629 q 608 536 608 589 q 600 499 608 514 q 573 475 592 483 q 528 463 554 467 q 463 460 501 460 l 438 460 l 438 307 q 440 270 438 285 q 446 247 442 256 q 458 236 450 239 q 476 233 465 233 q 504 245 493 233 q 522 272 515 257 q 538 298 528 286 q 563 310 549 310 q 612 294 594 310 q 629 257 629 279 q 615 176 629 219 q 572 93 600 133 q 495 26 544 53 q 385 0 446 0 q 190 69 247 0 q 133 297 133 139 z "},"Ť":{"ha":1024,"x_min":68,"x_max":972,"o":"m 757 1153 q 840 1289 840 1236 q 803 1367 840 1333 q 724 1401 767 1401 q 636 1351 683 1401 q 615 1328 628 1342 q 597 1309 603 1315 q 581 1294 590 1303 q 567 1281 572 1285 q 556 1273 563 1278 q 544 1267 550 1268 q 533 1265 539 1265 q 512 1273 524 1265 q 492 1289 500 1281 q 466 1317 483 1297 q 439 1346 449 1336 q 346 1397 390 1397 q 263 1365 297 1397 q 228 1289 228 1333 q 231 1264 228 1276 q 238 1243 235 1251 q 251 1222 242 1235 q 265 1204 260 1210 q 281 1185 269 1199 q 296 1168 293 1172 q 532 1038 408 1038 q 605 1047 571 1038 q 669 1078 639 1057 q 715 1113 699 1099 q 757 1153 732 1128 m 683 208 q 664 83 683 129 q 610 18 644 36 q 521 0 576 0 q 402 44 439 0 q 364 199 365 88 l 361 711 l 243 711 q 112 739 156 711 q 68 838 68 767 q 85 906 68 881 q 138 941 103 931 q 231 951 172 951 l 825 951 q 938 924 903 951 q 972 828 972 896 q 952 756 972 782 q 899 721 932 731 q 813 711 865 711 l 683 711 l 683 208 z "},"ť":{"ha":1026,"x_min":39,"x_max":993,"o":"m 674 826 q 716 747 674 772 q 824 721 758 721 q 772 663 801 685 q 681 611 743 642 q 660 571 660 601 q 674 534 660 549 q 714 519 689 519 q 775 531 740 519 q 848 565 810 542 q 919 621 886 589 q 972 700 951 653 q 993 800 993 747 q 946 901 993 871 q 824 932 899 932 q 713 903 751 932 q 674 826 674 874 m 133 297 l 133 461 q 78 473 99 463 q 48 500 57 483 q 39 542 39 517 q 135 628 39 621 l 135 757 q 211 852 135 810 q 363 894 288 894 q 422 868 408 894 q 436 789 436 842 l 438 629 l 475 629 q 580 609 551 629 q 608 536 608 589 q 600 499 608 514 q 573 475 592 483 q 528 463 554 467 q 463 460 501 460 l 438 460 l 438 307 q 440 270 438 285 q 446 247 442 256 q 458 236 450 239 q 476 233 465 233 q 504 245 493 233 q 522 272 515 257 q 538 298 528 286 q 563 310 549 310 q 612 294 594 310 q 629 257 629 279 q 615 176 629 219 q 572 93 600 133 q 495 26 544 53 q 385 0 446 0 q 190 69 247 0 q 133 297 133 139 z "},"Ũ":{"ha":1024,"x_min":81,"x_max":936,"o":"m 432 1126 q 402 1065 432 1090 q 331 1040 372 1040 q 279 1049 300 1040 q 248 1074 258 1057 q 234 1109 238 1090 q 231 1156 231 1128 q 266 1265 231 1218 q 364 1311 301 1311 q 600 1226 478 1311 q 608 1258 600 1243 q 630 1285 617 1274 q 663 1304 643 1297 q 703 1311 682 1311 q 782 1283 761 1311 q 803 1197 803 1254 q 767 1088 803 1136 q 668 1040 732 1040 q 588 1053 626 1040 q 525 1083 549 1067 q 476 1113 501 1099 q 432 1126 450 1126 m 936 785 l 936 371 q 838 80 936 168 q 508 -8 740 -8 q 184 86 288 -8 q 81 371 81 181 l 81 785 q 124 905 81 858 q 235 951 168 951 q 359 921 317 951 q 401 797 401 890 l 401 344 q 416 274 403 300 q 451 237 429 247 q 508 226 474 226 q 565 235 543 226 q 598 261 588 243 q 612 297 608 279 q 615 344 615 315 l 615 799 q 627 878 615 846 q 663 925 639 910 q 713 946 688 940 q 775 951 739 951 q 896 913 856 951 q 936 785 936 874 z "},"ũ":{"ha":868,"x_min":64,"x_max":797,"o":"m 374 851 q 345 793 374 817 q 276 769 317 769 q 201 797 221 769 q 182 881 182 825 q 216 983 182 939 q 310 1028 250 1028 q 417 1008 361 1028 q 504 967 474 988 l 535 946 q 563 1004 535 981 q 632 1028 590 1028 q 707 1001 688 1028 q 726 919 726 974 q 692 815 726 861 q 599 769 658 769 q 504 790 549 769 q 427 831 460 811 q 374 851 394 851 m 368 293 q 429 214 368 214 q 466 227 450 214 q 490 264 482 240 q 499 318 499 288 l 499 504 q 515 587 499 551 q 564 642 532 622 q 639 661 596 661 q 756 628 714 661 q 797 508 797 596 l 797 147 q 763 31 797 63 q 640 -1 728 -1 q 576 6 603 -1 q 534 29 550 14 q 510 69 518 44 q 390 17 453 32 q 249 1 326 1 q 107 78 150 1 q 64 332 64 156 q 68 474 64 419 q 81 569 72 529 q 109 628 90 608 q 153 656 128 647 q 221 664 179 664 q 333 635 299 664 q 367 547 367 606 l 368 293 z "},"Ū":{"ha":1024,"x_min":81,"x_max":936,"o":"m 238 1165 q 274 1078 238 1101 q 392 1054 310 1054 l 672 1054 q 763 1083 728 1054 q 799 1163 799 1111 q 768 1251 799 1219 q 661 1283 738 1283 l 372 1283 q 276 1255 314 1283 q 238 1165 238 1226 m 936 785 l 936 371 q 838 80 936 168 q 508 -8 740 -8 q 184 86 288 -8 q 81 371 81 181 l 81 785 q 124 905 81 858 q 235 951 168 951 q 359 921 317 951 q 401 797 401 890 l 401 344 q 416 274 403 300 q 451 237 429 247 q 508 226 474 226 q 565 235 543 226 q 598 261 588 243 q 612 297 608 279 q 615 344 615 315 l 615 799 q 627 878 615 846 q 663 925 639 910 q 713 946 688 940 q 775 951 739 951 q 896 913 856 951 q 936 785 936 874 z "},"ū":{"ha":868,"x_min":64,"x_max":797,"o":"m 188 867 q 220 789 188 810 q 326 768 253 768 q 453 767 378 768 q 579 767 529 767 q 637 778 611 767 q 678 813 663 790 q 693 864 693 835 q 665 944 693 915 q 569 974 638 974 q 310 974 429 974 q 222 948 257 974 q 188 867 188 922 m 368 293 q 429 214 368 214 q 466 227 450 214 q 490 264 482 240 q 499 318 499 288 l 499 504 q 515 587 499 551 q 564 642 532 622 q 639 661 596 661 q 756 628 714 661 q 797 508 797 596 l 797 147 q 763 31 797 63 q 640 -1 728 -1 q 576 6 603 -1 q 534 29 550 14 q 510 69 518 44 q 390 17 453 32 q 249 1 326 1 q 107 78 150 1 q 64 332 64 156 q 68 474 64 419 q 81 569 72 529 q 109 628 90 608 q 153 656 128 647 q 221 664 179 664 q 333 635 299 664 q 367 547 367 606 l 368 293 z "},"Ŭ":{"ha":1024,"x_min":81,"x_max":936,"o":"m 519 1222 q 481 1240 492 1222 q 469 1294 469 1257 q 358 1368 469 1368 q 233 1265 233 1368 q 255 1158 233 1203 q 317 1088 276 1113 q 406 1053 357 1064 q 519 1042 456 1042 q 808 1265 808 1042 q 682 1368 808 1368 q 572 1294 572 1368 q 519 1222 572 1222 m 936 785 l 936 371 q 838 80 936 168 q 508 -8 740 -8 q 184 86 288 -8 q 81 371 81 181 l 81 785 q 124 905 81 858 q 235 951 168 951 q 359 921 317 951 q 401 797 401 890 l 401 344 q 416 274 403 300 q 451 237 429 247 q 508 226 474 226 q 565 235 543 226 q 598 261 588 243 q 612 297 608 279 q 615 344 615 315 l 615 799 q 627 878 615 846 q 663 925 639 910 q 713 946 688 940 q 775 951 739 951 q 896 913 856 951 q 936 785 936 874 z "},"ŭ":{"ha":868,"x_min":64,"x_max":797,"o":"m 453 921 q 418 937 428 921 q 408 986 408 953 q 308 1053 408 1053 q 194 960 194 1053 q 214 863 194 903 q 269 800 233 822 q 351 768 306 778 q 453 758 396 758 q 713 960 713 758 q 600 1053 713 1053 q 500 986 500 1053 q 453 921 500 921 m 368 293 q 429 214 368 214 q 466 227 450 214 q 490 264 482 240 q 499 318 499 288 l 499 504 q 515 587 499 551 q 564 642 532 622 q 639 661 596 661 q 756 628 714 661 q 797 508 797 596 l 797 147 q 763 31 797 63 q 640 -1 728 -1 q 576 6 603 -1 q 534 29 550 14 q 510 69 518 44 q 390 17 453 32 q 249 1 326 1 q 107 78 150 1 q 64 332 64 156 q 68 474 64 419 q 81 569 72 529 q 109 628 90 608 q 153 656 128 647 q 221 664 179 664 q 333 635 299 664 q 367 547 367 606 l 368 293 z "},"Ů":{"ha":1024,"x_min":81,"x_max":936,"o":"m 665 1081 q 633 1056 665 1081 q 503 1031 601 1031 q 340 1081 406 1031 q 275 1219 275 1132 q 339 1360 275 1308 q 503 1413 403 1413 q 593 1399 551 1413 q 665 1362 635 1386 q 713 1301 696 1338 q 729 1219 729 1264 q 665 1081 729 1132 m 546 1221 q 542 1256 546 1239 q 528 1283 538 1272 q 504 1294 518 1294 q 471 1272 483 1294 q 458 1221 458 1250 q 463 1187 458 1203 q 478 1160 468 1171 q 504 1150 489 1150 q 535 1171 525 1150 q 546 1221 546 1192 m 936 785 l 936 371 q 838 80 936 168 q 508 -8 740 -8 q 184 86 288 -8 q 81 371 81 181 l 81 785 q 124 905 81 858 q 235 951 168 951 q 359 921 317 951 q 401 797 401 890 l 401 344 q 416 274 403 300 q 451 237 429 247 q 508 226 474 226 q 565 235 543 226 q 598 261 588 243 q 612 297 608 279 q 615 344 615 315 l 615 799 q 627 878 615 846 q 663 925 639 910 q 713 946 688 940 q 775 951 739 951 q 896 913 856 951 q 936 785 936 874 z "},"ů":{"ha":868,"x_min":64,"x_max":797,"o":"m 444 776 q 282 827 347 776 q 217 964 217 878 q 281 1106 217 1054 q 444 1158 344 1158 q 561 1135 510 1158 q 642 1068 613 1113 q 671 964 671 1024 q 640 863 671 906 q 559 798 610 819 q 444 776 508 776 m 477 916 q 482 927 477 916 q 488 966 488 938 q 476 1017 488 994 q 446 1039 465 1039 q 413 1017 425 1039 q 400 966 400 994 q 412 916 400 938 q 445 894 424 894 q 477 916 467 894 m 368 293 q 429 214 368 214 q 466 227 450 214 q 490 264 482 240 q 499 318 499 288 l 499 504 q 515 587 499 551 q 564 642 532 622 q 639 661 596 661 q 756 628 714 661 q 797 508 797 596 l 797 147 q 763 31 797 63 q 640 -1 728 -1 q 576 6 603 -1 q 534 29 550 14 q 510 69 518 44 q 390 17 453 32 q 249 1 326 1 q 107 78 150 1 q 64 332 64 156 q 68 474 64 419 q 81 569 72 529 q 109 628 90 608 q 153 656 128 647 q 221 664 179 664 q 333 635 299 664 q 367 547 367 606 l 368 293 z "},"Ű":{"ha":1024,"x_min":81,"x_max":936,"o":"m 776 1347 q 856 1314 815 1347 q 897 1238 897 1281 q 857 1156 897 1197 l 740 1044 q 729 1035 739 1043 q 716 1025 719 1028 q 703 1017 713 1022 q 689 1008 694 1011 q 674 1003 683 1006 q 656 1001 665 1001 q 601 1024 626 1001 q 576 1076 576 1047 q 578 1091 576 1083 q 584 1108 581 1099 q 591 1123 588 1117 q 601 1141 594 1129 q 610 1158 607 1153 q 672 1269 646 1229 q 725 1329 697 1310 q 776 1347 750 1347 m 410 1347 q 462 1333 435 1347 q 510 1293 489 1319 q 531 1238 531 1267 q 490 1156 531 1197 l 374 1044 q 364 1036 371 1042 q 353 1028 357 1031 q 343 1020 350 1025 q 331 1013 336 1015 q 318 1007 325 1010 q 304 1003 311 1004 q 289 1001 297 1001 q 235 1024 260 1001 q 210 1076 210 1047 q 212 1091 210 1083 q 217 1108 214 1099 q 224 1123 221 1117 q 234 1141 228 1129 q 243 1158 240 1153 q 305 1269 279 1229 q 358 1329 331 1310 q 410 1347 383 1347 m 936 785 l 936 371 q 838 80 936 168 q 508 -8 740 -8 q 184 86 288 -8 q 81 371 81 181 l 81 785 q 124 905 81 858 q 235 951 168 951 q 359 921 317 951 q 401 797 401 890 l 401 344 q 416 274 403 300 q 451 237 429 247 q 508 226 474 226 q 565 235 543 226 q 598 261 588 243 q 612 297 608 279 q 615 344 615 315 l 615 799 q 627 878 615 846 q 663 925 639 910 q 713 946 688 940 q 775 951 739 951 q 896 913 856 951 q 936 785 936 874 z "},"ű":{"ha":868,"x_min":64,"x_max":800,"o":"m 679 1061 q 759 1028 718 1061 q 800 951 800 994 q 760 869 800 911 l 643 758 q 632 749 642 757 q 619 739 622 742 q 606 731 615 736 q 592 722 597 725 q 577 717 586 719 q 558 715 568 715 q 504 738 529 715 q 479 790 479 761 q 481 805 479 797 q 487 822 483 813 q 494 837 490 831 q 503 855 497 843 q 513 872 510 867 q 574 983 549 943 q 628 1043 600 1024 q 679 1061 653 1061 m 313 1061 q 365 1047 338 1061 q 413 1007 392 1033 q 433 951 433 981 q 393 869 433 911 l 276 758 q 267 750 274 756 q 256 742 260 744 q 246 734 253 739 q 233 726 239 729 q 221 721 228 724 q 207 717 214 718 q 192 715 200 715 q 138 738 163 715 q 113 790 113 761 q 115 805 113 797 q 120 822 117 813 q 127 837 124 831 q 137 855 131 843 q 146 872 143 867 q 208 983 182 943 q 261 1043 233 1024 q 313 1061 286 1061 m 368 293 q 429 214 368 214 q 466 227 450 214 q 490 264 482 240 q 499 318 499 288 l 499 504 q 515 587 499 551 q 564 642 532 622 q 639 661 596 661 q 756 628 714 661 q 797 508 797 596 l 797 147 q 763 31 797 63 q 640 -1 728 -1 q 576 6 603 -1 q 534 29 550 14 q 510 69 518 44 q 390 17 453 32 q 249 1 326 1 q 107 78 150 1 q 64 332 64 156 q 68 474 64 419 q 81 569 72 529 q 109 628 90 608 q 153 656 128 647 q 221 664 179 664 q 333 635 299 664 q 367 547 367 606 l 368 293 z "},"Ų":{"ha":1024,"x_min":81,"x_max":1010,"o":"m 706 97 l 850 97 q 820 24 833 65 q 801 -47 807 -17 q 794 -94 794 -78 q 806 -132 794 -117 q 835 -147 818 -147 q 879 -126 853 -147 q 928 -104 906 -104 q 983 -133 956 -104 q 1010 -193 1010 -162 q 994 -244 1010 -219 q 904 -317 967 -293 q 788 -342 842 -342 q 643 -292 704 -342 q 582 -161 582 -242 q 616 -29 582 -99 q 706 97 650 40 m 936 785 l 936 371 q 838 80 936 168 q 508 -8 740 -8 q 184 86 288 -8 q 81 371 81 181 l 81 785 q 124 905 81 858 q 235 951 168 951 q 359 921 317 951 q 401 797 401 890 l 401 344 q 416 274 403 300 q 451 237 429 247 q 508 226 474 226 q 565 235 543 226 q 598 261 588 243 q 612 297 608 279 q 615 344 615 315 l 615 799 q 627 878 615 846 q 663 925 639 910 q 713 946 688 940 q 775 951 739 951 q 896 913 856 951 q 936 785 936 874 z "},"ų":{"ha":935,"x_min":64,"x_max":950,"o":"m 646 97 l 790 97 q 760 24 774 65 q 741 -47 747 -17 q 735 -94 735 -78 q 747 -132 735 -117 q 775 -147 758 -147 q 819 -126 793 -147 q 868 -104 846 -104 q 923 -133 896 -104 q 950 -193 950 -162 q 935 -244 950 -219 q 844 -317 907 -293 q 728 -342 782 -342 q 583 -292 644 -342 q 522 -161 522 -242 q 556 -29 522 -99 q 646 97 590 40 m 368 293 q 429 214 368 214 q 466 227 450 214 q 490 264 482 240 q 499 318 499 288 l 499 504 q 515 587 499 551 q 564 642 532 622 q 639 661 596 661 q 756 628 714 661 q 797 508 797 596 l 797 147 q 763 31 797 63 q 640 -1 728 -1 q 576 6 603 -1 q 534 29 550 14 q 510 69 518 44 q 390 17 453 32 q 249 1 326 1 q 107 78 150 1 q 64 332 64 156 q 68 474 64 419 q 81 569 72 529 q 109 628 90 608 q 153 656 128 647 q 221 664 179 664 q 333 635 299 664 q 367 547 367 606 l 368 293 z "},"Ÿ":{"ha":988,"x_min":58,"x_max":935,"o":"m 188 1143 q 228 1066 188 1090 q 332 1042 269 1042 q 441 1064 404 1042 q 478 1143 478 1086 q 332 1244 478 1244 q 225 1216 263 1244 q 188 1143 188 1188 m 522 1143 q 563 1066 522 1090 q 667 1042 604 1042 q 744 1050 714 1042 q 793 1081 774 1058 q 813 1143 813 1104 q 667 1244 813 1244 q 588 1231 621 1244 q 538 1195 554 1218 q 522 1143 522 1172 m 653 208 q 613 48 653 96 q 489 0 572 0 q 371 44 408 0 q 332 199 333 88 l 331 424 l 117 674 q 58 789 58 740 q 117 910 58 865 q 215 951 172 951 q 322 897 275 951 l 492 700 l 633 865 q 785 950 704 950 q 878 917 844 950 q 935 807 935 860 q 915 745 935 778 q 853 661 896 713 l 653 417 l 653 208 z "},"Ź":{"ha":1051,"x_min":83,"x_max":974,"o":"m 603 1357 q 676 1376 636 1376 q 764 1329 731 1376 q 797 1229 797 1282 q 701 1115 797 1151 l 514 1053 q 444 1040 476 1040 q 390 1053 414 1040 q 353 1086 365 1065 q 340 1132 340 1107 q 347 1166 340 1150 q 358 1190 353 1182 q 381 1212 363 1197 q 401 1228 399 1226 q 428 1246 403 1231 l 603 1357 m 832 225 q 901 219 874 225 q 945 198 929 213 q 967 164 961 183 q 974 115 974 144 q 929 22 974 44 q 775 0 885 0 l 254 0 q 176 23 215 0 q 110 87 136 46 q 83 174 83 128 q 88 242 83 215 q 111 299 93 269 q 144 345 129 328 q 197 403 158 363 l 551 725 l 269 725 q 135 752 176 725 q 93 843 93 779 q 127 927 93 903 q 228 951 161 951 l 796 951 q 869 937 838 951 q 918 899 901 922 q 943 854 935 876 q 951 813 951 832 q 950 768 951 788 q 942 731 949 749 q 933 704 936 714 q 917 678 931 694 q 899 656 904 661 q 872 628 893 650 q 843 599 851 607 l 438 225 l 832 225 z "},"ź":{"ha":774,"x_min":51,"x_max":731,"o":"m 450 1058 q 517 1076 481 1076 q 595 1033 565 1076 q 625 942 625 990 q 539 839 625 872 l 369 782 q 306 771 335 771 q 256 782 278 771 q 224 812 235 793 q 213 854 213 831 q 268 943 213 904 q 290 958 268 943 l 450 1058 m 628 175 q 690 164 668 175 q 721 132 713 153 q 729 75 729 111 q 698 15 729 29 q 588 0 667 0 l 178 0 q 91 33 131 0 q 51 118 51 65 q 67 209 51 176 q 136 296 82 242 l 318 488 l 217 488 q 108 508 142 488 q 75 576 75 529 q 99 645 75 628 q 197 663 122 663 l 619 663 q 701 634 671 663 q 731 556 731 606 q 718 483 731 508 q 653 399 706 458 l 443 174 l 628 175 z "},"Ż":{"ha":1051,"x_min":83,"x_max":974,"o":"m 832 225 q 901 219 874 225 q 945 198 929 213 q 967 164 961 183 q 974 115 974 144 q 929 22 974 44 q 775 0 885 0 l 254 0 q 176 23 215 0 q 110 87 136 46 q 83 174 83 128 q 88 242 83 215 q 111 299 93 269 q 144 345 129 328 q 197 403 158 363 l 551 725 l 269 725 q 135 752 176 725 q 93 843 93 779 q 127 927 93 903 q 228 951 161 951 l 796 951 q 869 937 838 951 q 918 899 901 922 q 943 854 935 876 q 951 813 951 832 q 950 768 951 788 q 942 731 949 749 q 933 704 936 714 q 917 678 931 694 q 899 656 904 661 q 872 628 893 650 q 843 599 851 607 l 438 225 l 832 225 z "},"ż":{"ha":774,"x_min":51,"x_max":731,"o":"m 628 175 q 690 164 668 175 q 721 132 713 153 q 729 75 729 111 q 698 15 729 29 q 588 0 667 0 l 178 0 q 91 33 131 0 q 51 118 51 65 q 67 209 51 176 q 136 296 82 242 l 318 488 l 217 488 q 108 508 142 488 q 75 576 75 529 q 99 645 75 628 q 197 663 122 663 l 619 663 q 701 634 671 663 q 731 556 731 606 q 718 483 731 508 q 653 399 706 458 l 443 174 l 628 175 z "},"Ž":{"ha":1051,"x_min":83,"x_max":974,"o":"m 744 1153 q 828 1289 828 1236 q 791 1367 828 1333 q 711 1401 754 1401 q 624 1351 671 1401 q 603 1328 615 1342 q 584 1309 590 1315 q 569 1294 578 1303 q 555 1281 560 1285 q 544 1273 550 1278 q 532 1267 538 1268 q 521 1265 526 1265 q 499 1273 511 1265 q 479 1289 488 1281 q 453 1317 471 1297 q 426 1346 436 1336 q 333 1397 378 1397 q 250 1365 285 1397 q 215 1289 215 1333 q 219 1264 215 1276 q 226 1243 222 1251 q 238 1222 229 1235 q 252 1204 247 1210 q 269 1185 257 1199 q 283 1168 281 1172 q 519 1038 396 1038 q 592 1047 558 1038 q 656 1078 626 1057 q 703 1113 686 1099 q 744 1153 719 1128 m 832 225 q 901 219 874 225 q 945 198 929 213 q 967 164 961 183 q 974 115 974 144 q 929 22 974 44 q 775 0 885 0 l 254 0 q 176 23 215 0 q 110 87 136 46 q 83 174 83 128 q 88 242 83 215 q 111 299 93 269 q 144 345 129 328 q 197 403 158 363 l 551 725 l 269 725 q 135 752 176 725 q 93 843 93 779 q 127 927 93 903 q 228 951 161 951 l 796 951 q 869 937 838 951 q 918 899 901 922 q 943 854 935 876 q 951 813 951 832 q 950 768 951 788 q 942 731 949 749 q 933 704 936 714 q 917 678 931 694 q 899 656 904 661 q 872 628 893 650 q 843 599 851 607 l 438 225 l 832 225 z "},"ž":{"ha":774,"x_min":51,"x_max":731,"o":"m 610 878 q 685 999 685 951 q 652 1070 685 1040 q 579 1100 619 1100 q 500 1056 544 1100 q 482 1035 493 1047 q 465 1017 471 1024 q 452 1003 460 1011 q 440 992 444 996 q 429 985 435 989 q 419 980 424 981 q 408 979 414 979 q 396 982 403 979 q 383 989 389 985 q 370 1001 378 993 q 356 1015 363 1008 q 340 1033 350 1022 q 324 1051 331 1043 q 239 1097 279 1097 q 165 1068 196 1097 q 133 999 133 1039 q 135 981 133 990 q 142 963 138 972 q 149 948 146 954 q 160 933 153 942 q 171 919 167 924 q 183 904 175 914 q 194 892 192 894 q 407 774 296 774 q 463 781 436 774 q 508 797 490 788 q 549 822 526 806 q 581 849 571 839 q 610 878 592 858 m 628 175 q 690 164 668 175 q 721 132 713 153 q 729 75 729 111 q 698 15 729 29 q 588 0 667 0 l 178 0 q 91 33 131 0 q 51 118 51 65 q 67 209 51 176 q 136 296 82 242 l 318 488 l 217 488 q 108 508 142 488 q 75 576 75 529 q 99 645 75 628 q 197 663 122 663 l 619 663 q 701 634 671 663 q 731 556 731 606 q 718 483 731 508 q 653 399 706 458 l 443 174 l 628 175 z "},"ƒ":{"ha":692,"x_min":3,"x_max":686,"o":"m 193 208 q 188 136 193 161 q 165 97 182 111 q 69 74 138 74 q 32 66 47 74 q 10 47 17 58 q 3 22 3 36 q 17 -24 3 0 q 60 -69 32 -47 q 137 -106 88 -92 q 246 -121 186 -121 q 367 -103 319 -121 q 442 -44 415 -85 q 481 51 469 -4 q 494 192 492 107 l 494 428 l 558 428 q 634 445 613 428 q 656 513 656 463 q 633 578 656 560 q 558 597 611 597 l 494 597 l 494 632 q 523 731 494 707 q 619 754 551 754 q 669 769 651 754 q 686 807 686 785 q 622 903 686 856 q 442 950 558 950 q 322 932 369 950 q 246 874 274 914 q 206 778 218 833 q 193 639 194 722 l 193 597 l 128 597 q 54 574 74 597 q 35 510 35 551 q 128 428 35 428 l 193 428 l 193 208 z "}}}
